<?xml version="1.0" standalone="no"?>
<!DOCTYPE svg PUBLIC "-//W3C//DTD SVG 20010904//EN"
 "http://www.w3.org/TR/2001/REC-SVG-20010904/DTD/svg10.dtd">
<svg version="1.0" xmlns="http://www.w3.org/2000/svg"
 width="494.000000pt" height="494.000000pt" viewBox="0 0 494.000000 494.000000"
 preserveAspectRatio="xMidYMid meet">
<metadata>
Created by potrace 1.14, written by Peter Selinger 2001-2017
</metadata>
<g transform="translate(0.000000,494.000000) scale(0.100000,-0.100000)"
fill="#000000" stroke="none">
<path d="M3074 4871 c-2 -2 -14 -5 -26 -5 -13 -1 -27 -4 -33 -7 -5 -4 -20 -5
-32 -4 -13 1 -23 -1 -23 -5 0 -7 -27 -11 -87 -13 -24 -1 -43 -5 -43 -9 0 -3
-11 -5 -25 -4 -13 2 -22 0 -20 -5 3 -4 1 -10 -5 -14 -5 -3 -10 0 -10 7 0 11
-2 11 -9 0 -4 -7 -17 -15 -27 -17 -10 -2 -20 -4 -21 -5 -2 -2 -12 -4 -23 -5
-11 -1 -22 -4 -25 -5 -3 -1 -9 -4 -15 -5 -5 -1 -11 -3 -12 -4 -9 -7 -97 -7
-93 -1 3 5 -4 6 -16 3 -14 -4 -17 -8 -9 -13 8 -5 2 -11 -17 -18 -15 -6 -55
-23 -88 -36 -68 -29 -79 -31 -69 -13 4 7 3 9 -2 4 -5 -5 -9 -14 -9 -20 0 -6
-20 -17 -45 -24 -49 -14 -97 -51 -50 -39 21 6 22 5 7 -4 -9 -6 -21 -9 -26 -6
-5 3 -11 -1 -15 -9 -3 -8 -10 -15 -16 -15 -6 0 -9 4 -5 9 8 14 -9 21 -25 10
-10 -6 -11 -9 -2 -9 22 0 13 -20 -18 -39 -16 -10 -27 -20 -24 -23 3 -3 -1 -6
-8 -5 -36 1 -50 -4 -45 -17 6 -14 -9 -16 -29 -3 -7 4 -15 0 -18 -9 -3 -8 -10
-12 -16 -9 -14 9 -12 -18 2 -35 7 -8 3 -6 -9 4 -14 12 -23 15 -23 7 0 -7 -3
-10 -7 -8 -5 2 -16 -4 -25 -15 -10 -10 -14 -18 -9 -18 6 0 13 5 16 10 3 6 12
10 18 10 7 0 6 -4 -3 -10 -12 -8 -13 -12 -2 -19 11 -7 10 -9 -3 -14 -10 -5
-14 -3 -9 5 5 7 0 9 -14 6 -12 -3 -23 -1 -26 6 -3 7 -5 7 -5 -1 -1 -7 -7 -13
-13 -13 -7 0 -40 -25 -73 -56 -33 -30 -51 -52 -40 -49 18 6 18 5 2 -5 -9 -6
-22 -8 -27 -5 -6 4 -9 3 -8 -2 4 -12 -28 -54 -35 -46 -4 3 -7 1 -7 -5 0 -6
-45 -57 -100 -113 -55 -56 -97 -106 -94 -110 3 -5 0 -9 -6 -9 -6 0 -8 -4 -5
-10 3 -5 2 -10 -3 -10 -4 0 -30 -30 -56 -66 -26 -36 -43 -63 -37 -59 7 3 8 0
5 -9 -3 -9 -11 -16 -16 -16 -6 0 -8 -9 -5 -19 3 -15 1 -18 -11 -14 -10 4 -13
2 -8 -5 4 -6 -4 -28 -16 -49 -27 -43 -50 -91 -54 -111 -1 -7 -9 -23 -18 -36
-11 -18 -12 -26 -3 -36 8 -9 8 -11 1 -7 -7 4 -14 0 -17 -7 -3 -8 -1 -17 6 -20
7 -2 4 -5 -7 -5 -15 -1 -16 -4 -6 -16 7 -9 10 -18 6 -22 -3 -3 -6 0 -6 7 0 11
-3 11 -12 2 -8 -8 -8 -15 1 -26 9 -11 9 -16 0 -22 -8 -5 -10 -3 -4 7 6 10 5
11 -4 3 -11 -10 -25 -81 -24 -121 1 -13 -3 -20 -8 -17 -5 3 -9 -5 -8 -18 0
-13 -1 -54 -1 -93 -2 -73 1 -92 13 -112 5 -7 5 -13 2 -13 -6 0 7 -17 41 -55
16 -17 20 -33 18 -69 -3 -54 8 -65 31 -30 16 26 16 26 -7 19 -16 -4 -19 -3 -9
3 7 5 17 15 21 22 5 8 9 5 13 -9 6 -23 -29 -75 -43 -66 -18 11 -5 -37 14 -53
16 -13 18 -14 8 -1 -6 9 -8 20 -4 24 4 5 0 5 -8 0 -8 -5 -4 4 9 18 26 29 42
37 20 11 -17 -20 -20 -42 -8 -50 6 -3 5 -11 -2 -20 -9 -11 -8 -14 2 -14 11 0
11 -2 -1 -10 -13 -9 -13 -10 0 -10 13 0 13 -1 0 -10 -12 -8 -12 -10 -1 -10 10
0 11 -3 2 -14 -8 -10 -6 -20 11 -42 13 -15 17 -25 10 -20 -26 16 -10 -15 31
-56 41 -43 127 -88 170 -90 12 -1 28 -6 36 -12 12 -9 13 -8 6 4 -7 12 -6 13 6
4 15 -12 90 -24 84 -14 -2 3 7 6 19 6 13 0 23 -5 22 -10 -1 -6 2 -11 5 -11 3
0 13 -6 21 -12 8 -7 36 -14 61 -15 26 -2 47 -6 47 -10 0 -21 37 -5 47 20 l12
27 -5 -30 c-4 -22 -3 -26 5 -16 10 16 121 23 121 9 0 -9 -15 -11 -45 -8 -11 1
-17 -1 -14 -4 3 -3 23 -8 45 -10 21 -2 33 -2 26 1 -22 9 -3 21 28 17 22 -3 29
0 25 9 -4 6 0 3 9 -7 8 -10 17 -23 18 -27 2 -5 24 -10 49 -12 45 -2 46 -2 36
20 -9 19 -12 20 -21 8 -10 -13 -12 -13 -22 3 -20 31 35 20 61 -12 15 -19 25
-24 30 -17 5 8 11 9 19 2 14 -11 26 -5 26 13 0 6 -5 4 -10 -4 -6 -9 -10 -10
-10 -3 0 6 -12 13 -27 15 -14 2 -29 10 -31 18 -5 13 -3 13 13 0 17 -14 18 -13
12 4 -6 15 -5 16 5 8 20 -16 97 -22 91 -6 -5 14 21 13 34 -1 4 -4 2 -5 -6 0
-10 6 -12 4 -7 -4 5 -7 13 -8 19 -4 20 13 130 7 167 -10 19 -9 33 -17 30 -17
-35 -8 -50 -8 -46 -1 5 8 -15 8 -34 1 -3 -1 -8 -2 -12 -2 -3 1 -8 -4 -11 -11
-3 -9 8 -12 42 -11 25 1 48 3 51 4 3 1 10 1 15 0 6 -2 48 -4 95 -5 67 -1 100
-8 155 -29 39 -16 75 -34 80 -41 6 -6 16 -10 23 -8 6 3 12 0 12 -7 0 -6 4 -9
8 -6 5 3 28 -13 53 -35 24 -22 38 -37 30 -33 -9 5 -12 3 -7 -4 4 -7 14 -12 22
-12 8 0 14 -4 14 -9 0 -5 13 -23 30 -39 16 -16 26 -33 22 -37 -4 -5 1 -5 10
-2 10 3 17 3 17 -1 -1 -4 -1 -16 0 -27 1 -17 3 -18 11 -5 14 22 13 29 -17 56
-38 36 -40 60 -2 34 16 -12 28 -24 28 -28 -3 -18 2 -33 9 -29 4 3 7 -8 7 -23
1 -16 -3 -26 -7 -24 -4 3 -8 0 -8 -5 0 -6 9 -11 20 -11 11 0 19 -3 19 -7 -1
-5 0 -10 1 -13 8 -22 7 -39 -3 -33 -7 4 -4 -5 6 -20 9 -15 14 -27 11 -27 -4 0
0 -8 9 -18 9 -9 18 -31 21 -47 3 -16 10 -31 15 -33 5 -2 7 -12 4 -22 -4 -16 0
-20 18 -21 22 0 22 -1 4 -8 -19 -8 -19 -8 0 -19 19 -11 19 -11 -5 -12 -14 -1
-19 -4 -12 -7 6 -2 12 -11 12 -19 0 -8 6 -11 18 -7 14 5 14 3 -2 -9 -12 -9
-17 -22 -13 -31 3 -9 2 -19 -3 -22 -6 -4 -10 -12 -10 -18 0 -8 3 -8 9 1 7 11
9 11 14 -2 4 -9 2 -16 -4 -16 -7 0 -8 -7 -4 -18 11 -29 11 -37 -3 -34 -9 2
-11 -2 -5 -10 10 -17 11 -78 0 -78 -4 0 -6 -4 -3 -9 9 -15 -16 -111 -27 -104
-6 3 -7 1 -3 -5 3 -6 2 -13 -4 -17 -6 -4 -8 -11 -5 -16 4 -5 1 -9 -5 -9 -7 0
-9 -7 -6 -16 3 -8 2 -13 -3 -10 -11 7 -23 -22 -14 -36 3 -7 1 -8 -6 -4 -6 4
-14 0 -18 -11 -10 -28 -86 -143 -95 -143 -4 0 -5 -8 -1 -17 3 -10 2 -15 -2
-10 -11 9 -46 -43 -38 -56 3 -6 1 -7 -5 -3 -6 3 -17 -3 -25 -14 -7 -11 -16
-17 -19 -15 -3 3 -8 -1 -12 -10 -4 -11 -2 -14 6 -9 7 4 8 3 4 -4 -4 -7 -14
-12 -22 -12 -9 0 -12 -5 -8 -12 5 -8 2 -9 -11 -4 -15 5 -16 4 -5 -9 7 -9 9
-15 4 -14 -22 4 -36 -3 -71 -38 -30 -29 -32 -33 -11 -20 24 15 27 15 21 2 -3
-9 -18 -19 -34 -22 -16 -3 -29 -9 -29 -14 0 -5 8 -5 17 -2 15 6 16 5 3 -9 -12
-12 -18 -13 -29 -4 -11 8 -13 8 -8 0 4 -7 0 -15 -9 -18 -10 -4 -13 -2 -9 7 4
6 0 4 -8 -6 -11 -14 -16 -15 -20 -5 -4 9 -6 7 -7 -4 -2 -10 -3 -22 -4 -27 0
-5 -5 -13 -10 -18 -5 -4 -6 -3 -2 4 4 8 -1 11 -13 10 -11 0 -17 -5 -15 -9 3
-4 0 -8 -6 -8 -6 0 -8 -5 -5 -10 4 -6 3 -10 -2 -9 -15 3 -93 -34 -93 -44 0 -5
-12 -6 -27 -3 -18 4 -23 3 -14 -2 9 -7 10 -12 2 -16 -6 -4 -11 -4 -11 0 0 4
-9 -3 -19 -15 -11 -13 -25 -20 -30 -16 -6 3 -11 0 -11 -7 0 -10 -2 -10 -9 1
-7 11 -9 11 -13 0 -3 -8 -21 -13 -45 -13 -23 -1 -39 -4 -37 -7 4 -6 -193 -24
-198 -18 -2 1 -13 -3 -25 -9 -15 -9 -24 -9 -28 -1 -5 7 -14 4 -28 -8 -11 -10
-17 -12 -13 -6 4 8 1 13 -9 13 -8 0 -20 -10 -25 -22 -8 -21 -9 -22 -11 -3 -1
11 -1 23 0 27 1 8 -20 5 -36 -5 -7 -5 -13 -6 -13 -2 0 3 -8 1 -18 -4 -13 -7
-23 -6 -30 1 -9 9 -12 9 -12 0 0 -9 -5 -10 -19 -2 -26 13 -34 13 -25 -2 5 -9
2 -9 -9 1 -13 10 -17 11 -17 1 0 -9 -7 -7 -22 6 -12 10 -18 13 -14 6 6 -10 -6
-12 -58 -9 -44 2 -63 0 -59 -7 3 -6 0 -5 -8 2 -14 13 -33 17 -25 4 2 -4 -4 -8
-14 -8 -10 0 -16 4 -13 9 6 10 -58 4 -76 -8 -9 -5 -12 -4 -8 2 4 7 -3 10 -18
9 -14 0 -25 -5 -25 -10 0 -5 -7 -3 -15 4 -12 10 -15 10 -15 -1 0 -11 -2 -11
-10 1 -5 8 -10 10 -10 4 0 -6 -7 -11 -15 -11 -8 0 -12 3 -10 7 2 4 -34 6 -80
6 -75 0 -92 -5 -82 -20 1 -2 -7 -13 -17 -25 -17 -19 -20 -19 -31 -4 -8 11 -14
13 -19 5 -4 -7 -12 -12 -17 -12 -6 0 -8 3 -6 8 3 4 -8 7 -24 7 -16 0 -34 -6
-38 -14 -6 -10 -10 -10 -13 -1 -4 13 -68 21 -68 8 0 -22 129 -42 158 -24 6 3
9 -1 7 -11 -2 -10 -4 -20 -4 -23 -1 -3 -6 2 -11 10 -7 11 -10 11 -10 2 0 -10
-5 -10 -20 -2 -11 6 -19 7 -18 3 3 -7 -8 -15 -14 -12 -2 1 -52 3 -113 5 -97 3
-111 1 -116 -14 -7 -21 26 -53 47 -45 8 3 22 -1 31 -8 14 -12 16 -12 8 0 -5
10 -4 12 4 7 6 -4 10 -13 9 -19 -2 -7 0 -12 3 -12 3 0 13 -6 23 -14 15 -12 16
-12 10 5 -6 16 -5 17 7 6 15 -14 33 -16 25 -3 -6 9 37 7 53 -4 6 -3 11 0 11 7
0 9 3 9 10 -2 6 -10 10 -11 10 -3 0 13 26 13 48 0 6 -5 12 -4 12 0 0 5 9 9 20
9 32 0 5 -18 -29 -20 -17 0 -33 -6 -35 -13 -3 -7 1 -10 8 -7 7 3 17 -3 20 -13
6 -14 5 -15 -5 -6 -10 10 -15 9 -24 -4 -10 -13 -14 -13 -20 -3 -6 9 -4 11 5 5
9 -5 11 -4 6 3 -4 7 -11 12 -17 12 -11 0 -12 -30 -1 -31 4 -1 29 -2 55 -4 58
-4 74 -14 26 -17 -49 -2 -72 2 -112 18 -17 6 -18 5 -6 -14 10 -15 16 -18 21
-9 7 11 12 3 9 -15 0 -6 8 -5 66 6 12 3 27 -2 33 -10 7 -7 17 -11 23 -7 7 4 5
9 -6 12 -13 5 -12 8 8 18 14 6 23 7 20 3 -7 -12 13 -23 26 -14 8 4 7 9 -2 15
-8 5 -9 9 -4 9 16 0 46 -38 35 -45 -6 -4 -10 -1 -10 4 0 6 -4 11 -10 11 -5 0
-6 -8 -3 -18 6 -14 4 -15 -9 -4 -13 10 -17 10 -21 0 -4 -10 -6 -10 -6 1 -1 11
-4 11 -16 1 -8 -7 -22 -10 -30 -6 -9 3 -13 2 -10 -4 3 -6 1 -10 -4 -10 -21 0
-26 -2 -40 -13 -10 -8 -12 -8 -8 -1 4 7 -7 11 -33 10 -25 -1 -36 -4 -30 -10
13 -13 13 -26 -1 -26 -5 0 -7 5 -4 10 3 6 1 10 -4 10 -6 0 -11 -3 -11 -7 0 -5
-11 -9 -25 -9 -14 -1 -23 2 -20 6 3 4 -4 10 -16 13 -16 4 -18 3 -8 -9 9 -11 8
-14 -4 -14 -8 0 -17 6 -20 13 -2 6 -7 9 -11 6 -3 -3 6 -18 20 -33 19 -18 30
-23 39 -16 8 7 12 5 12 -5 0 -8 -4 -12 -9 -9 -4 3 -8 -1 -8 -10 0 -8 6 -16 13
-19 8 -3 5 -11 -11 -26 -29 -28 -22 -38 31 -46 23 -4 48 -12 56 -19 11 -8 13
-8 7 2 -4 7 -1 12 9 12 9 0 13 -5 10 -10 -3 -6 -1 -10 4 -10 6 0 11 6 11 13 0
9 2 9 8 -1 5 -7 19 -14 31 -17 17 -3 20 -1 13 8 -8 9 -3 12 18 12 16 1 26 -3
24 -7 -3 -5 -10 -5 -16 -2 -7 4 -8 2 -4 -4 5 -9 13 -9 29 0 12 6 40 13 62 15
31 3 43 -1 56 -18 12 -16 18 -19 24 -9 5 8 4 11 -2 7 -9 -6 -23 12 -23 28 0 5
24 0 37 -8 6 -4 14 -1 16 5 4 10 6 10 6 1 1 -7 6 -13 12 -13 5 0 7 5 4 10 -3
6 -1 10 4 10 6 0 11 -4 11 -10 0 -5 5 -10 11 -10 5 0 7 5 4 10 -7 12 -5 12
105 14 47 1 96 -1 110 -5 14 -3 35 -2 48 2 14 5 21 5 17 0 -10 -17 20 -18 33
-2 11 13 12 13 7 1 -4 -9 -1 -8 8 3 13 15 15 16 21 2 8 -21 -12 -27 -88 -29
-51 0 -63 -3 -58 -15 3 -8 1 -12 -4 -8 -6 3 -16 2 -23 -2 -9 -6 -10 -11 -2
-15 6 -4 11 -2 11 4 0 6 5 8 10 5 6 -3 13 1 16 10 6 14 8 14 20 -2 13 -17 14
-17 7 1 -5 16 -3 17 11 9 10 -6 35 -7 57 -3 30 6 37 5 29 -5 -7 -8 -5 -12 5
-12 8 0 12 4 9 9 -3 4 2 8 11 8 10 0 13 -5 9 -12 -5 -9 -2 -9 9 1 14 11 17 11
17 0 1 -10 4 -8 11 4 5 9 15 17 21 17 7 0 7 -4 -1 -13 -8 -10 -7 -14 4 -14 7
0 13 5 12 11 -1 7 18 11 49 10 34 0 51 4 51 12 0 9 -6 10 -17 4 -11 -6 -21 -5
-28 2 -9 9 -12 9 -12 -1 0 -10 -3 -11 -14 -2 -9 8 -16 8 -20 2 -4 -6 -13 -8
-20 -5 -8 3 -17 0 -21 -5 -3 -6 -11 -9 -16 -5 -5 3 -6 10 -3 16 4 6 -1 6 -14
-1 -29 -16 -32 -14 -19 14 7 14 16 25 20 25 5 0 5 -4 2 -10 -3 -5 -2 -10 4
-10 5 0 13 5 16 10 5 8 11 7 21 0 7 -7 37 -10 68 -8 47 2 57 0 66 -17 6 -12 9
-13 6 -3 -5 17 12 28 42 28 9 0 30 7 45 15 15 8 25 10 22 5 -3 -5 4 -8 15 -7
11 1 20 4 20 7 0 3 25 6 56 7 31 1 63 5 72 9 27 11 96 11 111 -1 12 -8 13 -7
6 4 -6 11 -2 13 19 9 14 -3 26 -1 26 3 0 5 5 9 11 9 5 0 7 -6 3 -12 -4 -7 2
-4 14 6 15 13 22 15 22 6 0 -10 5 -9 18 3 22 20 36 22 26 5 -4 -7 1 -5 11 4
17 16 19 16 32 0 11 -14 12 -14 8 -1 -3 9 0 16 7 17 11 1 23 3 71 11 5 0 6 5
3 9 -2 4 11 6 30 4 18 -2 42 -1 51 3 10 5 21 8 25 7 4 -1 28 7 53 18 30 13 44
24 39 31 -5 8 -3 9 6 4 7 -4 16 -2 21 6 7 11 9 11 9 1 0 -7 5 -10 10 -7 7 5 8
11 1 19 -7 8 -5 12 9 12 10 0 16 -4 13 -9 -9 -15 129 61 162 89 21 17 24 23
10 18 -11 -4 -17 -4 -13 1 4 4 18 8 30 9 13 1 22 7 21 14 -2 7 4 9 14 5 10 -4
14 -2 10 4 -4 6 0 14 9 17 9 3 12 2 8 -5 -3 -6 3 -5 14 2 12 7 18 17 16 21 -3
4 3 8 13 8 23 1 84 52 188 156 104 105 136 144 129 155 -3 5 -2 9 3 9 4 0 14
13 21 29 10 22 18 28 30 24 9 -3 14 -3 10 2 -10 11 11 47 23 40 5 -4 9 -3 8 2
-2 14 13 53 21 53 4 0 13 15 20 33 8 17 20 40 28 50 8 9 12 17 8 17 -4 0 -1
10 6 23 7 12 11 25 10 29 -1 5 2 8 6 8 4 0 8 8 8 18 1 9 4 31 8 47 4 17 8 50
9 75 1 25 7 48 12 52 9 7 -26 13 -48 9 -5 -1 -6 3 -3 8 4 5 15 8 25 6 17 -3
19 5 21 103 1 59 2 117 1 130 0 12 4 22 11 22 6 0 8 3 5 6 -4 4 -13 2 -21 -5
-15 -13 -16 -11 -16 82 -1 26 -5 47 -11 47 -6 0 -8 4 -5 9 3 5 -1 21 -9 37
-14 28 -9 57 6 33 6 -10 8 -7 6 8 0 12 -5 20 -9 17 -4 -3 -5 9 -3 27 3 21 0
29 -9 26 -7 -3 -12 5 -13 22 0 14 1 18 4 9 2 -10 9 -18 14 -18 6 0 8 4 5 8 -3
5 -8 24 -11 43 -3 18 -10 36 -15 39 -5 3 -9 14 -9 25 -1 49 -21 104 -45 124
-9 7 -16 19 -16 25 0 6 5 4 10 -4 5 -8 10 -12 10 -9 0 14 -64 164 -72 170 -6
3 -9 8 -7 10 8 14 -49 141 -60 134 -5 -3 -7 4 -4 15 3 12 0 20 -8 20 -7 0 -9
3 -6 7 4 3 -1 12 -11 20 -9 8 -11 11 -3 7 9 -5 12 -3 7 4 -4 7 -13 12 -21 12
-7 0 -16 7 -19 16 -6 15 -4 15 11 3 15 -12 15 -11 -1 14 -17 25 -35 40 -20 15
5 -7 3 -8 -5 -4 -7 5 -10 14 -7 22 3 8 1 14 -4 14 -6 0 -10 6 -10 14 0 8 -9
21 -20 29 -11 8 -17 17 -13 20 3 4 2 7 -4 7 -12 0 -123 105 -123 116 0 5 5 2
10 -6 9 -13 10 -13 10 0 1 12 3 11 11 -3 11 -19 29 -23 29 -6 0 5 -4 8 -9 5
-5 -3 -12 1 -15 10 -4 9 -9 14 -13 10 -3 -3 -14 1 -24 10 -11 10 -19 12 -24 4
-3 -6 -3 -9 2 -8 4 2 9 0 11 -4 4 -14 -3 -13 -28 5 -22 15 -21 22 3 18 4 0 7
3 7 9 0 5 -7 10 -14 10 -8 0 -35 11 -60 24 -30 16 -47 20 -50 12 -2 -6 -5 -3
-5 7 -1 10 -5 15 -11 12 -5 -3 -10 -1 -10 4 0 6 -7 11 -15 11 -13 0 -60 18
-105 40 -16 7 -33 6 -65 -5 -14 -5 -16 -4 -7 3 11 7 8 10 -12 14 -14 3 -26 1
-26 -3 0 -5 -5 -9 -11 -9 -5 0 -8 4 -5 8 3 5 0 9 -7 9 -7 1 -28 4 -47 8 -64
12 -304 12 -319 1 -11 -8 -13 -8 -7 2 4 6 2 12 -3 12 -6 0 -11 -5 -11 -12 0
-6 -7 -3 -16 8 -13 16 -15 16 -10 2 3 -10 1 -18 -4 -18 -6 0 -10 4 -10 9 0 6
-9 8 -20 6 -11 -2 -20 2 -21 8 0 7 -4 3 -9 -8 -5 -11 -9 -15 -9 -9 -1 7 -20
10 -48 10 -27 -1 -51 3 -55 9 -5 6 -8 5 -8 -3 0 -8 -5 -10 -12 -6 -19 12 -48
12 -48 0 0 -6 -5 -4 -10 4 -9 13 -11 13 -20 0 -5 -8 -10 -10 -10 -4 0 6 -17
11 -37 12 -60 1 -192 13 -271 26 -27 4 -32 3 -23 -8 8 -9 7 -13 -3 -13 -14 0
-16 14 -3 34 4 6 2 15 -4 19 -8 4 -9 3 -5 -4 10 -17 -16 -15 -65 4 -29 12 -37
19 -27 25 19 13 25 11 48 -13 11 -12 23 -18 27 -15 3 4 1 7 -6 7 -8 0 -10 8
-6 23 4 15 3 18 -3 8 -12 -17 -24 0 -12 19 4 7 6 19 3 26 -2 6 1 15 6 19 6 3
9 11 6 16 -4 5 -2 9 4 9 9 0 26 56 19 63 -2 2 3 11 10 20 8 9 11 21 7 27 -3 5
-1 10 5 10 6 0 15 11 20 25 5 14 25 50 45 80 19 30 34 56 33 58 -1 1 20 34 46
74 27 39 45 77 41 83 -3 6 -1 9 6 8 6 -2 14 3 17 11 3 9 0 11 -9 6 -8 -5 -10
-4 -6 0 4 5 15 10 25 11 9 2 18 7 20 13 7 22 105 120 115 114 6 -3 7 -1 3 5
-3 6 5 22 19 36 14 15 24 30 21 35 -3 5 2 8 12 7 9 0 16 4 15 10 -1 6 11 24
27 39 17 16 30 25 30 21 0 -4 7 -1 15 8 8 8 15 18 15 22 0 3 -7 1 -15 -6 -23
-19 -18 -3 7 22 16 16 20 17 15 5 -3 -9 -3 -17 1 -17 12 0 41 38 34 45 -4 3 0
4 8 1 8 -3 40 14 70 37 42 33 55 50 55 70 1 17 -5 29 -17 33 -25 7 -44 -6 -27
-18 10 -6 6 -7 -11 -2 -22 6 -23 5 -11 -9 7 -9 17 -14 22 -11 5 3 6 -3 2 -12
-5 -13 -3 -15 7 -9 9 5 11 4 6 -4 -4 -6 -12 -9 -17 -6 -5 4 -12 -1 -15 -9 -3
-9 -10 -16 -16 -16 -5 0 -6 5 -3 10 3 6 2 10 -4 10 -5 0 -12 -5 -14 -10 -3 -6
-4 -5 -3 2 2 7 10 12 19 12 23 -2 29 22 10 38 -15 11 -16 11 -10 -5 4 -10 3
-16 -3 -12 -8 5 -30 -9 -65 -42 -8 -7 -21 -13 -29 -13 -9 0 -16 -5 -16 -10 0
-6 -12 -15 -26 -20 -14 -6 -22 -14 -19 -20 3 -6 -1 -7 -9 -4 -19 7 -22 -12 -3
-20 6 -3 3 -4 -9 -1 -24 6 -52 -19 -34 -30 5 -3 10 -1 10 6 0 7 3 9 6 6 4 -4
1 -13 -6 -22 -10 -12 -10 -18 1 -32 13 -16 12 -17 -4 -4 -10 8 -16 20 -13 27
3 7 1 16 -4 19 -9 6 -14 -8 -11 -28 1 -5 -3 -6 -9 -2 -7 4 -7 12 0 25 5 10 7
20 2 23 -4 2 -2 2 5 1 7 -2 21 8 32 21 10 14 24 25 31 25 6 0 8 6 4 13 -4 6
-4 9 1 5 14 -13 47 12 40 30 -3 9 -3 13 1 9 4 -4 14 -1 22 6 13 9 14 9 8 0 -4
-7 -3 -13 2 -13 6 0 13 7 16 16 9 23 8 24 -11 18 -15 -5 -16 -4 -3 5 9 6 18 7
24 1 5 -5 17 -5 28 1 15 8 18 17 14 37 -5 22 -4 24 4 10 10 -17 13 -17 35 -2
14 9 22 21 19 26 -4 6 -10 5 -15 -3 -5 -8 -9 -9 -9 -3 0 6 8 18 17 25 12 10
14 10 9 1 -11 -19 22 -27 42 -10 9 9 23 13 30 11 6 -3 12 0 12 6 0 6 7 11 16
11 10 0 12 5 7 13 -13 20 -12 36 2 31 7 -3 16 -1 20 5 4 8 12 8 25 1 13 -7 20
-6 23 3 4 9 6 8 6 -2 1 -11 4 -11 19 0 15 13 16 12 3 -4 -8 -9 -16 -15 -19
-12 -3 3 -13 -2 -23 -11 -11 -10 -19 -12 -24 -5 -3 6 -14 11 -23 11 -13 0 -12
-5 8 -21 14 -11 18 -19 10 -16 -8 2 -23 0 -33 -5 -18 -9 -18 -10 0 -31 17 -20
17 -20 -11 1 -23 17 -32 20 -43 10 -17 -14 2 -29 25 -20 10 3 13 0 10 -9 -3
-8 -11 -13 -17 -12 -14 4 -14 -14 1 -23 6 -4 17 1 25 11 7 11 13 15 13 11 0
-5 7 -3 15 4 14 11 14 15 -2 34 l-18 21 24 -20 c17 -14 25 -16 28 -7 3 6 9 10
14 6 5 -3 12 2 15 10 3 9 17 16 31 16 16 0 22 4 17 12 -5 8 -2 9 9 5 9 -3 23
1 32 9 11 11 15 12 15 3 0 -7 9 -3 20 9 12 12 26 23 33 24 7 0 17 2 22 2 6 1
16 5 24 10 7 5 30 10 50 11 55 5 58 6 36 15 -15 6 -11 8 17 6 21 -1 41 -5 44
-9 4 -3 -3 -5 -14 -2 -15 3 -19 0 -15 -12 3 -8 9 -11 12 -6 3 5 29 9 56 8 62
-2 68 1 53 28 -10 19 -9 20 4 10 8 -7 18 -9 23 -5 4 4 5 -4 1 -18 -3 -14 -3
-19 0 -12 3 6 10 10 14 7 5 -3 12 0 16 6 5 8 3 9 -6 4 -9 -5 -11 -4 -6 4 4 6
12 9 17 5 5 -3 7 -10 3 -15 -3 -6 0 -10 7 -8 8 1 21 0 29 -1 12 -2 -24 -10
-96 -22 -6 -1 -11 -7 -11 -15 0 -9 4 -10 13 -2 7 5 27 9 46 8 56 -3 79 1 73
11 -3 6 -1 10 4 10 6 0 11 -4 11 -10 0 -5 5 -10 11 -10 5 0 7 5 3 11 -4 7 3 6
17 -2 13 -7 25 -11 27 -10 4 5 76 -10 87 -18 6 -4 26 -14 45 -21 19 -8 45 -25
58 -37 13 -13 26 -23 30 -23 17 0 52 32 52 48 0 13 2 14 9 4 4 -7 12 -12 17
-11 22 4 35 -2 28 -13 -4 -6 -3 -8 4 -4 7 4 8 17 2 36 -12 42 -14 45 -23 42
-5 -1 -6 2 -2 8 3 5 -5 21 -19 35 -15 14 -26 30 -26 35 0 5 14 -4 30 -20 34
-33 49 -38 46 -16 0 8 3 15 8 15 5 -1 13 5 18 13 7 10 8 9 4 -4 -3 -12 0 -18
10 -18 8 0 12 -5 9 -11 -5 -7 -14 -4 -26 7 -11 10 -19 12 -19 6 0 -7 4 -12 9
-12 6 0 8 -9 6 -20 -2 -11 1 -22 6 -25 5 -4 7 -11 3 -16 -3 -5 -10 -7 -15 -4
-5 4 -9 2 -9 -2 0 -5 10 -13 23 -18 12 -6 22 -15 22 -22 0 -6 4 -15 9 -20 5
-4 6 -3 2 4 -3 6 -2 14 3 17 5 3 7 16 4 29 -4 19 -3 20 7 5 6 -10 17 -15 27
-11 12 5 14 3 8 -7 -6 -9 -4 -11 4 -6 13 8 3 24 -42 70 -14 13 -16 21 -7 26 8
5 7 9 -4 13 -20 8 -21 24 -1 24 8 0 12 -3 10 -7 -2 -4 9 -7 26 -8 l30 -1 -23
20 -23 20 29 -17 c26 -17 27 -19 10 -31 -14 -10 -19 -10 -26 0 -5 8 -8 8 -8 1
0 -21 25 -35 40 -21 10 10 12 9 8 -4 -5 -12 0 -14 23 -11 21 3 29 0 27 -9 -2
-8 7 -13 22 -13 19 -1 24 -6 23 -21 -1 -11 0 -14 3 -7 8 17 27 15 20 -3 -3 -8
-1 -15 4 -15 6 0 10 11 10 25 0 17 -6 25 -17 25 -15 0 -16 2 -3 10 11 7 11 10
2 10 -7 0 -11 4 -8 9 3 5 -1 11 -9 15 -8 3 -17 1 -20 -4 -4 -6 -1 -10 4 -10 6
0 11 -4 11 -9 0 -5 -6 -8 -14 -7 -21 3 -47 27 -40 38 3 5 12 4 20 -3 8 -7 14
-7 14 -1 0 5 11 9 24 8 13 0 22 -4 19 -8 -2 -5 0 -8 6 -8 6 0 17 -12 25 -27
15 -30 24 -33 37 -12 5 8 0 19 -12 30 -10 9 -19 27 -19 40 0 19 -2 21 -10 9
-8 -12 -10 -12 -10 -1 0 8 8 20 18 27 9 7 12 14 5 14 -6 0 -18 -9 -26 -20
l-14 -21 -6 22 c-3 12 -11 19 -19 17 -8 -4 -14 3 -15 20 0 14 2 21 5 16 4 -5
17 -14 28 -21 22 -12 44 -1 44 21 0 6 -5 4 -10 -4 -8 -12 -10 -12 -10 -1 0 14
-37 51 -52 51 -4 0 -8 6 -8 14 0 8 -9 18 -20 21 -11 3 -20 12 -20 19 0 13 27
15 46 3 7 -4 11 3 10 20 -1 18 -7 27 -20 29 -10 1 -22 6 -25 11 -9 12 -34 15
-26 3 3 -5 1 -10 -4 -10 -6 0 -11 -4 -11 -10 0 -5 6 -7 13 -4 8 3 14 -2 14
-10 0 -22 -47 -12 -68 13 -9 11 -20 17 -23 13 -4 -3 -4 2 0 12 7 17 8 17 19
-3 6 -12 15 -18 20 -14 4 4 5 2 1 -4 -4 -7 -3 -13 2 -13 5 0 12 11 14 23 3 15
0 24 -8 24 -7 0 -10 -5 -7 -11 4 -6 2 -7 -3 -3 -5 5 -9 14 -9 20 0 7 -7 12
-15 12 -22 0 -100 36 -100 47 0 4 -5 8 -11 8 -5 0 -7 -5 -4 -10 4 -6 -5 -5
-20 2 -24 11 -25 13 -10 24 14 10 13 12 -10 10 -18 -1 -24 -5 -20 -16 5 -12 3
-12 -11 2 -17 17 -11 43 8 32 10 -6 21 -8 66 -13 7 0 10 -6 6 -13 -5 -8 -2 -9
10 -5 14 5 17 3 12 -8 -3 -8 -1 -15 4 -15 6 0 10 5 10 12 0 6 3 8 7 5 3 -4 12
-2 19 4 19 15 36 1 28 -23 -5 -17 -3 -20 10 -15 10 4 14 3 11 -2 -10 -17 11
-20 38 -6 23 12 28 11 39 -3 11 -13 11 -15 -2 -7 -9 5 -8 0 4 -13 23 -26 23
-26 23 -7 0 8 -5 11 -10 8 -6 -3 -7 -1 -3 5 13 21 26 13 27 -15 0 -25 1 -25 8
-8 5 11 7 23 5 27 -3 4 1 10 7 14 8 5 9 3 4 -6 -5 -9 -4 -11 3 -6 7 4 12 14
12 22 0 21 14 17 43 -12 19 -18 30 -23 42 -17 13 8 10 14 -16 38 -18 17 -29
24 -25 18 4 -7 3 -13 -2 -13 -6 0 -12 6 -15 14 -3 8 -16 20 -28 26 -17 10 -20
9 -14 -2 3 -7 -1 -4 -9 6 -9 11 -16 14 -16 8 0 -7 -7 -12 -15 -12 -8 0 -15 5
-15 11 0 6 -7 9 -15 5 -8 -3 -15 -1 -15 4 0 6 -8 10 -19 10 -10 0 -24 6 -30
14 -14 17 -97 47 -105 38 -3 -3 -6 -1 -6 5 0 6 -15 13 -32 17 -18 3 -44 8 -58
11 -87 17 -142 23 -197 21 -33 0 -59 2 -56 7 2 4 -1 7 -6 7 -6 0 -11 -8 -12
-17 0 -15 -2 -15 -7 -3 -9 20 -86 24 -78 4 3 -8 1 -14 -4 -14 -6 0 -10 6 -10
14 0 11 -12 14 -46 13 -25 -1 -47 -4 -50 -6z m167 -18 c13 -17 13 -17 -6 -3
-11 8 -22 16 -24 17 -2 2 0 3 6 3 6 0 17 -8 24 -17z m-274 -39 c-3 -3 -12 -4
-19 -1 -8 3 -5 6 6 6 11 1 17 -2 13 -5z m-78 -41 c0 -11 -3 -13 -6 -6 -3 10
-10 10 -26 2 -21 -10 -21 -10 -3 5 26 21 36 20 35 -1z m41 13 c0 -2 -7 -7 -16
-10 -8 -3 -12 -2 -9 4 6 10 25 14 25 6z m260 -41 c0 -2 -5 -7 -12 -11 -7 -4
-8 -3 -4 4 4 7 1 12 -8 12 -9 0 -16 5 -16 10 0 7 6 7 20 0 11 -6 20 -13 20
-15z m189 -18 c6 -12 9 -14 7 -5 -4 13 0 15 17 11 26 -6 57 -11 74 -12 8 -1
10 -8 6 -18 -6 -15 -4 -16 9 -5 12 10 18 9 28 -3 7 -9 10 -18 6 -22 -3 -3 -6
-1 -6 6 0 7 -4 10 -10 6 -5 -3 -7 -13 -4 -23 5 -15 4 -15 -6 1 -6 9 -16 14
-22 11 -7 -5 -8 -2 -3 6 6 10 3 12 -13 8 -12 -4 -20 -3 -17 2 3 4 -2 13 -10
20 -12 10 -13 8 -10 -9 2 -12 0 -19 -6 -16 -5 4 -9 13 -9 21 0 8 -5 12 -10 9
-6 -4 -7 -12 -3 -18 4 -7 -1 -5 -11 3 -10 8 -31 13 -46 12 -17 -1 -30 4 -34
13 -5 13 -2 14 15 4 16 -8 24 -8 33 2 8 9 8 10 -1 5 -6 -3 -14 -3 -17 2 -2 4
4 8 13 9 10 1 24 -8 30 -20z m-119 -3 c0 -8 -19 -13 -24 -6 -3 5 1 9 9 9 8 0
15 -2 15 -3z m34 -2 c3 -5 -1 -9 -9 -9 -8 0 -15 4 -15 9 0 4 4 8 9 8 6 0 12
-4 15 -8z m-375 -39 c-12 -15 -12 -16 3 -10 10 3 22 -1 29 -11 11 -14 11 -15
0 -5 -16 13 -44 6 -34 -10 3 -6 1 -7 -5 -3 -15 9 -15 29 0 44 18 18 22 15 7
-5z m64 10 c-7 -2 -21 -2 -30 0 -10 3 -4 5 12 5 17 0 24 -2 18 -5z m44 1 c-3
-3 -12 -4 -19 -1 -8 3 -5 6 6 6 11 1 17 -2 13 -5z m-145 -36 c-7 -7 -12 -8
-12 -2 0 5 -5 2 -10 -6 -7 -12 -9 -10 -7 7 1 18 4 20 16 10 12 -10 14 -9 7 8
-6 16 -5 18 5 8 10 -10 10 -16 1 -25z m729 12 c9 0 19 -8 21 -18 3 -12 0 -19
-9 -19 -8 0 -12 6 -8 15 3 8 0 12 -7 9 -7 -2 -12 -10 -10 -16 1 -7 -2 -10 -8
-6 -6 3 -8 11 -4 16 3 5 0 18 -7 27 -11 14 -11 15 1 5 8 -7 22 -13 31 -13z
m-618 -3 c3 -8 -1 -14 -8 -14 -7 0 -11 6 -8 14 3 7 6 13 8 13 2 0 5 -6 8 -13z
m-160 -4 c-7 -2 -13 -9 -13 -14 0 -6 5 -7 12 -3 7 4 8 3 4 -5 -4 -6 -12 -9
-17 -6 -5 3 -25 2 -44 -4 -21 -5 -33 -6 -30 0 4 5 14 9 24 9 9 0 26 7 37 15
10 8 24 14 29 14 6 0 4 -3 -2 -6z m729 -7 c7 4 8 2 4 -5 -9 -13 -26 -5 -25 12
0 9 2 8 6 -1 2 -6 10 -9 15 -6z m94 -34 c-18 -16 -18 -16 -6 6 6 13 14 21 18
18 3 -4 -2 -14 -12 -24z m47 5 c7 4 6 -1 -2 -10 -16 -20 -33 -13 -24 10 4 11
8 13 11 5 2 -7 9 -9 15 -5z m-834 -30 c0 -9 -2 -8 -6 1 -2 6 -10 9 -15 6 -7
-4 -8 -2 -4 5 9 13 26 5 25 -12z m421 19 c0 -2 -8 -10 -17 -17 -16 -13 -17
-12 -4 4 13 16 21 21 21 13z m339 -33 c8 -18 7 -21 -4 -16 -8 3 -15 9 -15 13
0 5 -9 7 -20 5 -11 -2 -20 0 -20 4 0 26 46 22 59 -6z m-794 -1 c-3 -3 -11 0
-18 7 -9 10 -8 11 6 5 10 -3 15 -9 12 -12z m1017 3 c3 3 5 -1 5 -9 0 -7 -7
-12 -16 -11 -9 2 -19 4 -22 4 -3 1 -6 8 -6 15 0 11 5 12 17 6 10 -5 19 -7 22
-5z m-192 -17 c0 -19 -2 -20 -10 -8 -13 19 -13 30 0 30 6 0 10 -10 10 -22z
m48 7 c12 1 22 -2 22 -6 0 -8 40 -24 53 -21 4 1 7 -2 7 -7 0 -6 -9 -9 -20 -8
-11 1 -20 5 -20 10 0 4 -4 5 -10 2 -5 -3 -10 -2 -10 2 0 5 -9 9 -20 9 -11 0
-20 -4 -20 -9 0 -4 -4 -5 -10 -2 -5 3 -10 16 -10 28 0 13 3 17 8 11 4 -6 17
-10 30 -9z m-576 -2 c-6 -3 -10 -9 -6 -14 3 -5 1 -9 -4 -9 -21 0 -19 26 2 27
11 0 15 -1 8 -4z m-687 -13 c-3 -5 -12 -10 -18 -10 -7 0 -6 4 3 10 19 12 23
12 15 0z m485 0 c0 -5 -7 -6 -17 -3 -9 4 -14 2 -10 -3 3 -6 -3 -11 -14 -11
-10 -1 -19 3 -19 8 0 6 4 8 9 4 5 -3 12 -1 16 5 8 13 35 13 35 0z m-410 -25
c0 -8 -3 -16 -7 -18 -5 -3 -8 5 -8 18 0 13 3 21 8 18 4 -2 7 -10 7 -18z m692
1 c5 -7 8 -3 8 8 0 11 3 17 6 13 4 -3 4 -14 0 -23 -5 -13 -9 -15 -18 -6 -14
14 -32 16 -23 3 3 -5 0 -13 -6 -17 -7 -4 -9 -3 -6 2 3 6 2 16 -4 24 -6 10 -9
11 -9 3 0 -7 -4 -13 -10 -13 -5 0 -7 7 -4 15 7 17 53 10 66 -9z m87 2 c-12
-23 -26 -30 -34 -18 -4 6 -1 9 6 8 19 -5 22 20 2 25 -10 3 -7 4 9 4 22 -1 25
-4 17 -19z m51 17 c0 -2 -10 -9 -22 -15 -22 -11 -22 -10 -4 4 21 17 26 19 26
11z m-327 -20 c4 -8 3 -16 -1 -19 -4 -3 -9 4 -9 15 -2 23 3 25 10 4z m590 -5
c10 -12 9 -12 -4 -2 -9 6 -18 9 -21 6 -3 -3 -9 -1 -12 4 -9 15 22 8 37 -8z
m-1193 5 c0 -2 -10 -9 -22 -15 -22 -11 -22 -10 -4 4 21 17 26 19 26 11z m47
-2 c-4 -3 -1 -13 6 -22 11 -14 10 -14 -5 -2 -17 12 -23 9 -19 -12 1 -5 -3 -6
-8 -3 -5 4 -11 1 -13 -6 -3 -7 -7 -4 -12 7 -4 11 -4 16 0 13 3 -4 15 2 27 13
19 17 40 28 24 12z m367 -11 c3 -5 -1 -9 -9 -9 -8 0 -12 4 -9 9 3 4 7 8 9 8 2
0 6 -4 9 -8z m-600 -24 c-3 -4 -9 -8 -15 -8 -5 0 -9 4 -9 8 0 5 7 9 15 9 8 0
12 -4 9 -9z m166 -33 c-14 -17 -30 -20 -30 -5 0 6 5 9 11 8 6 -2 14 3 16 10 3
8 -2 10 -14 6 -15 -5 -15 -4 -3 5 21 14 37 -4 20 -24z m525 25 c-3 -5 -12 -10
-18 -10 -7 0 -6 4 3 10 19 12 23 12 15 0z m-780 -18 c-3 -3 -11 0 -18 7 -9 10
-8 11 6 5 10 -3 15 -9 12 -12z m365 -16 c0 -4 -7 -6 -15 -2 -9 3 -15 0 -15 -9
0 -8 -8 -15 -18 -15 -10 0 -23 -5 -30 -12 -7 -7 -12 -9 -12 -5 0 4 -6 2 -14
-5 -8 -7 -11 -17 -8 -22 3 -5 1 -6 -5 -3 -5 3 -24 -3 -41 -14 -39 -23 -56 -26
-24 -3 12 8 20 20 17 25 -3 5 2 6 11 2 13 -5 15 -3 9 7 -5 8 -4 11 2 7 12 -7
55 26 48 37 -3 3 -2 4 2 1 3 -3 13 1 21 8 13 9 14 9 8 0 -4 -8 -1 -13 9 -13 9
0 13 5 10 10 -3 6 -1 10 5 10 6 0 8 5 4 12 -4 7 -3 8 4 4 7 -4 12 -1 12 6 0 9
3 9 10 -2 5 -8 10 -19 10 -24z m455 25 c3 -5 2 -12 -3 -15 -5 -3 -9 1 -9 9 0
17 3 19 12 6z m400 -1 c3 -5 1 -10 -4 -10 -6 0 -11 5 -11 10 0 6 2 10 4 10 3
0 8 -4 11 -10z m78 -29 c-2 -3 -9 1 -15 7 -8 8 -15 7 -25 -6 -11 -15 -12 -13
-2 9 10 25 12 26 28 10 10 -9 16 -18 14 -20z m140 19 c-3 -11 -10 -20 -15 -20
-5 0 -6 -6 -2 -12 4 -7 -1 -5 -12 4 -15 14 -16 20 -5 30 10 11 11 9 6 -7 -5
-18 -4 -18 11 3 20 27 24 28 17 2z m-514 -3 c8 -10 7 -14 -2 -14 -8 0 -14 6
-14 14 0 7 1 13 2 13 2 0 8 -6 14 -13z m756 4 c-3 -5 -1 -12 5 -16 5 -3 10
-11 10 -18 0 -6 -6 -2 -14 8 -13 18 -13 35 0 35 3 0 3 -4 -1 -9z m-1715 -5 c0
-2 -7 -7 -16 -10 -8 -3 -12 -2 -9 4 6 10 25 14 25 6z m225 -17 c-4 -5 -12 -9
-18 -8 -9 0 -8 2 1 6 6 2 9 10 6 15 -4 7 -2 8 5 4 6 -4 9 -12 6 -17z m782 -1
c-3 -8 -6 -5 -6 6 -1 11 2 17 5 13 3 -3 4 -12 1 -19z m410 8 c-3 -8 -1 -17 6
-20 9 -3 9 -5 0 -5 -7 -1 -17 8 -23 19 -9 16 -8 20 6 20 10 0 14 -5 11 -14z
m188 4 c3 -5 1 -10 -4 -10 -6 0 -11 5 -11 10 0 6 2 10 4 10 3 0 8 -4 11 -10z
m-740 -10 c-3 -5 -12 -10 -18 -10 -7 0 -6 4 3 10 19 12 23 12 15 0z m30 0 c3
-5 1 -10 -4 -10 -6 0 -11 5 -11 10 0 6 2 10 4 10 3 0 8 -4 11 -10z m145 0 c0
-5 -2 -10 -4 -10 -3 0 -8 5 -11 10 -3 6 -1 10 4 10 6 0 11 -4 11 -10z m37 4
c-3 -3 -12 -4 -19 -1 -8 3 -5 6 6 6 11 1 17 -2 13 -5z m506 -8 c3 -8 -2 -20
-11 -28 -15 -12 -16 -11 -3 5 9 12 10 17 2 17 -7 0 -9 5 -6 10 8 13 12 13 18
-4z m-1144 -24 c0 -11 -2 -12 -6 -4 -2 6 -9 10 -14 7 -5 -4 -6 1 -3 9 8 20 24
11 23 -12z m276 18 c3 -5 1 -10 -4 -10 -6 0 -11 5 -11 10 0 6 2 10 4 10 3 0 8
-4 11 -10z m795 -5 c7 -8 16 -13 20 -10 5 3 11 2 14 -3 10 -17 -28 -8 -46 10
-10 10 -14 18 -9 18 5 0 14 -7 21 -15z m147 -5 c-1 -11 -5 -20 -9 -20 -10 0
-10 4 -2 24 8 22 13 20 11 -4z m-1712 -10 c-8 -9 -12 -19 -9 -23 3 -3 -6 -4
-20 -3 -16 2 -30 -3 -36 -13 -5 -9 -10 -12 -10 -7 0 16 52 62 71 62 16 0 17
-2 4 -16z m87 2 c-7 -2 -10 -7 -8 -10 2 -4 -6 -7 -19 -7 -13 0 -21 3 -18 8 2
4 11 7 19 7 8 0 12 4 9 10 -4 6 1 7 11 3 11 -4 13 -8 6 -11z m119 -10 c3 2 -4
-5 -14 -14 -11 -10 -23 -18 -28 -18 -14 0 -20 18 -8 26 8 5 9 3 4 -6 -6 -10
-4 -12 9 -7 10 4 20 7 23 7 4 0 -2 10 -13 23 -19 22 -19 22 2 4 11 -9 23 -16
25 -15z m1549 18 c8 -5 11 -10 5 -10 -5 0 -17 5 -25 10 -8 5 -10 10 -5 10 6 0
17 -5 25 -10z m-1613 -18 c-12 -13 -13 -22 -6 -37 7 -14 4 -12 -9 5 -19 23
-20 46 -2 35 5 -3 11 -1 15 5 3 5 9 10 12 10 3 0 -1 -8 -10 -18z m1612 -26 c0
-7 -2 -6 -6 2 -2 6 -8 10 -12 8 -4 -3 -8 1 -8 9 0 11 4 12 14 4 7 -6 13 -17
12 -23z m-234 14 c3 -6 -1 -7 -9 -4 -18 7 -21 14 -7 14 6 0 13 -4 16 -10z m30
0 c3 -5 1 -10 -4 -10 -6 0 -11 5 -11 10 0 6 2 10 4 10 3 0 8 -4 11 -10z m-344
-23 c-10 -9 -11 -8 -5 6 3 10 9 15 12 12 3 -3 0 -11 -7 -18z m42 6 c-3 -7 -6
-13 -8 -13 -2 0 -5 6 -8 13 -3 8 1 14 8 14 7 0 11 -6 8 -14z m361 -4 c-3 -5
-10 -7 -15 -3 -5 3 -7 10 -3 15 3 5 10 7 15 3 5 -3 7 -10 3 -15z m-1734 1 c0
-5 -2 -10 -4 -10 -3 0 -8 5 -11 10 -3 6 -1 10 4 10 6 0 11 -4 11 -10z m225 0
c-3 -5 -12 -10 -18 -10 -7 0 -6 4 3 10 19 12 23 12 15 0z m1189 -5 c-4 -8 -8
-15 -10 -15 -2 0 -4 7 -4 15 0 8 4 15 10 15 5 0 7 -7 4 -15z m-1285 -18 c0 -9
-2 -8 -6 1 -2 6 -10 9 -15 6 -7 -4 -8 -2 -4 5 9 13 26 5 25 -12z m66 -5 c-3
-3 -11 0 -18 7 -9 10 -8 11 6 5 10 -3 15 -9 12 -12z m1508 1 c-3 -7 -6 -13 -8
-13 -2 0 -5 6 -8 13 -3 8 1 14 8 14 7 0 11 -6 8 -14z m-1616 1 c-3 -3 -12 -4
-19 -1 -8 3 -5 6 6 6 11 1 17 -2 13 -5z m83 -23 c0 -13 -2 -13 -9 -2 -7 11
-12 8 -26 -13 -9 -14 -21 -23 -26 -20 -5 3 -12 -2 -15 -10 -3 -8 -14 -18 -25
-21 -11 -4 -17 -10 -15 -14 6 -9 -30 -41 -38 -34 -3 4 -6 1 -6 -5 0 -7 -4 -12
-10 -12 -20 0 3 28 28 35 18 4 22 9 13 14 -10 6 -9 10 5 15 9 3 14 9 11 12 -3
3 -15 1 -26 -6 -20 -10 -20 -9 -9 16 7 14 14 21 16 15 2 -6 8 -11 14 -11 6 0
8 6 5 14 -3 8 0 19 7 25 14 11 26 5 26 -13 0 -6 -5 -4 -10 4 -5 8 -10 13 -11
10 -9 -48 -1 -62 21 -35 7 8 16 12 21 9 5 -3 9 1 9 9 0 8 7 18 16 21 8 3 12
10 9 16 -3 6 1 7 9 4 9 -3 16 -14 16 -23z m950 7 c0 -8 3 -9 8 -3 11 15 32 17
32 2 0 -8 -9 -13 -22 -11 -13 1 -29 3 -36 3 -7 1 -10 6 -7 11 9 14 25 12 25
-2z m195 -6 c-3 -3 -11 0 -18 7 -9 10 -8 11 6 5 10 -3 15 -9 12 -12z m52 4 c0
-8 -8 -11 -21 -8 -19 5 -19 6 0 13 10 4 19 8 20 8 0 1 1 -5 1 -13z m28 -6 c3
-5 1 -10 -4 -10 -6 0 -11 5 -11 10 0 6 2 10 4 10 3 0 8 -4 11 -10z m-1375 -4
c0 -2 -7 -7 -16 -10 -8 -3 -12 -2 -9 4 6 10 25 14 25 6z m1447 -12 c-3 -3 -12
-4 -19 -1 -8 3 -5 6 6 6 11 1 17 -2 13 -5z m308 -31 c-2 -10 -4 -22 -5 -28 -1
-10 -21 30 -26 52 -1 9 3 10 16 3 10 -5 17 -18 15 -27z m-1615 23 c0 -2 -8
-10 -17 -17 -16 -13 -17 -12 -4 4 13 16 21 21 21 13z m686 -8 c4 -7 3 -8 -4
-4 -7 4 -12 2 -12 -5 0 -7 -3 -10 -6 -6 -6 5 3 27 11 27 2 0 7 -5 11 -12z
m958 -24 c9 -24 2 -26 -12 -4 -7 11 -8 20 -3 20 5 0 12 -7 15 -16z m-1674 -14
c0 -5 -2 -10 -4 -10 -3 0 -8 5 -11 10 -3 6 -1 10 4 10 6 0 11 -4 11 -10z m510
1 c0 -5 -7 -12 -16 -15 -14 -5 -15 -4 -4 9 14 17 20 19 20 6z m-749 -34 c-10
-9 -11 -8 -5 6 3 10 9 15 12 12 3 -3 0 -11 -7 -18z m218 20 c-2 -1 -13 -9 -24
-17 -19 -14 -19 -14 -6 3 7 9 18 17 24 17 6 0 8 -1 6 -3z m-284 -38 c-4 -5
-12 -9 -18 -8 -9 0 -8 2 1 6 6 2 9 10 6 15 -4 7 -2 8 5 4 6 -4 9 -12 6 -17z
m20 -27 l-28 -27 24 31 c13 17 26 30 28 27 3 -2 -8 -16 -24 -31z m138 7 c3
-12 3 -19 0 -16 -7 8 -32 -16 -27 -25 2 -4 -5 -9 -16 -13 -22 -7 -26 -20 -10
-30 15 -9 2 -25 -15 -18 -8 3 -15 0 -15 -6 0 -6 5 -11 12 -11 6 0 3 -9 -7 -20
-10 -12 -25 -18 -32 -16 -7 3 -15 0 -19 -6 -4 -7 -3 -8 4 -4 7 4 12 2 12 -4 0
-7 -7 -9 -16 -6 -12 4 -14 1 -9 -14 4 -12 2 -20 -5 -20 -7 0 -10 -7 -6 -15 3
-8 0 -14 -6 -12 -7 1 -13 -4 -14 -10 -1 -7 -3 -16 -4 -20 -1 -5 -2 -11 -1 -15
0 -5 -5 -7 -12 -5 -6 1 -11 -5 -9 -13 2 -8 0 -12 -3 -8 -10 9 -45 -9 -45 -24
0 -7 6 -6 18 3 15 11 15 11 4 -1 -7 -8 -17 -16 -22 -16 -6 -1 -15 -2 -21 -3
-6 0 -9 -10 -6 -21 3 -11 2 -18 -2 -16 -4 3 -17 -15 -30 -40 -13 -24 -28 -41
-34 -37 -6 4 -8 0 -4 -10 3 -10 2 -17 -4 -17 -6 0 -8 -4 -5 -9 8 -12 -21 -48
-30 -38 -5 4 -2 12 6 17 16 10 24 50 10 50 -6 0 -9 -3 -9 -7 3 -20 -2 -32 -13
-29 -7 1 -10 1 -5 -1 4 -3 4 -9 1 -14 -3 -6 0 -16 6 -24 9 -11 9 -15 1 -15 -6
0 -11 -6 -11 -12 0 -18 -70 -62 -81 -51 -12 12 19 55 33 47 6 -4 5 -10 -3 -15
-8 -5 -9 -9 -3 -9 18 0 24 13 12 27 -8 9 -8 20 -1 36 6 12 11 27 12 32 1 6 12
16 24 23 12 8 15 11 5 8 -12 -3 -15 -1 -11 10 3 8 11 13 18 10 8 -3 11 2 8 15
-4 14 0 19 15 19 27 0 37 -16 16 -24 -9 -4 -15 -9 -12 -11 11 -11 38 8 38 27
0 10 5 16 10 13 6 -4 10 -3 9 2 -4 25 4 44 32 71 18 17 29 37 26 45 -3 8 1 14
9 14 8 0 14 -4 14 -9 0 -5 5 -6 11 -2 8 4 8 8 0 13 -12 8 -3 51 11 51 5 0 7
-4 4 -8 -2 -4 -1 -14 3 -21 6 -9 11 -10 15 -2 4 6 1 11 -6 11 -10 1 -9 4 2 13
8 7 16 17 17 23 2 13 -28 15 -44 1 -10 -7 -12 -3 -11 16 2 23 4 24 23 11 20
-13 24 -11 53 22 18 20 30 40 27 44 -3 5 0 12 6 16 8 5 9 3 4 -7 -5 -8 -4 -11
1 -6 5 5 9 14 9 20 0 7 8 11 18 11 12 -1 15 2 9 10 -5 6 -5 22 -1 36 4 16 7
19 8 8 1 -10 4 -18 7 -18 10 0 43 44 44 58 0 19 7 14 13 -9z m87 17 c0 -2 -7
-7 -16 -10 -8 -3 -12 -2 -9 4 6 10 25 14 25 6z m-276 -15 c3 -4 -7 -19 -22
-32 l-27 -24 23 26 c12 14 19 29 15 32 -3 4 -4 7 0 7 3 0 8 -4 11 -9z m166 5
c0 -2 -8 -10 -17 -17 -16 -13 -17 -12 -4 4 13 16 21 21 21 13z m520 -31 c11
-13 10 -14 -5 -9 -14 6 -16 4 -10 -6 5 -8 4 -11 -3 -6 -6 4 -9 13 -5 21 7 19
8 19 23 0z m-409 -28 c-10 -9 -11 -8 -5 6 3 10 9 15 12 12 3 -3 0 -11 -7 -18z
m-251 1 c0 -6 -3 -8 -7 -5 -3 4 -13 1 -22 -6 -14 -11 -14 -10 -2 6 15 20 31
22 31 5z m66 -23 c-9 -14 -21 -25 -26 -25 -6 0 -15 -11 -20 -25 -5 -14 -14
-25 -20 -25 -5 0 -10 -7 -10 -15 0 -8 -7 -15 -15 -15 -8 0 -15 4 -15 8 0 15
36 42 45 35 4 -5 5 -3 1 4 -8 15 14 53 31 53 7 0 18 9 25 20 7 10 14 17 16 15
3 -2 -3 -16 -12 -30z m106 -27 c-7 -7 -12 -8 -12 -2 0 14 12 26 19 19 2 -3 -1
-11 -7 -17z m-28 -6 c3 -5 -1 -9 -9 -9 -8 0 -12 4 -9 9 3 4 7 8 9 8 2 0 6 -4
9 -8z m-204 -126 c0 -5 -7 -3 -15 4 -8 7 -12 17 -9 22 7 10 24 -9 24 -26z
m630 30 c0 -2 -8 -10 -17 -17 -16 -13 -17 -12 -4 4 13 16 21 21 21 13z m-590
-16 c0 -5 -2 -10 -4 -10 -3 0 -8 5 -11 10 -3 6 -1 10 4 10 6 0 11 -4 11 -10z
m-160 -10 c0 -5 -2 -10 -4 -10 -3 0 -8 5 -11 10 -3 6 -1 10 4 10 6 0 11 -4 11
-10z m114 -32 c-4 -5 -10 -5 -18 1 -9 8 -12 1 -12 -27 0 -24 -4 -37 -13 -37
-7 0 -23 -19 -36 -43 -26 -49 -38 -56 -40 -25 -1 12 2 20 7 17 4 -3 8 5 8 18
0 18 2 20 10 8 9 -14 14 -7 11 13 -2 11 41 90 54 99 12 9 37 -11 29 -24z m596
22 c0 -5 -2 -10 -4 -10 -3 0 -8 5 -11 10 -3 6 -1 10 4 10 6 0 11 -4 11 -10z
m-79 -30 c-3 -3 -8 -8 -11 -12 -3 -3 -14 0 -25 9 -20 15 -20 15 2 8 19 -5 22
-3 16 12 -6 15 -5 16 9 3 9 -8 13 -17 9 -20z m-675 -38 c-17 -16 -18 -16 -5 5
7 12 15 20 18 17 3 -2 -3 -12 -13 -22z m632 13 c-2 -6 -6 -9 -10 -7 -5 1 -8
-5 -8 -13 0 -8 -5 -15 -11 -15 -12 0 -99 -89 -99 -101 0 -17 -19 -18 -31 -1
-13 16 -13 16 5 2 18 -14 19 -13 13 3 -3 9 -2 17 4 17 6 0 7 5 4 10 -3 6 -2
10 4 10 6 0 8 8 5 18 -5 13 -4 14 4 3 10 -14 32 -7 32 10 0 6 -5 7 -12 3 -7
-4 -8 -3 -4 4 4 7 14 12 22 12 8 0 14 5 14 10 0 6 -5 10 -12 10 -6 0 -3 6 7
14 21 15 40 12 30 -5 -4 -5 -2 -9 4 -9 5 0 13 9 16 21 4 11 11 19 17 17 5 -2
8 -8 6 -13z m51 -28 c-2 -1 -12 -9 -22 -16 -15 -12 -17 -12 -11 3 3 9 13 16
22 16 8 0 13 -1 11 -3z m-699 -21 c0 -3 -4 -8 -10 -11 -5 -3 -10 -1 -10 4 0 6
5 11 10 11 6 0 10 -2 10 -4z m641 -43 c-7 -12 -10 -13 -11 -4 0 11 -3 11 -17
0 -16 -13 -17 -12 -4 3 7 10 17 15 22 12 5 -3 9 3 10 13 0 10 3 13 5 6 3 -7 1
-20 -5 -30z m-206 17 c-3 -5 -12 -10 -18 -10 -7 0 -6 4 3 10 19 12 23 12 15 0z
m-474 -36 c-8 -19 -17 -30 -19 -24 -4 10 23 60 32 60 2 0 -4 -16 -13 -36z
m442 1 c-10 -8 -20 -11 -23 -8 -3 3 1 8 8 10 6 3 10 9 7 14 -4 5 1 6 10 3 14
-6 14 -8 -2 -19z m182 -22 c-4 -10 -8 -23 -9 -30 -3 -20 -13 -25 -11 -6 2 22
15 53 22 53 3 0 2 -8 -2 -17z m-187 -7 c-10 -7 -15 -15 -13 -18 3 -3 -3 -11
-12 -19 -10 -7 -15 -10 -11 -5 4 5 3 18 -3 29 -8 14 -8 18 0 13 6 -4 19 -2 28
3 25 15 31 13 11 -3z m73 -30 c-17 -20 -4 -45 21 -38 20 5 20 6 3 19 -11 7
-14 13 -8 13 7 0 15 -5 18 -10 4 -6 12 -7 18 -3 7 4 6 0 -2 -10 -7 -9 -20 -17
-28 -17 -8 0 -12 -4 -8 -9 3 -5 1 -13 -5 -16 -6 -4 -9 -3 -8 2 1 4 -4 18 -11
31 -10 18 -10 26 0 38 6 8 14 14 16 14 3 0 0 -6 -6 -14z m78 -9 c0 -9 -2 -8
-6 1 -2 6 -10 9 -15 6 -7 -4 -8 -2 -4 5 9 13 26 5 25 -12z m-429 -21 c0 -2 -8
-10 -17 -17 -16 -13 -17 -12 -4 4 13 16 21 21 21 13z m235 -5 c3 -5 2 -12 -3
-15 -5 -3 -9 1 -9 9 0 17 3 19 12 6z m86 -20 c-6 -10 -9 -20 -7 -22 2 -2 -2
-10 -9 -16 -9 -8 -16 -9 -20 -3 -3 6 -1 10 4 10 6 0 11 6 11 13 0 12 19 37 27
37 2 0 -1 -8 -6 -19z m-615 -20 c0 -11 -4 -17 -8 -15 -4 3 -8 1 -8 -5 0 -5 5
-13 11 -17 13 -8 30 16 22 30 -3 5 -1 6 5 2 7 -4 12 0 12 10 0 10 3 15 6 11 4
-3 3 -14 0 -24 -4 -10 -7 -20 -7 -23 0 -3 -7 -9 -15 -13 -8 -5 -12 -12 -9 -17
3 -5 1 -12 -5 -15 -6 -4 -10 -3 -9 2 3 20 -2 34 -11 28 -5 -3 -6 -13 -3 -22 6
-15 5 -16 -9 -3 -9 8 -12 17 -8 20 4 3 11 20 15 38 7 35 21 43 21 13z m625
-24 c-10 -9 -11 -8 -5 6 3 10 9 15 12 12 3 -3 0 -11 -7 -18z m-53 -42 c-16
-35 -29 -31 -17 5 6 16 15 28 20 25 4 -3 3 -17 -3 -30z m-165 -22 c-5 -12 -3
-14 7 -8 8 5 11 4 6 -3 -4 -6 -13 -9 -22 -5 -11 4 -12 9 -3 19 15 19 20 18 12
-3z m-251 -16 c-4 -14 -7 -16 -13 -5 -8 12 -13 5 -10 -14 0 -4 -10 -15 -22
-25 -13 -10 -22 -24 -19 -32 3 -10 0 -12 -11 -8 -13 5 -15 2 -7 -18 7 -18 6
-23 -4 -19 -7 3 -13 -2 -13 -11 0 -11 6 -14 21 -9 17 4 18 3 6 -5 -8 -6 -10
-11 -4 -11 6 0 11 -7 11 -15 0 -8 -4 -12 -9 -9 -4 3 -8 -4 -8 -15 0 -12 -4
-21 -9 -21 -6 0 -9 9 -8 20 1 11 5 20 9 20 4 0 8 5 8 10 0 6 -6 10 -13 10 -18
0 -16 -58 3 -70 14 -9 7 -15 -14 -11 -5 1 -4 -4 3 -12 9 -12 8 -16 -5 -21 -9
-4 -19 -4 -22 -1 -3 3 -1 5 4 5 5 0 10 11 10 25 1 14 -1 23 -5 21 -3 -2 -6 15
-6 39 0 24 3 41 8 38 4 -2 7 3 7 11 0 25 1 30 13 51 6 11 12 22 12 25 5 21 29
58 36 54 4 -2 13 2 20 9 19 20 37 17 31 -6z m382 5 c3 -5 -1 -9 -9 -9 -8 0
-12 4 -9 9 3 4 7 8 9 8 2 0 6 -4 9 -8z m-354 -16 c0 -2 -8 -10 -17 -17 -16
-13 -17 -12 -4 4 13 16 21 21 21 13z m225 -14 c-3 -3 -11 0 -18 7 -9 10 -8 11
6 5 10 -3 15 -9 12 -12z m114 -5 c-8 -7 -15 -25 -14 -40 1 -15 -3 -30 -8 -34
-6 -3 -7 -1 -3 5 4 7 2 12 -3 12 -6 0 -12 -4 -12 -10 -2 -11 -5 -25 -9 -37 -1
-5 -2 -11 -1 -15 0 -5 -4 -8 -10 -8 -6 0 -8 8 -5 18 2 9 7 27 11 40 3 12 14
22 23 22 12 0 13 3 5 8 -10 6 -9 13 3 30 8 12 21 22 27 22 7 -1 6 -5 -4 -13z
m71 9 c0 -2 -8 -10 -17 -17 -16 -13 -17 -12 -4 4 13 16 21 21 21 13z m-610
-10 c0 -2 -8 -10 -17 -17 -16 -13 -17 -12 -4 4 13 16 21 21 21 13z m404 -44
c-8 -18 -13 -36 -10 -41 4 -5 2 -12 -3 -15 -6 -4 -8 7 -5 26 3 18 6 38 6 45 1
7 5 10 10 7 4 -3 8 0 8 7 0 7 2 10 5 7 3 -2 -2 -19 -11 -36z m160 30 c3 -5 -1
-9 -9 -9 -8 0 -12 4 -9 9 3 4 7 8 9 8 2 0 6 -4 9 -8z m-433 -70 c-7 -2 -18 1
-23 6 -8 8 -4 9 13 5 13 -4 18 -8 10 -11z m227 -7 c-3 -3 -9 2 -12 12 -6 14
-5 15 5 6 7 -7 10 -15 7 -18z m172 -41 c-3 -5 -9 -8 -14 -6 -5 2 -6 -8 -4 -22
3 -14 1 -24 -5 -23 -5 1 -12 -4 -14 -11 -3 -8 1 -10 11 -6 17 7 22 -11 6 -21
-6 -4 -7 -11 -4 -17 5 -8 1 -9 -11 -5 -14 6 -16 3 -12 -13 5 -21 -12 -70 -26
-70 -4 0 -4 8 2 18 5 9 9 33 9 52 0 42 11 80 23 80 5 0 6 6 3 14 -3 8 0 17 5
21 6 3 9 10 6 15 -3 4 3 7 12 6 10 -2 16 -7 13 -12z m-327 -44 c-3 -12 -8 -19
-11 -16 -5 6 5 36 12 36 2 0 2 -9 -1 -20z m255 -11 c-6 -16 -12 -28 -14 -26
-5 5 13 57 20 57 3 0 0 -14 -6 -31z m-151 -31 c-3 -8 -6 -5 -6 6 -1 11 2 17 5
13 3 -3 4 -12 1 -19z m-400 -7 c0 -11 -5 -18 -9 -15 -4 3 -5 11 -1 19 7 21 12
19 10 -4z m263 -21 c-12 -23 -16 -24 -26 -8 -4 6 -3 8 3 5 6 -4 13 0 17 8 3 8
8 15 11 15 3 0 1 -9 -5 -20z m280 -7 c0 -5 -5 -15 -10 -23 -7 -12 -9 -10 -7 8
1 19 17 33 17 15z m-390 -24 c0 -5 -4 -9 -8 -9 -5 0 -9 7 -9 15 0 8 4 12 9 9
4 -3 8 -9 8 -15z m150 -24 c-7 -8 -10 -21 -7 -30 4 -8 2 -17 -2 -19 -5 -3 -7
-21 -6 -40 2 -20 -2 -36 -9 -39 -10 -4 -10 9 -3 56 8 56 21 87 34 87 3 0 0 -7
-7 -15z m217 -20 c0 -8 -4 -12 -9 -9 -4 3 -8 9 -8 15 0 5 4 9 8 9 5 0 9 -7 9
-15z m3 -29 c0 -2 -7 -9 -15 -16 -13 -11 -14 -10 -9 4 5 14 24 23 24 12z m16
-33 c-10 -10 -19 5 -10 18 6 11 8 11 12 0 2 -7 1 -15 -2 -18z m-423 -8 c-3 -9
-8 -14 -10 -11 -3 3 -2 9 2 15 9 16 15 13 8 -4z m251 -24 c-3 -4 -11 -6 -16
-6 -6 0 -13 -5 -15 -12 -3 -8 3 -11 16 -8 20 4 20 3 6 -26 -19 -37 -28 -38
-15 -1 9 24 9 25 -4 9 -12 -16 -14 -15 -13 16 1 27 5 33 24 33 12 0 20 -2 17
-5z m-14 -100 c0 -5 -9 -7 -20 -4 -11 3 -20 7 -20 9 0 2 9 4 20 4 11 0 20 -4
20 -9z m-294 -16 c-1 -8 -5 -17 -8 -21 -5 -4 -4 16 1 34 3 9 9 -1 7 -13z
m1021 -7 c-3 -8 -6 -5 -6 6 -1 11 2 17 5 13 3 -3 4 -12 1 -19z m353 7 c0 -1
-12 -2 -26 -2 -17 0 -22 2 -13 7 10 7 39 3 39 -5z m-290 1 c0 -3 -4 -8 -10
-11 -5 -3 -10 -1 -10 4 0 6 5 11 10 11 6 0 10 -2 10 -4z m492 -3 c-6 -2 -9
-10 -6 -15 4 -7 2 -8 -5 -4 -13 9 -5 26 12 25 9 0 8 -2 -1 -6z m49 -26 c-10
-9 -11 -8 -5 6 3 10 9 15 12 12 3 -3 0 -11 -7 -18z m-1031 3 c-8 -5 -19 -6
-25 -3 -5 4 -6 2 -2 -3 4 -4 17 -9 27 -9 11 0 19 -4 19 -10 -1 -5 -6 -9 -12
-7 -7 2 -20 4 -29 5 -10 1 -18 6 -18 11 0 5 -7 1 -16 -10 -15 -18 -15 -18 -5
3 11 23 21 28 55 31 16 1 17 -1 6 -8z m74 -12 c5 2 3 -4 -4 -13 -13 -15 -20
-17 -17 -3 1 4 -7 14 -18 23 -19 15 -19 16 5 3 14 -7 29 -11 34 -10z m-144 4
c0 -5 -7 -9 -15 -9 -8 0 -15 4 -15 9 0 4 7 8 15 8 8 0 15 -4 15 -8z m195 -31
l20 -13 -20 7 c-11 4 -25 8 -32 8 -6 0 -9 7 -6 15 3 7 9 10 12 4 3 -5 15 -14
26 -21z m77 7 c-6 -6 -22 -13 -34 -15 -18 -2 -19 -1 -8 6 8 5 17 8 21 5 4 -2
10 0 14 6 3 5 9 10 13 10 3 0 1 -5 -6 -12z m53 -8 c3 -6 -1 -7 -9 -4 -18 7
-21 14 -7 14 6 0 13 -4 16 -10z m75 4 c0 -8 -19 -13 -24 -6 -3 5 1 9 9 9 8 0
15 -2 15 -3z m297 -7 c0 -8 -6 -14 -14 -14 -9 0 -10 4 -2 14 6 7 12 13 14 13
1 0 2 -6 2 -13z m47 -13 c5 -13 4 -14 -7 -6 -8 7 -18 8 -22 4 -5 -4 -5 -1 -1
6 10 17 23 15 30 -4z m313 1 c0 -8 -4 -12 -9 -9 -4 3 -8 9 -8 15 0 5 4 9 8 9
5 0 9 -7 9 -15z m-1397 -28 c21 -17 24 -38 4 -30 -8 3 -12 8 -10 11 3 3 -2 11
-12 18 -9 7 -12 13 -7 13 6 0 17 -5 25 -12z m72 -1 c6 4 8 2 4 -4 -3 -6 -2
-13 4 -17 5 -3 10 0 10 7 0 11 2 11 9 0 10 -17 2 -62 -11 -62 -6 0 -8 9 -5 20
3 11 0 23 -5 27 -6 3 -8 1 -5 -4 4 -6 -4 -18 -18 -27 -15 -10 -26 -12 -30 -6
-4 6 -3 10 2 9 15 -4 43 13 37 22 -3 5 -11 6 -17 2 -7 -4 -6 0 2 10 9 12 10
17 2 17 -7 0 -9 5 -5 12 6 9 9 9 12 0 2 -7 9 -9 14 -6z m1193 4 c4 -6 15 -6
33 1 22 8 25 8 15 -2 -10 -10 -9 -17 5 -33 13 -16 13 -18 1 -8 -9 6 -19 8 -23
4 -4 -4 -14 2 -22 12 -9 13 -14 15 -14 6 0 -9 -4 -8 -13 5 -8 10 -19 15 -25
11 -6 -3 -13 -3 -16 2 -2 4 8 9 24 10 16 1 31 -2 35 -8z m115 -24 c0 -6 5 -4
10 4 7 11 10 11 10 2 0 -10 5 -10 21 -1 14 7 19 7 15 0 -4 -5 3 -15 14 -21 11
-6 20 -7 20 -3 0 4 7 -1 15 -11 10 -13 15 -15 15 -6 0 7 3 11 6 7 3 -3 1 -14
-5 -24 -6 -10 -11 -13 -11 -6 0 6 -9 10 -19 8 -14 -3 -18 1 -14 11 5 12 -19
20 -49 15 -5 0 -8 3 -8 7 0 4 -12 9 -27 10 -16 1 -30 7 -31 12 -2 6 -9 7 -14
4 -6 -4 -8 -2 -5 3 8 13 57 4 57 -11z m95 4 c-3 -5 -12 -10 -18 -10 -7 0 -6 4
3 10 19 12 23 12 15 0z m49 -6 c3 -8 10 -12 16 -9 6 4 7 12 4 18 -4 7 -3 8 1
4 16 -14 13 -35 -4 -32 -9 2 -18 4 -21 5 -3 1 -8 2 -12 1 -5 0 -8 6 -8 14 0
20 16 19 24 -1z m-739 -12 c-3 -3 -11 0 -18 7 -9 10 -8 11 6 5 10 -3 15 -9 12
-12z m55 14 c0 -2 -8 -10 -17 -17 -16 -13 -17 -12 -4 4 13 16 21 21 21 13z
m764 -8 c-5 -8 -2 -9 10 -5 10 4 19 1 22 -8 4 -8 10 -12 15 -9 5 3 8 0 7 -7
-2 -6 3 -14 11 -17 8 -2 11 0 7 6 -4 6 2 8 16 4 19 -5 20 -7 5 -10 -9 -2 -14
-8 -11 -14 4 -6 -2 -5 -15 1 -12 7 -27 20 -33 30 -7 11 -19 16 -30 13 -18 -4
-25 8 -11 21 10 11 15 8 7 -5z m-1107 -4 c-3 -3 -12 -4 -19 -1 -8 3 -5 6 6 6
11 1 17 -2 13 -5z m60 -9 c0 -8 -4 -12 -9 -9 -5 3 -6 10 -3 15 9 13 12 11 12
-6z m183 11 c0 -2 -7 -7 -16 -10 -8 -3 -12 -2 -9 4 6 10 25 14 25 6z m147 -3
c-9 -2 -14 -9 -11 -15 4 -7 2 -8 -5 -4 -15 10 -4 26 17 25 15 -1 15 -2 -1 -6z
m85 -16 c-7 -8 -8 -18 -4 -22 4 -5 1 -5 -5 -1 -10 5 -10 11 -1 26 7 11 14 17
17 15 2 -3 -1 -11 -7 -18z m-773 -13 c14 -12 -19 -1 -35 12 -18 14 -18 14 6 3
14 -6 27 -13 29 -15z m418 11 c0 -8 -4 -12 -9 -9 -5 3 -6 10 -3 15 9 13 12 11
12 -6z m448 5 c3 -6 -1 -7 -9 -4 -18 7 -21 14 -7 14 6 0 13 -4 16 -10z m-1115
-10 c0 -5 4 -9 9 -7 5 1 10 -2 11 -8 1 -5 8 -14 16 -18 8 -4 14 -15 14 -23 0
-8 4 -13 9 -10 4 3 13 -6 19 -20 11 -22 10 -24 -6 -15 -26 15 -62 51 -62 63 0
6 -7 20 -17 30 -9 11 -11 18 -5 18 7 0 12 -4 12 -10z m164 -28 c-23 -6 -16
-22 9 -22 26 0 62 -32 50 -44 -4 -4 0 -4 9 -1 9 4 18 0 22 -11 5 -12 2 -15
-10 -10 -8 3 -20 6 -25 6 -5 0 -10 10 -10 23 -1 16 -3 17 -6 5 -3 -13 -9 -15
-28 -8 -12 5 -25 6 -28 3 -7 -6 -67 38 -67 50 0 4 7 1 16 -7 16 -16 34 -13 34
5 0 6 -4 8 -8 5 -5 -3 -9 1 -9 9 0 11 4 12 13 4 16 -13 34 -4 35 19 0 14 2 13
8 -3 6 -14 4 -21 -5 -23z m900 30 c2 -4 -4 -9 -15 -9 -11 -1 -17 2 -14 8 7 11
22 12 29 1z m-304 -6 c0 -2 -8 -10 -17 -17 -16 -13 -17 -12 -4 4 13 16 21 21
21 13z m-692 -31 c-3 -3 -9 2 -12 12 -6 14 -5 15 5 6 7 -7 10 -15 7 -18z m515
18 c-7 -2 -19 -2 -25 0 -7 3 -2 5 12 5 14 0 19 -2 13 -5z m127 -4 c0 -4 -9 -7
-19 -6 -11 0 -18 4 -16 7 6 9 35 8 35 -1z m390 7 c0 -2 -7 -7 -16 -10 -8 -3
-12 -2 -9 4 6 10 25 14 25 6z m490 0 c0 -3 -4 -8 -10 -11 -5 -3 -10 -1 -10 4
0 6 5 11 10 11 6 0 10 -2 10 -4z m214 -4 c3 -5 -1 -9 -9 -9 -8 0 -12 4 -9 9 3
4 7 8 9 8 2 0 6 -4 9 -8z m-894 -18 c0 -8 -19 -13 -24 -6 -3 5 1 9 9 9 8 0 15
-2 15 -3z m25 -4 c-3 -5 -1 -10 6 -10 7 0 10 -3 6 -6 -9 -9 -28 6 -22 17 4 5
8 9 11 9 3 0 2 -4 -1 -10z m629 -20 c4 0 4 4 1 10 -3 5 0 7 9 4 12 -4 12 -9 3
-18 -6 -7 -17 -13 -24 -13 -7 0 -11 3 -8 5 9 9 -17 32 -28 25 -6 -4 -7 -1 -3
6 6 9 12 9 25 -3 10 -9 21 -16 25 -16z m226 15 c33 -17 35 -21 18 -31 -7 -4
-8 -3 -4 4 4 7 3 12 -3 12 -5 0 -11 -3 -14 -7 -2 -5 -2 -2 -1 5 4 14 -12 16
-21 2 -3 -5 -12 -7 -20 -4 -11 5 -12 9 -2 20 15 17 13 17 47 -1z m60 -10 c13
-14 19 -25 14 -25 -8 1 -50 50 -41 50 2 0 14 -11 27 -25z m-1500 -5 c0 -5 -2
-10 -4 -10 -3 0 -8 5 -11 10 -3 6 -1 10 4 10 6 0 11 -4 11 -10z m1134 2 c3 -5
-1 -9 -9 -9 -8 0 -12 4 -9 9 3 4 7 8 9 8 2 0 6 -4 9 -8z m-1558 -25 c1 -7 5
-21 9 -32 l7 -20 -14 20 c-8 11 -15 28 -15 38 0 18 10 14 13 -6z m504 9 c0 -3
-4 -8 -10 -11 -5 -3 -10 -1 -10 4 0 6 5 11 10 11 6 0 10 -2 10 -4z m20 -11 c0
-8 -4 -15 -10 -15 -5 0 -7 7 -4 15 4 8 8 15 10 15 2 0 4 -7 4 -15z m1387 -7
c-3 -8 -6 -5 -6 6 -1 11 2 17 5 13 3 -3 4 -12 1 -19z m54 9 c-6 -8 -8 -17 -4
-20 3 -4 1 -7 -5 -7 -15 0 -15 13 0 28 16 16 23 15 9 -1z m-1741 -37 c0 -5 -4
-12 -10 -15 -6 -3 -7 1 -4 10 4 9 3 15 -2 14 -20 -3 -32 2 -37 15 -5 11 -1 11
24 -1 16 -8 29 -18 29 -23z m1530 20 c0 -5 -5 -10 -11 -10 -5 0 -7 5 -4 10 3
6 8 10 11 10 2 0 4 -4 4 -10z m-1202 -14 c-7 -8 -15 -12 -17 -11 -5 6 10 25
20 25 5 0 4 -6 -3 -14z m260 -11 c-3 -3 -9 2 -12 12 -6 14 -5 15 5 6 7 -7 10
-15 7 -18z m56 11 c17 6 39 -33 23 -42 -6 -4 -9 -4 -5 1 9 10 -11 37 -22 30
-4 -3 -14 3 -21 13 -11 14 -11 15 0 5 7 -6 19 -9 25 -7z m306 -1 c-7 -8 -8
-15 -2 -15 5 0 15 7 22 15 10 12 16 13 26 4 8 -6 14 -8 14 -3 0 4 5 3 12 -4 7
-7 17 -8 30 -1 13 7 18 6 18 -2 0 -8 4 -9 13 0 8 6 17 8 20 4 4 -3 21 -6 38
-7 19 -1 34 -7 36 -16 3 -9 1 -11 -4 -5 -4 6 -17 10 -28 10 -11 0 -28 3 -38 8
-12 5 -19 3 -24 -8 -5 -13 -7 -14 -14 -3 -7 10 -12 11 -29 0 -17 -10 -20 -10
-21 5 0 11 -3 13 -6 6 -3 -9 -10 -10 -23 -3 -13 7 -21 7 -25 0 -3 -5 -1 -10 6
-10 7 0 10 -2 7 -5 -8 -8 -58 16 -58 27 0 5 4 7 9 3 5 -3 12 -1 16 5 3 5 9 10
12 10 3 0 0 -7 -7 -15z m-890 -27 c0 -5 -7 -3 -15 6 -8 8 -15 18 -15 22 0 3 7
1 15 -6 8 -7 15 -17 15 -22z m652 17 c9 4 18 -1 21 -9 9 -22 -16 -20 -40 2
-10 9 -14 14 -7 9 6 -4 18 -5 26 -2z m151 3 c17 0 23 -4 16 -9 -8 -5 -7 -8 5
-12 14 -4 14 -5 -1 -3 -10 1 -24 -5 -31 -14 -11 -13 -11 -13 -6 1 3 10 0 20
-7 25 -7 4 -10 3 -5 -4 3 -6 1 -14 -5 -18 -8 -4 -9 -3 -5 4 9 14 1 15 -22 3
-12 -6 -24 -4 -40 9 l-22 19 22 3 c13 2 34 2 48 1 14 -2 38 -4 53 -5z m717 2
c0 -5 -2 -10 -4 -10 -3 0 -8 5 -11 10 -3 6 -1 10 4 10 6 0 11 -4 11 -10z m214
-17 c10 4 15 3 11 -3 -6 -10 -45 -15 -45 -6 0 2 -3 13 -6 23 -6 17 -6 17 8 -1
10 -12 21 -17 32 -13z m-1981 4 c3 -8 -1 -14 -8 -14 -7 0 -11 6 -8 14 3 7 6
13 8 13 2 0 5 -6 8 -13z m40 -43 c14 -17 14 -21 2 -21 -8 0 -12 4 -9 9 4 5 -4
12 -16 15 -16 4 -18 8 -9 14 8 4 14 7 14 6 0 -1 8 -11 18 -23z m1441 -13 c-2
-3 -12 3 -22 13 -16 17 -16 18 5 5 12 -7 20 -15 17 -18z m-239 1 c-3 -3 -11 0
-18 7 -9 10 -8 11 6 5 10 -3 15 -9 12 -12z m720 0 c-3 -3 -11 0 -18 7 -9 10
-8 11 6 5 10 -3 15 -9 12 -12z m57 -23 c6 -3 2 -9 -7 -13 -9 -3 -24 1 -33 11
-16 16 -16 16 1 10 9 -3 17 -2 17 3 0 6 -5 10 -11 10 -5 0 -7 5 -3 11 4 8 10
5 17 -7 6 -11 14 -22 19 -25z m-127 21 c3 -6 -1 -7 -9 -4 -18 7 -21 14 -7 14
6 0 13 -4 16 -10z m-1770 -22 c5 4 5 1 1 -5 -4 -8 -1 -13 8 -13 9 0 16 -4 16
-8 0 -14 -29 -10 -34 5 -3 8 -10 12 -14 9 -5 -3 -9 1 -9 9 0 10 4 12 12 5 7
-5 16 -6 20 -2z m279 3 c2 5 3 4 2 -3 -3 -14 -35 -12 -51 3 -6 7 0 6 17 0 17
-6 28 -7 32 0z m1079 -4 c4 3 7 1 7 -5 0 -17 -16 -15 -31 6 -12 15 -12 16 2 5
9 -7 19 -10 22 -6z m-1199 -6 c-8 -8 -43 -8 -38 0 2 4 13 7 24 6 10 -1 17 -3
14 -6z m62 -9 c1 -7 0 -8 -2 -3 -3 6 -12 7 -21 4 -11 -4 -14 -3 -9 6 9 14 29
10 32 -7z m1027 11 c-7 -2 -19 -2 -25 0 -7 3 -2 5 12 5 14 0 19 -2 13 -5z
m-935 -15 c-2 -6 -12 -12 -21 -14 -9 -1 -15 2 -11 7 3 5 10 7 15 4 5 -4 9 -1
9 4 0 6 3 11 6 11 3 0 4 -5 2 -12z m1412 -3 c0 -8 -4 -15 -10 -15 -5 0 -7 7
-4 15 4 8 8 15 10 15 2 0 4 -7 4 -15z m-1665 -24 c-6 -5 -25 10 -25 20 0 5 6
4 14 -3 8 -7 12 -15 11 -17z m200 11 c-3 -3 -11 0 -18 7 -9 10 -8 11 6 5 10
-3 15 -9 12 -12z m124 15 c-2 -1 -13 -9 -24 -17 -19 -14 -19 -14 -6 3 7 9 18
17 24 17 6 0 8 -1 6 -3z m1374 -31 c-3 -4 -9 -2 -14 5 -13 22 -11 31 5 17 8
-7 12 -17 9 -22z m156 17 c11 -9 18 -20 15 -25 -3 -4 -1 -8 5 -8 10 0 61 -97
61 -118 0 -7 5 -10 12 -6 6 4 8 3 5 -3 -4 -5 3 -20 15 -32 14 -16 17 -25 9
-32 -6 -5 -9 -6 -6 -3 8 11 -36 65 -47 58 -7 -5 -8 -2 -4 5 9 13 -11 68 -31
89 -7 8 -11 18 -8 23 4 5 -1 9 -10 9 -12 0 -15 5 -11 16 4 11 2 15 -8 11 -16
-6 -40 16 -29 26 9 10 10 9 32 -10z m-99 -33 c14 -10 21 -22 17 -26 -4 -4 -7
-2 -7 4 0 7 -7 12 -15 12 -8 0 -15 5 -15 11 0 6 -7 8 -16 5 -8 -3 -12 -2 -9 4
9 14 16 12 45 -10z m-1518 -23 c40 -1 24 -11 -17 -12 -19 0 -35 4 -35 10 0 5
-5 3 -10 -5 -8 -13 -10 -12 -10 3 0 15 5 17 23 11 12 -4 34 -7 49 -7z m1497
-31 c9 -11 9 -16 -1 -22 -7 -4 -10 -4 -6 1 4 4 3 14 -3 22 -6 7 -9 13 -6 13 2
0 10 -6 16 -14z m57 5 c-7 -11 18 -33 27 -24 4 3 7 2 7 -4 0 -6 -7 -14 -16
-17 -8 -3 -12 -11 -8 -17 4 -8 0 -8 -15 0 -24 13 -29 23 -7 15 9 -4 14 0 12
10 -3 20 -16 33 -16 16 0 -7 -3 -10 -6 -7 -4 4 -1 13 6 22 13 16 25 21 16 6z
m-1215 -28 c13 -15 12 -15 -8 -4 -24 12 -29 21 -14 21 5 0 15 -7 22 -17z m869
7 c18 -12 2 -12 -25 0 -13 6 -15 9 -5 9 8 0 22 -4 30 -9z m-423 -15 c0 -8 -4
-12 -9 -9 -4 3 -8 9 -8 15 0 5 4 9 8 9 5 0 9 -7 9 -15z m465 1 c7 4 8 2 4 -4
-4 -7 -2 -12 5 -12 7 0 9 -3 6 -6 -8 -9 -37 15 -36 30 0 7 2 6 6 -2 2 -6 10
-9 15 -6z m-548 -4 c3 -5 -1 -9 -9 -9 -8 0 -12 4 -9 9 3 4 7 8 9 8 2 0 6 -4 9
-8z m916 -27 c7 -8 9 -15 6 -15 -4 0 -14 7 -22 15 -9 8 -11 15 -6 15 5 0 15
-7 22 -15z m-10 -30 c5 3 12 0 16 -6 4 -8 3 -9 -4 -5 -18 11 -14 -3 8 -26 25
-27 25 -38 3 -37 -11 0 -13 3 -5 6 9 3 5 13 -13 35 -14 16 -25 35 -24 41 0 8
2 8 6 -1 2 -6 9 -10 13 -7z m177 -57 c-3 -8 -6 -5 -6 6 -1 11 2 17 5 13 3 -3
4 -12 1 -19z m-402 -18 c3 -5 1 -10 -4 -10 -6 0 -11 5 -11 10 0 6 2 10 4 10 3
0 8 -4 11 -10z m396 -23 c-10 -9 -11 -8 -5 6 3 10 9 15 12 12 3 -3 0 -11 -7
-18z m-238 -32 c-7 -21 -12 -19 -10 4 0 11 5 18 9 15 4 -3 5 -11 1 -19z m14
-34 c0 -11 -5 -18 -9 -15 -4 3 -5 11 -1 19 7 21 12 19 10 -4z m27 -26 c-4 -8
-11 -15 -16 -15 -6 0 -5 6 2 15 7 8 14 15 16 15 2 0 1 -7 -2 -15z m263 -12 c0
-9 -4 -10 -14 -2 -7 6 -13 12 -13 14 0 1 6 2 13 2 8 0 14 -6 14 -14z m-235
-49 c-3 -17 -1 -25 6 -21 5 4 13 0 16 -9 3 -8 2 -12 -3 -9 -5 3 -12 1 -16 -5
-3 -5 -2 -10 2 -10 5 0 14 -9 21 -21 8 -12 9 -18 3 -14 -15 9 -14 -8 1 -23 9
-9 9 -12 -1 -12 -9 0 -8 -4 3 -15 8 -9 13 -22 10 -30 -4 -8 -2 -15 3 -15 5 0
10 -7 10 -16 0 -14 -2 -14 -14 2 -7 10 -13 26 -13 35 0 10 -5 21 -10 24 -6 4
-9 12 -8 18 1 7 -3 22 -10 35 -7 12 -10 22 -6 22 4 0 -3 12 -17 27 l-24 28 24
-20 c23 -18 24 -19 18 -2 -4 10 -7 23 -7 28 0 5 -8 9 -17 10 -12 1 -10 4 7 9
14 4 26 8 26 9 1 1 -1 -11 -4 -25z m117 -12 c14 -11 13 -11 -6 -2 -13 6 -23
18 -22 28 0 14 2 14 6 2 4 -8 13 -21 22 -28z m146 28 c3 -6 -1 -7 -9 -4 -18 7
-21 14 -7 14 6 0 13 -4 16 -10z m-121 -62 c-3 -4 -9 -8 -15 -8 -5 0 -9 4 -9 8
0 5 7 9 15 9 8 0 12 -4 9 -9z m-51 -113 c-3 -9 -8 -14 -10 -11 -3 3 -2 9 2 15
9 16 15 13 8 -4z m23 -32 c-3 -3 -1 -13 4 -22 5 -10 5 -23 0 -31 -7 -12 -9
-10 -9 5 1 11 -2 30 -5 43 -3 14 -1 20 5 16 6 -3 8 -8 5 -11z m-50 -51 c1 -7
0 -8 -3 -2 -2 5 -9 10 -14 10 -6 0 -8 -4 -5 -8 3 -5 -1 -9 -9 -9 -8 0 -15 6
-15 12 0 16 43 13 46 -3z m84 -16 c0 -2 -7 -7 -16 -10 -8 -3 -12 -2 -9 4 6 10
25 14 25 6z m-100 -21 c-6 -7 -4 -20 4 -36 10 -19 10 -26 1 -26 -6 0 -12 5
-12 11 0 6 -3 23 -6 37 -3 18 -1 26 9 26 9 0 11 -4 4 -12z m50 -4 c7 -14 7
-22 -2 -27 -7 -4 -8 -3 -4 4 4 7 3 12 -2 12 -5 0 -9 7 -9 15 0 20 4 19 17 -4z
m144 -7 c3 -8 2 -12 -4 -9 -6 3 -10 10 -10 16 0 14 7 11 14 -7z m126 6 c0 -5
-2 -10 -4 -10 -3 0 -8 5 -11 10 -3 6 -1 10 4 10 6 0 11 -4 11 -10z m-235 -10
c3 -5 1 -10 -4 -10 -6 0 -11 5 -11 10 0 6 2 10 4 10 3 0 8 -4 11 -10z m33 -25
c-3 -3 -9 2 -12 12 -6 14 -5 15 5 6 7 -7 10 -15 7 -18z m92 -20 c0 -8 -5 -17
-12 -21 -7 -4 -8 -3 -4 5 4 6 2 19 -5 27 -10 12 -9 13 5 8 9 -3 16 -12 16 -19z
m-132 -18 c6 3 12 0 12 -7 0 -6 -4 -8 -10 -5 -5 3 -10 2 -10 -3 0 -6 -8 -13
-17 -17 -14 -5 -15 -4 -6 6 9 9 9 18 2 33 -9 18 -8 19 3 5 7 -9 19 -14 26 -12z
m49 17 c-3 -3 -12 -4 -19 -1 -8 3 -5 6 6 6 11 1 17 -2 13 -5z m-117 -29 c0 -8
-2 -15 -4 -15 -2 0 -6 7 -10 15 -3 8 -1 15 4 15 6 0 10 -7 10 -15z m117 -7 c2
-18 0 -20 -7 -8 -12 18 -13 30 -2 30 4 0 9 -10 9 -22z m-104 -23 c-3 -9 -8
-14 -10 -11 -3 3 -2 9 2 15 9 16 15 13 8 -4z m73 -14 c1 -6 0 -7 -3 -1 -2 5
-9 8 -13 5 -5 -3 -11 -1 -14 4 -4 5 2 8 11 7 9 -2 18 -8 19 -15z m-46 -11 c0
-5 -5 -10 -11 -10 -5 0 -7 5 -4 10 3 6 8 10 11 10 2 0 4 -4 4 -10z m-30 -20
c7 -14 7 -20 0 -20 -5 0 -10 6 -10 14 0 8 -6 17 -12 19 -10 4 -10 6 -1 6 7 1
17 -8 23 -19z m310 0 c0 -5 -2 -10 -4 -10 -3 0 -8 5 -11 10 -3 6 -1 10 4 10 6
0 11 -4 11 -10z m-220 -20 c0 -5 -2 -10 -4 -10 -3 0 -8 5 -11 10 -3 6 -1 10 4
10 6 0 11 -4 11 -10z m216 -26 c1 -9 0 -13 -4 -10 -3 4 -7 14 -8 22 -1 9 0 13
4 10 3 -4 7 -14 8 -22z m-296 -24 c0 -5 -2 -10 -4 -10 -3 0 -8 5 -11 10 -3 6
-1 10 4 10 6 0 11 -4 11 -10z m157 -92 c-3 -8 -6 -5 -6 6 -1 11 2 17 5 13 3
-3 4 -12 1 -19z m56 -41 c-5 -8 -8 -7 -11 1 -2 7 -9 9 -14 6 -7 -4 -8 -2 -4 4
4 6 13 9 21 6 8 -4 12 -11 8 -17z m-327 -17 c1 -6 2 -11 4 -12 7 -10 6 -37 -1
-32 -5 3 -7 10 -4 15 4 5 0 12 -9 15 -8 3 -14 14 -13 25 1 13 4 16 12 8 5 -5
11 -14 11 -19z m184 26 c0 -2 -8 -10 -17 -17 -16 -13 -17 -12 -4 4 13 16 21
21 21 13z m130 -35 c0 -5 -7 -12 -16 -15 -14 -5 -15 -4 -4 9 14 17 20 19 20 6z
m-334 -23 c5 -7 3 -8 -6 -3 -9 5 -10 2 -5 -14 4 -13 2 -21 -5 -21 -6 0 -9 -4
-6 -8 3 -5 -1 -9 -9 -9 -13 0 -13 3 0 17 8 9 12 19 9 23 -6 5 3 27 11 27 2 0
7 -5 11 -12z m314 -28 c-12 -22 -21 -26 -17 -7 2 10 17 26 25 27 1 0 -2 -9 -8
-20z m31 -3 c-10 -9 -11 -8 -5 6 3 10 9 15 12 12 3 -3 0 -11 -7 -18z m-415
-29 c5 -7 3 -8 -6 -3 -10 6 -12 4 -6 -10 5 -15 4 -16 -9 -5 -13 11 -13 15 -3
21 17 11 16 11 24 -3z m68 -25 c-3 -21 -6 -48 -8 -59 -1 -12 -8 -29 -15 -37
-7 -9 -10 -21 -6 -27 14 -23 -4 -8 -20 16 -9 15 -12 23 -5 19 8 -5 11 -3 8 6
-3 8 -10 14 -15 14 -6 0 -15 4 -20 9 -5 5 -3 6 5 2 7 -4 12 -2 12 6 0 9 2 10
8 1 5 -8 12 -8 26 3 19 13 11 20 -17 15 -5 -1 -6 3 -2 9 3 5 1 10 -6 10 -7 0
-9 3 -6 6 4 4 12 2 20 -4 13 -11 39 -2 36 14 -2 15 1 34 6 34 3 0 2 -17 -1
-37z m37 -27 c-5 -12 -6 -26 -4 -33 2 -6 -1 -14 -6 -18 -6 -3 -11 -19 -11 -35
0 -16 -4 -31 -9 -35 -11 -6 -4 66 7 75 7 5 12 37 13 75 0 15 2 17 9 6 4 -8 5
-24 1 -35z m349 40 c0 -2 -8 -10 -17 -17 -16 -13 -17 -12 -4 4 13 16 21 21 21
13z m-485 -46 c-8 -9 -12 -20 -8 -25 5 -4 2 -5 -4 -1 -7 4 -13 3 -13 -2 0 -6
-7 -12 -15 -15 -12 -5 -12 0 2 28 9 19 21 35 25 35 5 0 6 6 2 13 -5 8 -2 7 9
-2 16 -12 16 -16 2 -31z m471 -12 c-9 -12 -16 -19 -16 -15 0 11 24 47 28 42 2
-2 -3 -14 -12 -27z m90 -10 c4 -6 2 -14 -5 -16 -9 -3 -9 -7 -1 -17 8 -10 8
-15 -2 -21 -7 -4 -10 -3 -5 1 4 5 -1 17 -10 27 -10 11 -13 19 -8 18 21 -5 29
1 15 10 -9 6 -10 10 -3 10 6 0 15 -5 19 -12z m-623 -58 c-10 -11 -19 -20 -21
-20 -1 0 2 9 8 20 6 11 15 20 20 20 6 0 2 -9 -7 -20z m331 12 c3 -5 -1 -9 -9
-9 -8 0 -12 4 -9 9 3 4 7 8 9 8 2 0 6 -4 9 -8z m-229 -23 c-4 -5 -12 -9 -18
-8 -9 0 -8 2 1 6 6 2 9 10 6 15 -4 7 -2 8 5 4 6 -4 9 -12 6 -17z m198 -14 c-3
-9 -8 -14 -10 -11 -3 3 -2 9 2 15 9 16 15 13 8 -4z m-168 -23 c-6 -7 -34 11
-29 19 3 5 11 3 19 -4 7 -6 12 -13 10 -15z m406 5 c-10 -9 -11 -8 -5 6 3 10 9
15 12 12 3 -3 0 -11 -7 -18z m66 -6 c0 -11 -5 -18 -9 -15 -4 3 -5 11 -1 19 7
21 12 19 10 -4z m-247 5 c0 -2 -7 -9 -15 -16 -13 -11 -14 -10 -9 4 5 14 24 23
24 12z m64 -12 c3 -9 2 -12 -4 -9 -6 4 -16 -7 -23 -24 -7 -17 -16 -28 -20 -25
-4 4 -9 -1 -13 -10 -3 -9 -11 -16 -17 -16 -5 0 -2 9 7 19 10 10 14 21 9 23 -4
3 -2 3 5 2 6 -2 12 0 12 4 0 7 32 51 36 52 1 0 5 -7 8 -16z m-267 -19 c-15
-16 -19 -13 -11 9 3 9 10 13 15 10 5 -3 3 -11 -4 -19z m366 -22 c-5 -12 -3
-14 8 -8 8 5 11 5 6 -1 -5 -5 -14 -9 -20 -9 -7 -1 -11 -6 -9 -13 1 -7 -3 -12
-9 -12 -5 0 -7 -4 -4 -10 3 -5 1 -10 -6 -10 -7 0 -9 -3 -6 -7 4 -3 2 -12 -4
-20 -9 -9 -8 -13 0 -13 6 0 11 -5 11 -11 0 -5 -4 -7 -10 -4 -5 3 -12 -6 -16
-20 -3 -14 -11 -25 -17 -25 -6 0 -8 -3 -4 -6 3 -3 -7 -19 -21 -36 -15 -17 -26
-36 -24 -42 2 -6 0 -8 -4 -4 -4 5 -19 -9 -32 -30 -14 -20 -35 -46 -46 -57 -12
-11 -30 -37 -40 -57 -11 -20 -25 -36 -30 -35 -6 1 -10 -3 -9 -10 2 -8 -4 -10
-15 -6 -9 3 -14 3 -10 -1 4 -5 -10 -23 -30 -42 -31 -29 -35 -36 -22 -45 13 -9
13 -10 -1 -6 -9 3 -26 -1 -38 -9 -11 -8 -21 -11 -21 -6 0 6 8 13 17 16 12 5
14 9 5 18 -9 9 -8 16 5 30 13 15 19 16 31 5 13 -10 15 -9 10 5 -5 11 0 18 14
21 11 3 17 10 14 16 -4 5 3 12 14 16 11 3 20 13 20 20 0 9 6 12 17 8 10 -4 14
-2 10 4 -7 12 38 65 47 56 3 -4 6 1 6 9 0 9 7 18 15 22 8 3 15 11 15 17 0 8
-5 7 -17 -2 -10 -7 -7 -1 6 13 13 15 29 25 34 21 6 -4 8 0 4 11 -4 9 -3 15 1
13 4 -2 15 4 25 15 9 10 14 18 10 18 -5 0 -3 4 3 8 12 7 77 122 69 122 -2 0 1
14 6 30 6 17 15 30 20 30 5 0 9 9 9 21 0 11 4 18 10 14 5 -3 6 -13 3 -22z
m-406 0 c0 -7 -4 -13 -9 -13 -5 0 -7 -4 -4 -9 6 -9 -53 -66 -69 -66 -5 -1 -9
-6 -7 -13 1 -7 -3 -11 -10 -10 -7 2 -12 -4 -13 -12 0 -8 -7 -14 -14 -12 -8 2
-11 -3 -8 -13 4 -10 -3 -20 -23 -30 -16 -8 -34 -23 -39 -32 -6 -10 -11 -13
-11 -6 0 6 11 20 23 30 13 10 23 27 21 37 -1 10 0 15 4 12 3 -4 22 12 43 34
24 25 39 35 42 27 6 -13 11 18 7 43 -1 10 3 9 14 -5 13 -16 15 -17 10 -3 -4
11 0 20 11 24 9 4 14 12 12 19 -3 6 0 12 7 12 7 0 13 -6 13 -14z m473 2 c-6
-8 -9 -19 -6 -24 4 -5 2 -13 -4 -16 -6 -4 -9 -1 -8 7 2 7 -4 12 -12 10 -8 -1
-4 7 10 18 30 23 37 25 20 5z m-712 -70 c-3 -3 -9 2 -12 12 -6 14 -5 15 5 6 7
-7 10 -15 7 -18z m683 -7 c-10 -11 -11 -9 -5 6 6 15 4 17 -6 11 -9 -6 -11 -4
-5 4 5 9 10 10 18 2 8 -8 7 -14 -2 -23z m-217 13 c3 -5 -2 -15 -12 -22 -15
-12 -16 -12 -5 2 7 9 10 19 6 22 -3 4 -4 7 0 7 3 0 8 -4 11 -9z m197 -44 c-6
-8 -8 -16 -5 -19 3 -3 1 -9 -4 -12 -6 -3 -9 0 -8 6 2 16 15 38 23 38 3 0 0 -6
-6 -13z m-171 -12 c11 -13 10 -14 -5 -8 -15 5 -17 3 -12 -11 4 -9 3 -15 -1
-12 -5 3 -16 -4 -25 -15 -9 -10 -21 -19 -27 -19 -5 0 4 14 20 30 17 17 30 35
30 40 0 14 6 12 20 -5z m-645 -65 c-3 -5 -12 -10 -18 -10 -7 0 -6 4 3 10 19
12 23 12 15 0z m585 -14 c0 -11 -19 -15 -25 -6 -3 5 1 10 9 10 9 0 16 -2 16
-4z m-229 -39 c-10 -9 -11 -8 -5 6 3 10 9 15 12 12 3 -3 0 -11 -7 -18z m169
-1 c0 -2 -8 -10 -17 -17 -16 -13 -17 -12 -4 4 13 16 21 21 21 13z m-436 -94
c3 -5 -1 -9 -9 -9 -8 0 -12 4 -9 9 3 4 7 8 9 8 2 0 6 -4 9 -8z m173 -8 c-3 -3
-12 -4 -19 -1 -8 3 -5 6 6 6 11 1 17 -2 13 -5z m408 -14 c-3 -5 -12 -10 -18
-10 -7 0 -6 4 3 10 19 12 23 12 15 0z m-662 -25 c-3 -9 -8 -14 -10 -11 -3 3
-2 9 2 15 9 16 15 13 8 -4z m37 11 c0 -2 -8 -10 -17 -17 -16 -13 -17 -12 -4 4
13 16 21 21 21 13z m605 -16 c-3 -5 -12 -10 -18 -10 -7 0 -6 4 3 10 19 12 23
12 15 0z m-528 -65 c0 -8 -4 -12 -9 -9 -4 3 -8 0 -8 -7 0 -7 -3 -9 -6 -6 -4 4
-1 13 6 22 15 19 17 19 17 0z m43 0 c-7 -8 -17 -15 -23 -15 -6 0 -2 7 9 15 25
19 30 19 14 0z m-76 -31 c3 -8 2 -12 -4 -9 -6 3 -10 10 -10 16 0 14 7 11 14
-7z m-136 -19 c-2 -2 -19 -7 -38 -10 -19 -3 -32 -3 -29 0 4 3 17 8 30 10 13 3
26 10 28 17 3 10 5 10 9 0 2 -7 2 -15 0 -17z m115 -10 c-3 -9 -8 -14 -10 -11
-3 3 -2 9 2 15 9 16 15 13 8 -4z m-947 -17 c4 -7 3 -8 -4 -4 -7 4 -12 2 -12
-5 0 -7 -3 -10 -6 -6 -6 5 3 27 11 27 2 0 7 -5 11 -12z m90 -3 c-1 -8 -5 -17
-8 -21 -5 -4 -4 16 1 34 3 9 9 -1 7 -13z m361 0 c0 -8 -4 -12 -9 -9 -5 3 -6
10 -3 15 9 13 12 11 12 -6z m409 0 c-1 -8 -8 -21 -16 -28 -10 -9 -11 -9 -6 1
4 7 2 12 -5 12 -7 0 -4 7 7 15 24 18 23 18 20 0z m58 0 c-4 -8 -11 -15 -16
-15 -6 0 -5 6 2 15 7 8 14 15 16 15 2 0 1 -7 -2 -15z m331 -8 c-11 -9 -15 -19
-10 -27 5 -8 4 -11 -3 -6 -16 10 -24 -10 -9 -22 10 -8 20 -5 42 13 40 35 46
31 8 -5 -18 -17 -38 -29 -45 -28 -7 2 -12 -3 -10 -10 1 -8 -2 -11 -8 -7 -8 5
-8 11 0 20 7 8 7 15 1 19 -5 3 -11 1 -13 -6 -3 -8 -7 -6 -11 5 -4 11 -1 17 9
17 9 0 12 5 8 13 -4 6 -4 9 1 5 5 -5 14 1 22 12 8 11 19 20 25 20 7 0 4 -6 -7
-13z m-1960 -15 c-3 -3 -11 0 -18 7 -9 10 -8 11 6 5 10 -3 15 -9 12 -12z
m1460 0 c-9 -10 -55 -10 -49 0 3 4 9 6 14 3 5 -3 11 -1 15 5 4 6 11 8 16 4 6
-3 8 -9 4 -12z m65 -1 c7 -14 7 -22 0 -26 -6 -4 -10 -3 -9 2 4 21 -2 34 -13
27 -7 -4 -8 -3 -4 4 10 16 14 15 26 -7z m-753 3 c-3 -3 -12 -4 -19 -1 -8 3 -5
6 6 6 11 1 17 -2 13 -5z m708 -29 c-4 -33 -3 -35 18 -25 21 11 21 10 3 -4 -23
-19 -39 -11 -31 15 5 15 3 17 -11 12 -15 -6 -15 -4 2 14 10 12 20 22 21 22 2
1 1 -15 -2 -34z m595 31 c0 -2 -7 -7 -16 -10 -8 -3 -12 -2 -9 4 6 10 25 14 25
6z m-433 -21 c0 -8 -4 -12 -9 -9 -5 3 -6 10 -3 15 9 13 12 11 12 -6z m-1797
-5 c0 -5 -2 -10 -4 -10 -3 0 -8 5 -11 10 -3 6 -1 10 4 10 6 0 11 -4 11 -10z
m1330 -15 c-10 -12 -9 -15 8 -15 11 0 22 4 24 10 2 5 13 7 25 4 13 -4 21 -10
18 -14 -7 -11 36 0 59 16 15 10 63 10 73 0 2 -2 -8 -8 -23 -14 -14 -7 -23 -8
-19 -3 3 5 1 12 -5 16 -5 3 -10 -1 -10 -10 0 -9 -4 -13 -10 -10 -5 3 -10 1
-10 -5 0 -6 -4 -8 -10 -5 -5 3 -10 1 -10 -4 0 -6 -5 -11 -11 -11 -5 0 -7 6 -3
13 4 6 -3 3 -16 -8 -15 -13 -21 -15 -16 -5 4 8 0 6 -8 -4 -9 -11 -16 -16 -16
-12 0 5 -7 3 -15 -4 -8 -7 -16 -10 -16 -6 -1 3 -2 10 -3 16 0 5 -8 18 -17 28
-15 17 -15 20 0 30 22 15 25 14 11 -3z m115 5 c-3 -5 -12 -10 -18 -10 -7 0 -6
4 3 10 19 12 23 12 15 0z m140 -8 c4 1 14 -6 21 -18 12 -18 12 -21 0 -21 -9 0
-13 4 -10 9 9 14 -7 30 -20 19 -8 -7 -12 -4 -13 12 -2 15 0 18 6 9 5 -8 12
-12 16 -10z m-1471 -13 c3 -3 -6 -5 -19 -5 -14 0 -25 4 -25 8 0 8 36 6 44 -3z
m1928 -16 c-5 -10 -8 -22 -6 -28 2 -5 -10 -18 -26 -27 -17 -9 -30 -14 -30 -9
0 4 11 13 25 19 16 8 23 17 19 27 -4 8 -1 22 6 30 17 20 24 12 12 -12z m-742
1 c0 5 7 3 15 -4 12 -10 13 -16 3 -27 -10 -12 -13 -11 -24 8 l-12 23 -26 -28
c-14 -16 -23 -32 -21 -37 3 -4 2 -10 -3 -13 -5 -3 -9 0 -9 7 0 7 -4 20 -8 30
-5 13 -2 17 12 17 11 0 28 8 39 19 13 12 21 15 26 7 4 -6 8 -7 8 -2z m-706 -3
c-8 -8 -43 -8 -38 0 2 4 13 7 24 6 10 -1 17 -3 14 -6z m57 -8 c8 -9 9 -14 2
-10 -6 4 -13 4 -16 0 -2 -5 -2 -2 -1 5 2 6 -1 12 -6 12 -6 0 -10 -4 -10 -10 0
-5 -5 -10 -11 -10 -8 0 -8 5 1 15 16 19 24 19 41 -2z m30 0 c13 -16 12 -17 -3
-4 -17 13 -22 21 -14 21 2 0 10 -8 17 -17z m866 -14 c-9 -6 -15 -14 -12 -19 3
-5 1 -12 -5 -15 -6 -4 -9 -1 -8 7 2 7 -2 12 -9 11 -12 -3 -12 22 1 34 4 4 7 4
6 -2 -5 -22 1 -27 15 -15 8 7 12 17 8 24 -3 6 0 5 8 -2 12 -11 11 -15 -4 -23z
m418 1 c-13 -14 -13 -19 -3 -24 7 -3 4 -4 -8 -1 -12 3 -27 -2 -37 -12 -23 -26
-23 -28 -9 -46 9 -11 10 -17 2 -22 -6 -4 -14 -4 -17 -1 -4 3 -1 6 6 6 7 0 9 5
6 10 -3 6 -17 10 -31 10 -15 0 -23 -4 -19 -10 4 -6 12 -7 18 -3 7 4 6 0 -2
-10 -15 -18 -26 -23 -16 -7 3 6 1 10 -4 10 -6 0 -10 11 -9 24 1 14 7 22 13 18
5 -4 19 -7 30 -9 11 -1 14 1 8 3 -7 3 -13 10 -13 15 0 6 4 8 9 5 5 -4 21 7 34
24 14 16 31 30 37 30 6 0 8 5 4 12 -5 7 -3 8 5 4 9 -6 8 -12 -4 -26z m-478 4
c-3 -3 -12 -4 -19 -1 -8 3 -5 6 6 6 11 1 17 -2 13 -5z m-197 -14 c0 -5 -7 -10
-15 -10 -8 0 -15 5 -15 10 0 6 7 10 15 10 8 0 15 -4 15 -10z m720 6 c0 -2 -7
-6 -15 -10 -8 -3 -15 -1 -15 4 0 6 7 10 15 10 8 0 15 -2 15 -4z m-937 -13 c-7
-2 -19 -2 -25 0 -7 3 -2 5 12 5 14 0 19 -2 13 -5z m129 -9 c-1 -5 -14 -10 -30
-10 -47 -2 -53 -4 -48 -12 6 -10 4 -10 -72 -15 -39 -3 -56 1 -65 12 -11 14
-10 14 6 2 14 -11 17 -11 18 0 0 11 2 11 6 1 4 -10 8 -10 19 -1 8 7 17 9 21 6
3 -4 15 -2 26 4 14 8 18 8 13 0 -10 -15 -6 -14 37 8 38 19 74 22 69 5z m-560
-8 c7 4 8 2 4 -5 -9 -13 -26 -5 -25 12 0 9 2 8 6 -1 2 -6 10 -9 15 -6z m385 8
c-3 -3 -12 -4 -19 -1 -8 3 -5 6 6 6 11 1 17 -2 13 -5z m-553 -20 c9 -8 16 -11
16 -5 0 6 6 11 13 11 15 0 20 -37 6 -45 -5 -4 -6 2 -2 11 5 13 3 16 -10 11 -8
-3 -21 1 -28 9 -6 8 -14 12 -17 9 -3 -3 3 -15 14 -27 14 -17 15 -19 2 -9 -9 7
-23 9 -29 5 -7 -4 -10 -3 -7 2 3 5 8 17 11 27 8 21 11 21 31 1z m413 -8 c-4
-10 -13 -13 -24 -9 -15 6 -16 4 -5 -9 10 -13 10 -18 1 -24 -7 -4 -9 -3 -5 4 3
6 2 13 -3 17 -5 3 -14 -3 -20 -12 -9 -16 -10 -16 -8 4 0 12 6 21 12 20 5 -1 9
4 7 11 -2 10 2 10 18 2 16 -9 20 -8 20 6 0 10 3 15 6 11 4 -3 4 -13 1 -21z
m1076 6 c3 7 4 3 4 -9 -1 -17 -4 -19 -14 -11 -13 10 -17 4 -13 -17 1 -5 -5 -4
-12 4 -10 11 -10 14 0 18 6 3 9 10 5 16 -4 8 -1 7 9 -1 13 -10 17 -10 21 0z
m-1603 -12 c0 -5 -5 -10 -11 -10 -5 0 -7 5 -4 10 3 6 8 10 11 10 2 0 4 -4 4
-10z m536 -18 c-17 -16 -18 -16 -5 5 7 12 15 20 18 17 3 -2 -3 -12 -13 -22z
m142 -20 c13 0 20 3 16 10 -5 7 -1 7 12 0 10 -6 27 -7 39 -2 16 6 21 4 22 -11
1 -10 -2 -21 -8 -24 -5 -3 -6 1 -3 9 5 12 0 16 -22 14 -16 -1 -36 -8 -45 -15
-14 -11 -18 -11 -28 1 -6 8 -19 13 -29 11 -9 -1 -11 0 -4 2 7 3 10 9 6 14 -3
5 -10 6 -16 3 -7 -5 -8 -2 -3 6 5 9 2 10 -14 5 -13 -4 -21 -2 -21 5 0 6 5 8
10 5 6 -3 10 -1 10 6 0 7 12 1 28 -12 15 -14 37 -26 50 -27z m136 40 c2 -4 -4
-8 -14 -8 -10 0 -16 4 -14 8 3 4 9 8 14 8 5 0 11 -4 14 -8z m285 -6 c10 -12 9
-14 -6 -11 -10 2 -22 4 -28 4 -5 1 -3 6 5 11 19 12 15 12 29 -4z m-538 -19
c-10 -9 -11 -8 -5 6 3 10 9 15 12 12 3 -3 0 -11 -7 -18z m-701 9 c0 -3 -4 -8
-10 -11 -5 -3 -10 -1 -10 4 0 6 5 11 10 11 6 0 10 -2 10 -4z m55 -14 c-3 -3
-11 0 -18 7 -9 10 -8 11 6 5 10 -3 15 -9 12 -12z m45 12 c0 -8 -19 -13 -24 -6
-3 5 1 9 9 9 8 0 15 -2 15 -3z m94 -5 c-4 -7 -44 0 -44 7 0 2 11 3 24 2 14 -1
23 -5 20 -9z m346 5 c0 -8 -19 -13 -24 -6 -3 5 1 9 9 9 8 0 15 -2 15 -3z m40
-4 c8 -5 11 -10 5 -10 -5 0 -17 5 -25 10 -8 5 -10 10 -5 10 6 0 17 -5 25 -10z
m610 -1 c12 -8 10 -9 -7 -4 -14 4 -23 2 -23 -5 0 -6 -5 -8 -11 -4 -8 4 -7 9 2
15 18 11 21 11 39 -2z m-180 -9 c-18 -12 -30 -13 -30 -2 0 4 10 9 22 9 18 2
20 0 8 -7z m597 -12 c-3 -8 -6 -5 -6 6 -1 11 2 17 5 13 3 -3 4 -12 1 -19z
m-1059 -8 c-7 -10 -15 -16 -18 -12 -3 4 -9 11 -15 15 -6 5 -3 7 7 3 10 -3 20
-1 23 4 4 6 8 10 11 10 2 0 -1 -9 -8 -20z m187 10 c3 -5 1 -10 -4 -10 -6 0
-11 5 -11 10 0 6 2 10 4 10 3 0 8 -4 11 -10z m1015 5 c0 -2 -10 -9 -22 -15
-22 -11 -22 -10 -4 4 21 17 26 19 26 11z m-1893 -22 c0 -9 -4 -10 -14 -2 -7 6
-13 12 -13 14 0 1 6 2 13 2 8 0 14 -6 14 -14z m527 3 c-3 -9 -12 -12 -22 -9
-15 6 -9 11 25 22 1 1 0 -5 -3 -13z m116 5 c0 -3 -23 -7 -50 -8 -28 -1 -48 1
-46 5 5 9 96 11 96 3z m87 -5 c0 -8 -6 -12 -15 -9 -11 5 -11 7 0 14 7 5 13 9
14 9 0 0 1 -6 1 -14z m86 -9 c-7 -13 -10 -13 -23 1 -13 14 -12 15 3 9 10 -4
17 -2 17 5 0 6 3 9 6 5 3 -3 2 -12 -3 -20z m527 11 c0 -4 -4 -8 -9 -8 -6 0
-12 4 -15 8 -3 5 1 9 9 9 8 0 15 -4 15 -9z m-150 -23 c0 -2 -6 -7 -12 -11 -7
-4 -10 -4 -6 1 4 4 0 14 -10 22 -15 13 -15 13 6 3 12 -6 22 -13 22 -15z m40 5
c0 -5 -8 -10 -17 -10 -15 0 -16 2 -3 10 19 12 20 12 20 0z m58 0 c-14 -4 -31
-10 -36 -13 -5 -4 -9 0 -9 7 0 8 14 13 36 13 33 1 34 0 9 -7z m452 0 c0 -5 -4
-10 -10 -10 -5 0 -10 5 -10 10 0 6 5 10 10 10 6 0 10 -4 10 -10z m-40 -20 c-6
-11 -15 -18 -20 -15 -4 3 -11 0 -13 -5 -4 -7 -5 -6 -3 1 1 6 5 9 9 7 5 -2 13
5 18 15 14 24 22 21 9 -3z m-696 -15 c-5 -11 -16 -14 -46 -10 -29 4 -37 2 -32
-8 5 -8 3 -8 -9 2 -9 7 -23 11 -32 8 -8 -4 -17 -2 -19 2 -3 4 24 8 60 8 35 0
67 3 71 7 10 10 13 7 7 -9z m-198 -4 c-3 -5 2 -12 12 -16 16 -6 15 -7 -3 -18
-29 -16 -46 -17 -51 -3 -3 7 -16 12 -30 10 -13 -1 -22 2 -18 7 3 5 16 7 29 5
13 -2 32 2 42 9 21 17 26 18 19 6z m52 -11 c8 -13 7 -17 -4 -17 -8 0 -12 3 -9
5 3 3 -3 10 -11 17 -14 10 -14 12 -2 12 9 0 20 -8 26 -17z m186 -4 c-10 -8
-21 -12 -24 -10 -5 6 21 24 34 24 6 0 1 -6 -10 -14z m-904 -6 c0 -5 -5 -10
-11 -10 -5 0 -7 5 -4 10 3 6 8 10 11 10 2 0 4 -4 4 -10z m50 0 c12 -7 10 -9
-8 -7 -12 0 -22 5 -22 9 0 11 12 10 30 -2z m390 0 c0 -5 -5 -10 -11 -10 -5 0
-7 5 -4 10 3 6 8 10 11 10 2 0 4 -4 4 -10z m320 0 c0 -5 -5 -10 -11 -10 -5 0
-7 5 -4 10 3 6 8 10 11 10 2 0 4 -4 4 -10z m-532 -7 c-10 -2 -26 -2 -35 0 -10
3 -2 5 17 5 19 0 27 -2 18 -5z m1208 -5 c4 -7 3 -8 -4 -4 -7 4 -12 1 -12 -8 0
-9 -5 -16 -10 -16 -7 0 -7 6 0 20 12 23 16 24 26 8z m44 4 c0 -5 -7 -9 -15 -9
-8 0 -12 4 -9 9 3 4 9 8 15 8 5 0 9 -4 9 -8z m-1510 -37 c-7 -8 -17 -15 -23
-15 -6 0 -2 7 9 15 25 19 30 19 14 0z m-112 -20 c-3 -3 -9 2 -12 12 -6 14 -5
15 5 6 7 -7 10 -15 7 -18z m49 10 c0 -8 -4 -12 -9 -9 -5 3 -6 10 -3 15 9 13
12 11 12 -6z m86 0 c-3 -9 -8 -14 -10 -11 -3 3 -2 9 2 15 9 16 15 13 8 -4z
m77 -4 c0 -4 -10 -7 -22 -8 -13 0 -17 1 -10 4 6 3 10 9 7 14 -4 5 1 6 9 3 9
-3 16 -9 16 -13z m-257 -5 c15 0 27 -2 27 -6 0 -4 -15 -6 -32 -4 -18 1 -39 3
-45 3 -7 1 -13 6 -13 11 0 7 7 8 18 3 9 -5 29 -8 45 -7z m521 -4 c2 -4 -4 -8
-14 -8 -10 0 -16 4 -14 8 3 4 9 8 14 8 5 0 11 -4 14 -8z m880 -10 c3 -5 -1 -9
-9 -9 -8 0 -12 4 -9 9 3 4 7 8 9 8 2 0 6 -4 9 -8z m-1396 -37 c3 -3 -4 -4 -16
-2 -12 2 -24 6 -28 10 -4 3 4 4 16 2 12 -2 25 -7 28 -10z"/>
<path d="M2026 4413 c-6 -14 -5 -15 5 -6 7 7 10 15 7 18 -3 3 -9 -2 -12 -12z"/>
<path d="M1807 4056 c-4 -10 -1 -13 9 -9 15 6 19 23 5 23 -5 0 -11 -7 -14 -14z"/>
<path d="M1496 3653 c-6 -14 -5 -15 5 -6 7 7 10 15 7 18 -3 3 -9 -2 -12 -12z"/>
<path d="M1505 3629 c-4 -6 -5 -12 -2 -15 2 -3 7 2 10 11 7 17 1 20 -8 4z"/>
<path d="M2095 3881 c-3 -5 -2 -12 3 -15 5 -3 9 1 9 9 0 17 -3 19 -12 6z"/>
<path d="M1424 3509 c-19 -22 -19 -22 4 -8 12 8 22 17 22 21 0 12 -6 9 -26
-13z"/>
<path d="M1795 3299 c-3 -4 2 -6 10 -5 21 3 28 13 10 13 -9 0 -18 -4 -20 -8z"/>
<path d="M2750 2860 c0 -5 5 -10 11 -10 5 0 7 5 4 10 -3 6 -8 10 -11 10 -2 0
-4 -4 -4 -10z"/>
<path d="M1547 2750 c7 -8 63 -7 63 1 0 3 -15 6 -34 5 -19 0 -32 -3 -29 -6z"/>
<path d="M2360 2691 c-14 -4 -20 -10 -14 -14 6 -3 20 0 30 8 21 16 20 16 -16
6z"/>
<path d="M3320 1300 c-12 -8 -12 -10 -1 -10 11 0 11 -3 0 -17 -11 -15 -11 -16
1 -6 8 7 15 20 16 28 3 18 3 17 -16 5z"/>
<path d="M3239 1333 c-13 -16 -12 -17 4 -4 16 13 21 21 13 21 -2 0 -10 -8 -17
-17z"/>
<path d="M3321 656 c-7 -8 -8 -17 -3 -20 6 -3 12 3 15 14 6 24 4 25 -12 6z"/>
<path d="M2534 545 c-4 -8 -11 -12 -17 -8 -6 3 -7 1 -3 -5 5 -9 13 -9 27 -2
11 6 17 15 14 21 -9 13 -15 11 -21 -6z"/>
<path d="M2033 323 c-7 -3 -13 -8 -13 -13 0 -10 24 -7 28 4 5 11 -1 14 -15 9z"/>
<path d="M2731 4826 c-8 -10 -9 -16 -1 -21 5 -3 10 -5 11 -3 4 18 7 38 4 38
-1 0 -8 -6 -14 -14z"/>
<path d="M2650 4792 c0 -10 4 -11 13 -5 6 6 20 9 30 8 9 -2 17 1 17 6 0 5 -13
8 -30 7 -18 -1 -30 -8 -30 -16z"/>
<path d="M2593 4793 c-7 -3 -13 -9 -13 -15 0 -7 4 -7 13 1 10 7 17 7 24 0 8
-8 13 -8 17 0 4 6 6 11 4 12 -20 5 -35 5 -45 2z"/>
<path d="M2464 4744 c-18 -14 -18 -14 6 -3 31 14 36 19 24 19 -6 0 -19 -7 -30
-16z"/>
<path d="M3677 4696 c-17 -13 -16 -15 14 -30 41 -20 50 -20 21 0 -21 15 -32
42 -12 29 6 -3 10 -1 10 4 0 15 -11 13 -33 -3z"/>
<path d="M2204 4628 l-19 -23 23 19 c21 18 27 26 19 26 -2 0 -12 -10 -23 -22z"/>
<path d="M3870 4630 c0 -6 4 -9 9 -6 5 4 12 1 14 -4 3 -6 4 -5 3 2 -3 15 -26
23 -26 8z"/>
<path d="M2118 4569 c-7 -4 -9 -12 -4 -16 5 -4 11 -2 13 5 3 6 9 10 13 7 5 -3
11 -2 14 3 6 11 -19 11 -36 1z"/>
<path d="M3884 4550 c0 -11 2 -17 5 -14 2 2 15 -5 27 -17 30 -28 41 -7 12 23
-29 29 -44 32 -44 8z m41 -18 c-3 -3 -11 0 -18 7 -9 10 -8 11 6 5 10 -3 15 -9
12 -12z"/>
<path d="M2075 4540 c-3 -6 1 -7 9 -4 18 7 21 14 7 14 -6 0 -13 -4 -16 -10z"/>
<path d="M3846 4525 c10 -8 24 -14 29 -14 6 0 1 6 -9 14 -11 8 -24 15 -30 15
-5 0 -1 -7 10 -15z"/>
<path d="M3820 4336 c0 -2 8 -10 18 -17 15 -13 16 -12 3 4 -13 16 -21 21 -21
13z"/>
<path d="M3633 4302 c9 -10 15 -21 12 -24 -3 -2 1 -5 9 -5 11 0 12 4 3 18 -6
10 -18 21 -26 24 -11 5 -11 1 2 -13z"/>
<path d="M2620 4280 c0 -13 18 -22 24 -11 3 5 -1 11 -9 15 -8 3 -15 1 -15 -4z"/>
<path d="M3015 4260 c-4 -6 -14 -10 -23 -9 -28 5 -92 -11 -92 -22 0 -6 -4 -7
-10 -4 -5 3 -10 1 -10 -5 0 -6 -5 -8 -12 -4 -7 5 -8 3 -3 -6 5 -8 3 -11 -6 -8
-8 3 -27 -2 -44 -10 -16 -9 -32 -17 -35 -17 -3 0 -15 -6 -27 -13 -13 -7 -23
-9 -23 -5 0 4 -4 3 -8 -2 -4 -6 -19 -16 -34 -22 -16 -7 -28 -20 -28 -30 0 -10
4 -14 8 -8 4 6 14 11 22 13 8 2 17 8 18 13 2 5 10 9 18 9 19 0 77 29 86 44 4
6 8 7 8 3 0 -7 76 29 90 43 13 13 69 27 72 18 2 -5 15 -1 28 11 14 11 22 20
18 21 -4 0 -10 -5 -13 -10z"/>
<path d="M3810 4240 c0 -7 -7 -10 -17 -6 -15 5 -14 3 2 -9 11 -9 30 -13 42
-10 17 4 21 2 17 -10 -4 -8 -1 -15 6 -15 6 0 8 5 5 10 -3 6 -1 10 4 10 6 0 11
-4 11 -10 0 -5 7 -6 17 -3 10 4 14 2 9 -5 -7 -11 9 -25 33 -28 8 -2 4 7 -10
22 -12 13 -28 24 -36 24 -7 0 -13 5 -13 11 0 5 -4 8 -9 5 -5 -4 -11 -2 -13 3
-5 14 -48 24 -48 11z"/>
<path d="M3675 4187 c16 -12 31 -21 32 -19 5 4 3 12 -3 11 -4 0 -10 5 -15 12
-4 7 -16 14 -26 15 -12 2 -9 -4 12 -19z"/>
<path d="M2629 4105 c-1 -3 -2 -11 -3 -17 0 -7 -7 -13 -15 -13 -8 0 -15 -6
-17 -13 -1 -7 0 -8 3 -2 2 5 9 8 14 4 11 -6 39 19 39 35 0 11 -19 16 -21 6z"/>
<path d="M2528 4022 c-16 -17 -16 -18 1 -18 9 0 18 8 18 18 2 21 2 21 -19 0z"/>
<path d="M2480 3991 c0 -5 -16 -19 -36 -30 -20 -12 -34 -24 -31 -28 3 -3 13 2
22 11 9 9 21 14 26 11 5 -4 9 -1 9 5 0 6 10 14 22 19 18 6 19 9 5 14 -10 4
-17 2 -17 -2z"/>
<path d="M2327 3865 c-20 -19 -40 -35 -45 -35 -4 0 -20 -19 -37 -41 -16 -23
-49 -58 -72 -79 -22 -21 -39 -41 -36 -44 6 -6 103 94 103 106 0 5 5 6 12 2 7
-4 8 -3 4 4 -4 7 -3 12 2 12 4 0 19 10 32 23 14 12 29 21 35 19 5 -2 7 0 2 4
-4 4 5 20 20 36 38 40 25 35 -20 -7z"/>
<path d="M2108 3643 c-23 -28 -30 -43 -19 -43 6 0 11 7 11 15 0 8 4 15 9 15 5
0 11 7 15 15 7 20 2 19 -16 -2z"/>
<path d="M2065 3580 c-3 -6 1 -7 9 -4 18 7 21 14 7 14 -6 0 -13 -4 -16 -10z"/>
<path d="M1994 3492 c3 -5 0 -13 -6 -15 -9 -4 -10 -6 -1 -6 17 -1 25 16 12 25
-7 4 -9 3 -5 -4z"/>
<path d="M1951 3428 c-14 -23 -14 -23 8 -4 22 20 25 26 13 26 -4 0 -13 -10
-21 -22z"/>
<path d="M1915 3359 c-4 -6 -5 -12 -2 -15 2 -3 7 2 10 11 7 17 1 20 -8 4z"/>
<path d="M1883 3308 c-15 -20 -25 -38 -20 -38 3 0 12 11 21 25 17 26 16 35 -1
13z"/>
<path d="M1750 3106 c0 -2 7 -7 16 -10 8 -3 12 -2 9 4 -6 10 -25 14 -25 6z"/>
<path d="M3380 2780 c0 -5 5 -10 10 -10 6 0 10 5 10 10 0 6 -4 10 -10 10 -5 0
-10 -4 -10 -10z"/>
<path d="M3410 2762 c0 -4 15 -21 33 -37 17 -17 48 -49 68 -72 36 -39 59 -59
59 -49 0 2 -8 12 -17 22 -10 10 -18 22 -18 28 -1 6 -6 10 -13 9 -7 -2 -12 7
-12 20 0 18 -2 19 -10 7 -7 -11 -10 -11 -10 -2 0 13 -36 54 -55 62 -5 3 -9 8
-7 13 1 4 -2 7 -8 7 -5 0 -10 -3 -10 -8z"/>
<path d="M3596 2538 c3 -5 10 -6 15 -3 13 9 11 12 -6 12 -8 0 -12 -4 -9 -9z"/>
<path d="M3621 2504 c0 -11 3 -14 6 -6 3 7 2 16 -1 19 -3 4 -6 -2 -5 -13z"/>
<path d="M3638 2483 c-3 -12 -3 -22 1 -21 3 0 13 0 21 -1 12 -1 12 -3 2 -9
-10 -7 -6 -22 15 -68 15 -32 28 -61 28 -64 2 -12 46 -127 55 -143 6 -10 8 -23
4 -30 -4 -7 -4 -9 1 -5 4 4 14 0 22 -10 13 -15 13 -15 3 6 -6 12 -8 28 -4 34
4 6 3 8 -3 5 -6 -4 -10 4 -10 20 0 15 -6 29 -12 31 -6 2 -11 12 -11 23 0 10
-4 19 -10 19 -5 0 -10 4 -10 10 0 5 8 7 18 3 15 -5 14 -4 -2 9 -12 9 -16 20
-11 28 6 9 4 11 -5 5 -8 -5 -11 -3 -8 6 3 8 -4 27 -15 43 -12 16 -15 26 -7 21
8 -5 4 6 -9 23 -12 18 -19 32 -14 32 4 0 1 6 -8 13 -9 7 -18 19 -21 27 -3 10
-6 8 -10 -7z"/>
<path d="M2435 2470 c-3 -5 -3 -10 2 -11 4 -1 -3 -5 -17 -10 l-25 -8 25 2 c14
1 23 6 22 11 -2 5 2 13 10 17 9 6 9 9 1 9 -6 0 -15 -4 -18 -10z"/>
<path d="M2045 2460 c3 -5 8 -10 11 -10 2 0 4 5 4 10 0 6 -5 10 -11 10 -5 0
-7 -4 -4 -10z"/>
<path d="M2075 2460 c3 -5 8 -10 11 -10 2 0 4 5 4 10 0 6 -5 10 -11 10 -5 0
-7 -4 -4 -10z"/>
<path d="M2293 2455 c0 -8 2 -13 5 -11 2 3 14 1 27 -4 18 -7 25 -5 30 8 6 16
8 15 21 -2 14 -19 14 -19 14 2 0 19 -6 22 -37 22 -28 0 -34 -3 -23 -10 13 -8
12 -10 -2 -10 -10 0 -18 5 -18 10 0 6 -4 10 -8 10 -5 0 -9 -7 -9 -15z"/>
<path d="M2975 2300 c3 -5 8 -10 11 -10 2 0 4 5 4 10 0 6 -5 10 -11 10 -5 0
-7 -4 -4 -10z"/>
<path d="M3100 2226 c0 -3 9 -10 20 -16 11 -6 20 -8 20 -6 0 3 -9 10 -20 16
-11 6 -20 8 -20 6z"/>
<path d="M3772 2110 c9 -6 15 -20 14 -35 -2 -13 0 -24 3 -23 18 2 22 -3 12
-15 -8 -10 -7 -14 3 -14 15 0 16 14 3 35 -5 6 -5 12 0 12 4 0 1 5 -7 10 -13 8
-13 10 -1 10 11 0 9 4 -5 15 -10 8 -23 14 -29 14 -5 0 -3 -4 7 -9z"/>
<path d="M3811 2003 c0 -5 4 -17 9 -28 8 -17 8 -16 7 8 -1 15 -5 27 -9 27 -4
0 -8 -3 -7 -7z"/>
<path d="M3796 1967 c3 -10 9 -15 12 -12 3 3 0 11 -7 18 -10 9 -11 8 -5 -6z"/>
<path d="M3210 1939 c0 -5 5 -7 10 -4 6 3 10 8 10 11 0 2 -4 4 -10 4 -5 0 -10
-5 -10 -11z"/>
<path d="M3805 1928 c3 -7 6 -35 8 -63 1 -27 6 -55 10 -62 9 -14 -8 -27 -23
-18 -5 3 -10 2 -10 -4 0 -5 8 -11 18 -13 10 -2 17 -12 17 -27 0 -14 7 -26 15
-28 13 -4 13 -3 0 6 -13 10 -13 11 0 11 13 0 13 1 0 10 -13 9 -13 10 0 10 12
0 12 2 1 9 -9 6 -10 10 -2 16 9 5 9 10 0 21 -9 11 -8 14 2 14 12 0 12 2 1 9
-8 4 -14 12 -14 16 0 4 6 12 14 16 11 7 11 9 -1 9 -8 0 -11 6 -7 16 3 8 2 12
-4 9 -6 -3 -10 5 -10 19 0 14 -4 28 -10 31 -5 3 -8 0 -5 -7z"/>
<path d="M3826 1657 c5 -26 21 -43 21 -22 0 8 -5 15 -10 15 -5 0 -5 6 2 13 8
10 7 14 -3 14 -9 0 -13 -8 -10 -20z"/>
<path d="M3726 914 c-5 -14 -4 -15 9 -4 17 14 19 20 6 20 -5 0 -12 -7 -15 -16z"/>
<path d="M3707 875 c-16 -11 -16 -13 -2 -19 9 -3 14 -2 10 3 -3 5 1 11 7 14 7
2 11 7 8 10 -3 3 -13 0 -23 -8z"/>
<path d="M3672 813 c-13 -19 -21 -37 -18 -41 3 -3 6 -1 6 5 0 5 11 22 24 36
14 15 22 29 18 31 -4 2 -18 -11 -30 -31z"/>
<path d="M3635 749 c-4 -6 -5 -12 -2 -15 2 -3 7 2 10 11 7 17 1 20 -8 4z"/>
<path d="M3605 720 c-3 -5 -4 -10 -1 -10 7 0 -26 -40 -82 -98 -23 -25 -40 -47
-38 -50 11 -10 128 127 132 154 3 16 -2 18 -11 4z"/>
<path d="M1256 611 c-4 -5 -2 -12 3 -15 5 -4 12 -2 15 3 4 5 2 12 -3 15 -5 4
-12 2 -15 -3z"/>
<path d="M1018 588 c5 -5 16 -8 23 -6 8 3 3 7 -10 11 -17 4 -21 3 -13 -5z"/>
<path d="M3456 545 c-9 -26 -7 -32 5 -12 6 10 9 21 6 23 -2 3 -7 -2 -11 -11z"/>
<path d="M3374 472 c3 -5 0 -13 -6 -15 -9 -4 -10 -6 -1 -6 17 -1 25 16 12 25
-7 4 -9 3 -5 -4z"/>
<path d="M1175 430 c-4 -6 -11 -8 -16 -5 -5 4 -9 1 -9 -4 0 -17 27 -13 34 4 6
17 0 20 -9 5z"/>
<path d="M1100 426 c0 -2 9 -6 20 -9 11 -3 18 -1 14 4 -5 9 -34 13 -34 5z"/>
<path d="M1112 393 c-12 -2 -20 -8 -17 -13 3 -5 1 -11 -4 -15 -6 -3 -7 -13 -4
-22 5 -12 3 -14 -7 -8 -9 5 -11 4 -6 -4 6 -8 12 -9 20 -2 7 6 16 8 19 4 4 -3
7 -1 7 5 0 6 -5 14 -10 17 -14 9 -1 28 14 22 7 -3 13 1 13 9 0 8 -1 13 -1 13
-1 -1 -11 -4 -24 -6z"/>
<path d="M3264 385 c-4 -8 -10 -15 -15 -15 -6 0 -15 -5 -22 -10 -7 -6 -20 -16
-30 -23 -15 -11 -14 -12 12 -12 21 -1 27 3 23 14 -4 10 -1 13 12 8 10 -4 15
-3 11 3 -3 5 4 14 15 20 21 11 27 30 10 30 -6 0 -13 -7 -16 -15z"/>
<path d="M1055 349 c-4 -6 -5 -12 -2 -15 2 -3 7 2 10 11 7 17 1 20 -8 4z"/>
<path d="M3154 309 c-4 -7 -3 -9 4 -5 5 3 13 0 15 -6 4 -9 6 -10 6 -1 1 17
-16 25 -25 12z"/>
<path d="M3125 280 c-3 -5 -14 -10 -24 -10 -10 0 -24 -7 -31 -15 -7 -8 -16
-13 -19 -10 -4 2 -8 -2 -8 -10 0 -8 4 -15 9 -15 4 0 8 4 8 8 0 9 59 36 77 35
7 0 11 3 8 7 -3 5 1 11 7 13 8 4 7 6 -4 6 -9 1 -20 -3 -23 -9z"/>
<path d="M3016 233 c-7 -8 -11 -9 -38 -12 -9 -1 -9 -4 2 -11 9 -5 19 -5 26 0
6 6 14 7 17 3 4 -3 7 1 7 10 0 19 -3 21 -14 10z"/>
<path d="M2720 200 c-9 -6 -10 -10 -3 -10 6 0 15 5 18 10 8 12 4 12 -15 0z"/>
<path d="M2925 179 c-4 -6 -13 -8 -20 -5 -8 3 -16 0 -19 -7 -3 -9 -8 -8 -16 3
-10 13 -11 13 -6 -2 3 -10 1 -18 -4 -18 -6 0 -10 5 -10 10 0 7 -6 7 -19 1 -10
-6 -21 -7 -25 -4 -3 3 -6 -1 -6 -10 0 -21 22 -21 75 -1 22 9 45 16 51 16 6 1
11 7 11 15 0 16 -4 17 -12 2z"/>
<path d="M2776 148 c5 -7 2 -9 -9 -5 -10 4 -14 2 -11 -7 7 -19 34 -15 34 6 0
10 -5 18 -11 18 -5 0 -7 -5 -3 -12z"/>
<path d="M2516 142 c-3 -5 1 -9 9 -9 8 0 12 4 9 9 -3 4 -7 8 -9 8 -2 0 -6 -4
-9 -8z"/>
<path d="M2475 130 c-3 -6 1 -7 9 -4 18 7 21 14 7 14 -6 0 -13 -4 -16 -10z"/>
<path d="M2687 119 c7 -7 15 -10 18 -7 3 3 -2 9 -12 12 -14 6 -15 5 -6 -5z"/>
<path d="M2175 110 c-4 -6 -12 -7 -18 -3 -7 3 -5 -2 4 -13 9 -10 14 -26 11
-34 -4 -11 -1 -10 12 3 20 20 37 22 32 5 -1 -7 -1 -10 1 -6 3 4 15 3 29 -2 17
-7 24 -6 24 3 0 9 3 8 9 -1 7 -11 9 -11 14 2 4 10 1 16 -8 16 -8 0 -15 4 -15
9 0 4 11 6 25 3 14 -2 22 -8 20 -12 -3 -5 0 -12 6 -16 8 -4 9 -3 5 4 -3 6 2
16 13 21 29 16 38 13 15 -4 -13 -11 -14 -14 -4 -13 16 3 45 36 37 44 -2 2 -15
1 -28 -4 -13 -4 -50 -8 -81 -7 -33 0 -54 -3 -51 -9 4 -5 -1 -7 -10 -3 -10 3
-17 2 -17 -3 0 -5 -7 -7 -15 -4 -12 5 -13 10 -4 20 6 8 9 14 6 14 -3 0 -9 -5
-12 -10z m80 -38 c-3 -3 -11 0 -18 7 -9 10 -8 11 6 5 10 -3 15 -9 12 -12z"/>
<path d="M1561 94 c0 -11 3 -14 6 -6 3 7 2 16 -1 19 -3 4 -6 -2 -5 -13z"/>
<path d="M2403 104 c4 -7 0 -15 -9 -18 -26 -10 -7 -21 36 -21 29 -1 40 4 43
17 3 10 0 21 -5 25 -7 3 -8 1 -4 -6 13 -20 -24 -24 -46 -5 -12 11 -18 14 -15
8z m12 -24 c-3 -5 -12 -10 -18 -10 -7 0 -6 4 3 10 19 12 23 12 15 0z"/>
<path d="M2490 91 c-6 -12 -7 -21 -1 -21 10 0 24 30 17 37 -2 3 -9 -5 -16 -16z"/>
<path d="M2519 105 c0 -5 -2 -18 -4 -28 -3 -14 -1 -16 10 -7 8 7 18 9 23 6 5
-3 9 1 9 9 0 8 -5 11 -10 8 -5 -3 -13 1 -18 8 -5 8 -9 10 -10 4z"/>
<path d="M2570 105 c0 -5 5 -17 10 -25 5 -8 10 -10 10 -5 0 6 -5 17 -10 25 -5
8 -10 11 -10 5z"/>
<path d="M2600 106 c0 -2 8 -10 18 -17 15 -13 16 -12 3 4 -13 16 -21 21 -21
13z"/>
<path d="M1630 90 c0 -5 5 -10 11 -10 5 0 7 5 4 10 -3 6 -8 10 -11 10 -2 0 -4
-4 -4 -10z"/>
<path d="M1674 92 c3 -5 0 -13 -6 -15 -9 -4 -10 -6 -1 -6 17 -1 25 16 12 25
-7 4 -9 3 -5 -4z"/>
<path d="M1300 78 c0 -4 20 -6 45 -5 24 1 42 4 39 7 -8 8 -84 6 -84 -2z"/>
<path d="M1530 79 c0 -5 -4 -7 -10 -4 -5 3 -10 2 -10 -3 0 -6 8 -13 17 -16 10
-4 14 -4 10 0 -4 4 -2 13 4 21 9 9 8 13 0 13 -6 0 -11 -5 -11 -11z"/>
<path d="M1478 73 c7 -3 16 -2 19 1 4 3 -2 6 -13 5 -11 0 -14 -3 -6 -6z"/>
<path d="M1585 70 c-3 -5 -13 -7 -23 -4 -14 5 -15 4 -2 -5 9 -6 18 -7 24 -1
13 13 29 13 21 0 -3 -6 1 -7 10 -3 13 5 14 7 3 14 -17 11 -26 11 -33 -1z"/>
<path d="M2112 61 c-11 -7 -11 -9 2 -14 10 -4 16 -1 16 8 0 17 -1 17 -18 6z"/>
</g>
</svg>
