<?xml version="1.0" encoding="utf-8" standalone="no"?>
<!DOCTYPE svg PUBLIC "-//W3C//DTD SVG 1.1//EN"
  "http://www.w3.org/Graphics/SVG/1.1/DTD/svg11.dtd">
<svg xmlns:xlink="http://www.w3.org/1999/xlink" width="597.6pt" height="417.6pt" viewBox="0 0 597.6 417.6" xmlns="http://www.w3.org/2000/svg" version="1.1">
 <metadata>
  <rdf:RDF xmlns:dc="http://purl.org/dc/elements/1.1/" xmlns:cc="http://creativecommons.org/ns#" xmlns:rdf="http://www.w3.org/1999/02/22-rdf-syntax-ns#">
   <cc:Work>
    <dc:type rdf:resource="http://purl.org/dc/dcmitype/StillImage"/>
    <dc:date>2023-08-25T17:23:15.113888</dc:date>
    <dc:format>image/svg+xml</dc:format>
    <dc:creator>
     <cc:Agent>
      <dc:title>Matplotlib v3.7.2, https://matplotlib.org/</dc:title>
     </cc:Agent>
    </dc:creator>
   </cc:Work>
  </rdf:RDF>
 </metadata>
 <defs>
  <style type="text/css">*{stroke-linejoin: round; stroke-linecap: butt}</style>
 </defs>
 <g id="figure_1">
  <g id="patch_1">
   <path d="M 0 417.6 
L 597.6 417.6 
L 597.6 0 
L 0 0 
z
" style="fill: #0d1117"/>
  </g>
  <g id="axes_1">
   <g id="patch_2">
    <path d="M 46.94 184.156452 
L 584.64 184.156452 
L 584.64 12.96 
L 46.94 12.96 
z
" style="fill: #0d1117"/>
   </g>
   <g id="matplotlib.axis_1">
    <g id="xtick_1">
     <g id="line2d_1"/>
    </g>
    <g id="xtick_2">
     <g id="line2d_2"/>
    </g>
    <g id="xtick_3">
     <g id="line2d_3"/>
    </g>
    <g id="xtick_4">
     <g id="line2d_4"/>
    </g>
    <g id="xtick_5">
     <g id="line2d_5"/>
    </g>
    <g id="xtick_6">
     <g id="line2d_6"/>
    </g>
    <g id="xtick_7">
     <g id="line2d_7"/>
    </g>
    <g id="xtick_8">
     <g id="line2d_8"/>
    </g>
    <g id="xtick_9">
     <g id="line2d_9"/>
    </g>
    <g id="xtick_10">
     <g id="line2d_10"/>
    </g>
    <g id="xtick_11">
     <g id="line2d_11"/>
    </g>
    <g id="xtick_12">
     <g id="line2d_12"/>
    </g>
   </g>
   <g id="matplotlib.axis_2">
    <g id="ytick_1">
     <g id="line2d_13">
      <defs>
       <path id="m28c58fddbe" d="M 0 0 
L -6 0 
" style="stroke: #ffffff; stroke-width: 1.25"/>
      </defs>
      <g>
       <use xlink:href="#m28c58fddbe" x="46.94" y="183.808372" style="fill: #ffffff; stroke: #ffffff; stroke-width: 1.25"/>
      </g>
     </g>
     <g id="text_1">
      <!-- 4500 -->
      <g style="fill: #ffffff" transform="translate(12.971875 187.745169) scale(0.11 -0.11)">
       <defs>
        <path id="ArialMT-34" d="M 2069 0 
L 2069 1097 
L 81 1097 
L 81 1613 
L 2172 4581 
L 2631 4581 
L 2631 1613 
L 3250 1613 
L 3250 1097 
L 2631 1097 
L 2631 0 
L 2069 0 
z
M 2069 1613 
L 2069 3678 
L 634 1613 
L 2069 1613 
z
" transform="scale(0.015625)"/>
        <path id="ArialMT-35" d="M 266 1200 
L 856 1250 
Q 922 819 1161 601 
Q 1400 384 1738 384 
Q 2144 384 2425 690 
Q 2706 997 2706 1503 
Q 2706 1984 2436 2262 
Q 2166 2541 1728 2541 
Q 1456 2541 1237 2417 
Q 1019 2294 894 2097 
L 366 2166 
L 809 4519 
L 3088 4519 
L 3088 3981 
L 1259 3981 
L 1013 2750 
Q 1425 3038 1878 3038 
Q 2478 3038 2890 2622 
Q 3303 2206 3303 1553 
Q 3303 931 2941 478 
Q 2500 -78 1738 -78 
Q 1113 -78 717 272 
Q 322 622 266 1200 
z
" transform="scale(0.015625)"/>
        <path id="ArialMT-30" d="M 266 2259 
Q 266 3072 433 3567 
Q 600 4063 929 4331 
Q 1259 4600 1759 4600 
Q 2128 4600 2406 4451 
Q 2684 4303 2865 4023 
Q 3047 3744 3150 3342 
Q 3253 2941 3253 2259 
Q 3253 1453 3087 958 
Q 2922 463 2592 192 
Q 2263 -78 1759 -78 
Q 1097 -78 719 397 
Q 266 969 266 2259 
z
M 844 2259 
Q 844 1131 1108 757 
Q 1372 384 1759 384 
Q 2147 384 2411 759 
Q 2675 1134 2675 2259 
Q 2675 3391 2411 3762 
Q 2147 4134 1753 4134 
Q 1366 4134 1134 3806 
Q 844 3388 844 2259 
z
" transform="scale(0.015625)"/>
       </defs>
       <use xlink:href="#ArialMT-34"/>
       <use xlink:href="#ArialMT-35" x="55.615234"/>
       <use xlink:href="#ArialMT-30" x="111.230469"/>
       <use xlink:href="#ArialMT-30" x="166.845703"/>
      </g>
     </g>
    </g>
    <g id="ytick_2">
     <g id="line2d_14">
      <g>
       <use xlink:href="#m28c58fddbe" x="46.94" y="154.310052" style="fill: #ffffff; stroke: #ffffff; stroke-width: 1.25"/>
      </g>
     </g>
     <g id="text_2">
      <!-- 4750 -->
      <g style="fill: #ffffff" transform="translate(12.971875 158.246849) scale(0.11 -0.11)">
       <defs>
        <path id="ArialMT-37" d="M 303 3981 
L 303 4522 
L 3269 4522 
L 3269 4084 
Q 2831 3619 2401 2847 
Q 1972 2075 1738 1259 
Q 1569 684 1522 0 
L 944 0 
Q 953 541 1156 1306 
Q 1359 2072 1739 2783 
Q 2119 3494 2547 3981 
L 303 3981 
z
" transform="scale(0.015625)"/>
       </defs>
       <use xlink:href="#ArialMT-34"/>
       <use xlink:href="#ArialMT-37" x="55.615234"/>
       <use xlink:href="#ArialMT-35" x="111.230469"/>
       <use xlink:href="#ArialMT-30" x="166.845703"/>
      </g>
     </g>
    </g>
    <g id="ytick_3">
     <g id="line2d_15">
      <g>
       <use xlink:href="#m28c58fddbe" x="46.94" y="124.811731" style="fill: #ffffff; stroke: #ffffff; stroke-width: 1.25"/>
      </g>
     </g>
     <g id="text_3">
      <!-- 5000 -->
      <g style="fill: #ffffff" transform="translate(12.971875 128.748528) scale(0.11 -0.11)">
       <use xlink:href="#ArialMT-35"/>
       <use xlink:href="#ArialMT-30" x="55.615234"/>
       <use xlink:href="#ArialMT-30" x="111.230469"/>
       <use xlink:href="#ArialMT-30" x="166.845703"/>
      </g>
     </g>
    </g>
    <g id="ytick_4">
     <g id="line2d_16">
      <g>
       <use xlink:href="#m28c58fddbe" x="46.94" y="95.313411" style="fill: #ffffff; stroke: #ffffff; stroke-width: 1.25"/>
      </g>
     </g>
     <g id="text_4">
      <!-- 5250 -->
      <g style="fill: #ffffff" transform="translate(12.971875 99.250208) scale(0.11 -0.11)">
       <defs>
        <path id="ArialMT-32" d="M 3222 541 
L 3222 0 
L 194 0 
Q 188 203 259 391 
Q 375 700 629 1000 
Q 884 1300 1366 1694 
Q 2113 2306 2375 2664 
Q 2638 3022 2638 3341 
Q 2638 3675 2398 3904 
Q 2159 4134 1775 4134 
Q 1369 4134 1125 3890 
Q 881 3647 878 3216 
L 300 3275 
Q 359 3922 746 4261 
Q 1134 4600 1788 4600 
Q 2447 4600 2831 4234 
Q 3216 3869 3216 3328 
Q 3216 3053 3103 2787 
Q 2991 2522 2730 2228 
Q 2469 1934 1863 1422 
Q 1356 997 1212 845 
Q 1069 694 975 541 
L 3222 541 
z
" transform="scale(0.015625)"/>
       </defs>
       <use xlink:href="#ArialMT-35"/>
       <use xlink:href="#ArialMT-32" x="55.615234"/>
       <use xlink:href="#ArialMT-35" x="111.230469"/>
       <use xlink:href="#ArialMT-30" x="166.845703"/>
      </g>
     </g>
    </g>
    <g id="ytick_5">
     <g id="line2d_17">
      <g>
       <use xlink:href="#m28c58fddbe" x="46.94" y="65.815091" style="fill: #ffffff; stroke: #ffffff; stroke-width: 1.25"/>
      </g>
     </g>
     <g id="text_5">
      <!-- 5500 -->
      <g style="fill: #ffffff" transform="translate(12.971875 69.751887) scale(0.11 -0.11)">
       <use xlink:href="#ArialMT-35"/>
       <use xlink:href="#ArialMT-35" x="55.615234"/>
       <use xlink:href="#ArialMT-30" x="111.230469"/>
       <use xlink:href="#ArialMT-30" x="166.845703"/>
      </g>
     </g>
    </g>
    <g id="ytick_6">
     <g id="line2d_18">
      <g>
       <use xlink:href="#m28c58fddbe" x="46.94" y="36.31677" style="fill: #ffffff; stroke: #ffffff; stroke-width: 1.25"/>
      </g>
     </g>
     <g id="text_6">
      <!-- 5750 -->
      <g style="fill: #ffffff" transform="translate(12.971875 40.253567) scale(0.11 -0.11)">
       <use xlink:href="#ArialMT-35"/>
       <use xlink:href="#ArialMT-37" x="55.615234"/>
       <use xlink:href="#ArialMT-35" x="111.230469"/>
       <use xlink:href="#ArialMT-30" x="166.845703"/>
      </g>
     </g>
    </g>
   </g>
   <g id="line2d_19">
    <path d="M 71.380909 83.514083 
L 71.797812 83.750069 
L 72.006263 83.396089 
L 72.423165 85.991942 
L 72.840068 85.047995 
L 73.048519 84.930002 
L 73.25697 85.991942 
L 73.465422 84.930002 
L 73.673873 85.401975 
L 74.299227 84.812009 
L 74.507678 84.458029 
L 74.716129 84.576022 
L 74.92458 82.924116 
L 75.133032 82.924116 
L 75.549934 84.812009 
L 75.758385 82.570137 
L 75.966837 82.924116 
L 76.175288 83.04211 
L 76.383739 82.570137 
L 76.59219 84.104049 
L 77.425995 85.755955 
L 77.634447 87.761841 
L 77.842898 86.699901 
L 78.051349 87.171874 
L 78.676703 88.233814 
L 78.885154 90.357693 
L 79.093605 91.065653 
L 79.302057 91.301639 
L 79.510508 91.065653 
L 80.135862 90.711673 
L 80.344313 90.121707 
L 80.552764 91.183646 
L 80.761215 89.295754 
L 80.969667 89.767727 
L 81.59502 89.059767 
L 81.803472 90.121707 
L 82.011923 90.003713 
L 82.220374 89.17776 
L 82.428825 88.941774 
L 83.054179 88.941774 
L 83.26263 88.705787 
L 83.471082 89.413747 
L 83.887984 88.705787 
L 84.096435 90.357693 
L 84.513338 88.115821 
L 84.721789 88.351807 
L 84.93024 88.351807 
L 85.138692 87.997827 
L 85.347143 88.705787 
L 85.972497 89.649733 
L 86.180948 87.053881 
L 86.389399 86.463915 
L 86.806302 83.868063 
L 87.431655 84.576022 
L 87.640107 85.637962 
L 87.848558 84.694016 
L 88.057009 83.160103 
L 88.890814 83.160103 
L 89.099265 80.210271 
L 89.307717 79.620304 
L 89.516168 77.732412 
L 90.349973 75.49054 
L 90.766875 73.72064 
L 90.975327 73.956627 
L 91.183778 73.366661 
L 91.809132 72.658701 
L 92.017583 71.478768 
L 92.226034 71.478768 
L 92.434485 71.360775 
L 92.642937 72.304721 
L 92.851388 74.07462 
L 93.476742 76.552479 
L 93.685193 76.198499 
L 93.893644 74.900573 
L 94.102095 75.49054 
L 94.727449 75.608533 
L 94.9359 76.906459 
L 95.144352 77.496425 
L 95.561254 77.024452 
L 96.395059 82.216157 
L 96.60351 82.68813 
L 96.811962 83.514083 
L 97.020413 81.154217 
L 97.854218 77.732412 
L 98.062669 77.850405 
L 98.27112 76.316493 
L 98.479572 76.670472 
L 99.104925 75.372546 
L 99.313377 72.422714 
L 99.521828 74.192614 
L 99.730279 72.658701 
L 99.93873 73.012681 
L 100.772535 72.186728 
L 100.980987 70.298835 
L 101.397889 74.192614 
L 102.023243 75.372546 
L 102.231694 74.78258 
L 102.857048 72.068734 
L 103.690853 75.372546 
L 103.899304 75.726526 
L 104.107755 72.658701 
L 104.316207 72.894687 
L 104.94156 73.130674 
L 105.150012 73.484654 
L 105.358463 74.192614 
L 105.566914 73.130674 
L 105.775365 74.07462 
L 106.400719 73.248667 
L 106.60917 72.776694 
L 107.026073 70.652815 
L 107.234524 69.708869 
L 108.068329 68.882916 
L 108.27678 68.292949 
L 108.485232 68.764923 
L 108.693683 68.292949 
L 109.319037 67.58499 
L 110.152842 72.894687 
L 110.778195 71.714755 
L 110.986647 71.596761 
L 111.195098 72.068734 
L 111.403549 71.478768 
L 111.612 70.180842 
L 112.237354 70.534822 
L 112.445805 71.006795 
L 112.654257 69.944855 
L 112.862708 69.826862 
L 113.696513 68.646929 
L 113.904964 69.590876 
L 114.113415 69.354889 
L 114.321867 67.702983 
L 114.530318 68.174956 
L 115.155672 68.292949 
L 115.364123 68.174956 
L 115.781025 68.528936 
L 115.989477 69.708869 
L 116.61483 69.354889 
L 117.031733 69.708869 
L 117.240184 68.292949 
L 117.448635 68.646929 
L 118.073989 69.236896 
L 118.490892 68.292949 
L 118.699343 66.641043 
L 118.907794 66.641043 
L 119.741599 64.517164 
L 120.158502 65.933084 
L 120.366953 64.635158 
L 120.992307 65.343117 
L 121.200758 64.517164 
L 121.409209 64.871144 
L 121.61766 64.045191 
L 121.826112 64.871144 
L 122.451465 64.281178 
L 122.659917 64.399171 
L 123.076819 64.045191 
L 123.28527 61.921312 
L 123.910624 61.213353 
L 124.327527 67.23101 
L 124.535978 66.16907 
L 124.744429 66.16907 
L 125.369783 66.995023 
L 125.578234 66.52305 
L 125.786685 66.52305 
L 125.995137 66.405057 
L 126.203588 67.113017 
L 126.828942 67.23101 
L 127.037393 67.113017 
L 127.454295 66.051077 
L 127.662747 66.405057 
L 128.2881 67.113017 
L 128.496552 66.759037 
L 128.705003 67.466996 
L 128.913454 66.759037 
L 129.121905 66.52305 
L 129.95571 66.52305 
L 130.372613 67.93897 
L 130.581064 67.58499 
L 131.206418 68.410943 
L 131.414869 68.056963 
L 131.831772 65.815091 
L 132.665577 65.815091 
L 132.874028 65.933084 
L 133.499382 63.927198 
L 134.124735 63.573218 
L 134.333187 60.977366 
L 134.750089 61.331346 
L 134.95854 62.039305 
L 135.583894 62.629272 
L 135.792345 60.977366 
L 136.000797 61.803319 
L 136.209248 61.449339 
L 136.417699 63.927198 
L 137.251504 61.213353 
L 137.459955 61.213353 
L 137.668407 59.089473 
L 137.876858 59.915426 
L 138.502212 58.853487 
L 138.919114 60.505393 
L 139.127565 59.797433 
L 139.336017 60.151413 
L 139.96137 60.3874 
L 140.169822 60.623386 
L 140.378273 60.3874 
L 140.795175 60.3874 
L 141.420529 60.151413 
L 141.62898 62.039305 
L 141.837432 61.095359 
L 142.254334 61.095359 
L 142.879688 62.039305 
L 143.29659 63.691211 
L 143.505042 62.511279 
L 143.713493 62.393285 
L 144.338847 62.275292 
L 144.547298 62.393285 
L 144.755749 64.635158 
L 144.9642 61.213353 
L 145.172652 60.505393 
L 146.214908 66.16907 
L 146.423359 64.753151 
L 146.63181 65.225124 
L 147.257164 67.23101 
L 147.882518 66.405057 
L 148.090969 66.759037 
L 148.716323 65.933084 
L 148.924774 65.107131 
L 149.133225 65.343117 
L 149.550128 62.983252 
L 150.175482 61.921312 
L 150.383933 62.393285 
L 150.592384 62.393285 
L 150.800835 60.623386 
L 151.009287 60.623386 
L 151.843092 60.269406 
L 152.051543 59.32546 
L 152.259994 56.729608 
L 152.468445 56.847601 
L 153.510702 55.077702 
L 153.927604 51.77389 
L 154.552958 51.06593 
L 154.96986 49.885997 
L 155.178312 47.054159 
L 155.386763 45.992219 
L 156.012117 46.818172 
L 156.220568 46.464192 
L 156.429019 46.818172 
L 156.63747 46.228206 
L 156.845922 46.700179 
L 157.471275 46.818172 
L 157.679727 47.526132 
L 158.096629 46.464192 
L 158.30508 47.880112 
L 158.930434 49.414024 
L 159.138885 48.942051 
L 159.555788 46.464192 
L 159.764239 47.290145 
L 160.389593 47.408139 
L 160.598044 46.936165 
L 160.806495 46.818172 
L 161.014947 45.28426 
L 161.223398 44.5763 
L 161.848752 44.22232 
L 162.057203 44.340313 
L 162.265654 45.992219 
L 162.474105 45.756233 
L 162.682557 44.104327 
L 163.30791 45.520246 
L 163.724813 44.340313 
L 163.933264 43.042387 
L 164.141715 42.806401 
L 165.183972 44.22232 
L 165.392423 41.626468 
L 165.600874 41.036501 
L 166.64313 45.638239 
L 166.851582 46.110212 
L 167.060033 44.812286 
L 167.685387 45.28426 
L 168.31074 47.054159 
L 168.519192 46.464192 
L 169.144545 46.700179 
L 169.352997 44.812286 
L 169.561448 44.5763 
L 169.769899 42.452421 
L 169.97835 41.626468 
L 170.603704 42.688407 
L 170.812155 40.564528 
L 171.229058 39.148609 
L 171.437509 36.788743 
L 172.062863 37.732689 
L 172.479765 36.552757 
L 172.688217 36.552757 
L 172.896668 35.60881 
L 173.31357 37.142723 
L 173.522022 34.782857 
L 173.938924 36.434763 
L 174.355827 42.806401 
L 174.98118 42.924394 
L 175.189632 44.812286 
L 175.398083 45.402253 
L 175.606534 44.5763 
L 175.814985 45.992219 
L 177.065693 52.12787 
L 177.274144 48.470078 
L 178.107949 45.992219 
L 178.524852 45.992219 
L 178.733303 46.700179 
L 179.358657 46.700179 
L 179.567108 43.16038 
L 179.775559 43.278374 
L 179.98401 42.334427 
L 180.192462 43.750347 
L 180.817815 44.812286 
L 181.026267 44.5763 
L 181.234718 44.694293 
L 181.443169 44.22232 
L 181.65162 44.340313 
L 182.276974 44.22232 
L 182.693877 46.346199 
L 182.902328 45.28426 
L 183.736133 45.28426 
L 183.944584 44.812286 
L 184.153035 46.346199 
L 184.361487 46.582186 
L 184.569938 46.464192 
L 185.195292 47.290145 
L 185.403743 47.880112 
L 185.612194 47.408139 
L 185.820645 45.874226 
L 186.65445 43.632354 
L 187.071353 45.402253 
L 187.488255 43.042387 
L 188.530512 44.812286 
L 188.738963 44.340313 
L 188.947414 44.812286 
L 189.572768 42.806401 
L 189.781219 42.806401 
L 189.98967 43.16038 
L 190.198122 42.452421 
L 190.406573 43.632354 
L 191.031927 44.104327 
L 191.240378 43.86834 
L 191.448829 44.458307 
L 191.65728 44.5763 
L 191.865732 44.93028 
L 192.491085 43.16038 
L 192.699537 43.51436 
L 193.116439 42.924394 
L 193.32489 43.632354 
L 193.950244 41.626468 
L 194.158695 40.210548 
L 194.784049 41.862454 
L 195.409403 40.682522 
L 195.617854 40.918508 
L 195.826305 40.800515 
L 196.034757 40.328542 
L 196.243208 39.384595 
L 196.868562 40.210548 
L 197.077013 39.030616 
L 197.285464 39.030616 
L 197.493915 38.204663 
L 197.702367 37.968676 
L 198.32772 37.850683 
L 198.536172 37.142723 
L 198.744623 37.260716 
L 199.161525 36.434763 
L 199.786879 37.968676 
L 199.99533 39.266602 
L 200.203782 37.142723 
L 200.412233 36.788743 
L 200.620684 37.850683 
L 201.454489 38.676636 
L 201.66294 38.558642 
L 201.871392 37.496703 
L 202.079843 37.496703 
L 202.705197 38.086669 
L 203.122099 37.142723 
L 203.33055 34.900851 
L 203.539002 34.546871 
L 204.164355 32.894965 
L 204.372807 33.248945 
L 204.581258 34.192891 
L 204.789709 32.069012 
L 204.99816 31.715032 
L 205.623514 31.951019 
L 205.831965 32.304999 
L 206.248868 30.535099 
L 206.457319 29.709146 
L 207.082673 29.82714 
L 207.499575 27.939247 
L 207.708027 28.41122 
L 207.916478 27.821254 
L 208.541832 28.41122 
L 208.958734 27.939247 
L 209.167186 28.293227 
L 209.375637 27.585267 
L 210.000991 28.05724 
L 210.209442 28.41122 
L 210.417893 29.591153 
L 210.834796 30.299113 
L 211.668601 29.47316 
L 211.877052 30.063126 
L 212.085503 29.355166 
L 213.336211 29.945133 
L 213.544662 29.47316 
L 213.753113 30.181119 
L 214.378467 30.535099 
L 214.586918 31.833025 
L 214.795369 31.597039 
L 215.003821 30.299113 
L 215.212272 30.653093 
L 215.837626 31.361052 
L 216.046077 30.889079 
L 216.254528 32.069012 
L 216.462979 32.304999 
L 216.671431 32.187005 
L 217.296784 32.069012 
L 217.505236 31.597039 
L 217.713687 32.187005 
L 217.922138 33.248945 
L 218.130589 33.720918 
L 218.755943 32.894965 
L 218.964394 32.304999 
L 219.172846 31.007072 
L 219.381297 30.889079 
L 219.589748 30.535099 
L 220.423553 31.243059 
L 220.840456 29.591153 
L 221.048907 31.007072 
L 221.465809 37.496703 
L 221.674261 35.018844 
L 222.299614 33.130951 
L 222.508066 32.069012 
L 223.133419 34.900851 
L 223.550322 34.192891 
L 223.758773 34.310884 
L 223.967224 33.838911 
L 224.592578 33.720918 
L 224.801029 33.366938 
L 225.009481 33.838911 
L 225.217932 33.602925 
L 225.426383 34.192891 
L 226.051737 34.074898 
L 226.260188 35.490817 
L 226.468639 34.546871 
L 226.677091 35.254831 
L 226.885542 36.788743 
L 227.510896 36.552757 
L 227.719347 36.67075 
L 227.927798 37.02473 
L 228.136249 38.086669 
L 228.344701 39.856569 
L 229.386957 40.918508 
L 229.595408 41.626468 
L 229.803859 41.508474 
L 230.012311 45.166266 
L 230.429213 42.334427 
L 230.846116 43.632354 
L 231.054567 44.340313 
L 231.263018 46.818172 
L 231.888372 47.172152 
L 232.096823 46.346199 
L 232.305274 47.644125 
L 232.722177 46.700179 
L 233.347531 47.054159 
L 233.555982 47.644125 
L 233.764433 47.408139 
L 234.181336 47.644125 
L 234.806689 47.762118 
L 235.015141 46.228206 
L 235.223592 46.700179 
L 235.640494 44.340313 
L 236.474299 43.16038 
L 236.682751 43.632354 
L 236.891202 42.688407 
L 237.099653 43.042387 
L 237.725007 41.980448 
L 237.933458 42.216434 
L 238.141909 41.980448 
L 238.558812 43.16038 
L 239.184166 45.048273 
L 239.392617 44.104327 
L 239.601068 44.812286 
L 240.017971 44.93028 
L 240.643324 45.166266 
L 240.851776 44.458307 
L 241.060227 44.812286 
L 241.268678 43.278374 
L 241.477129 43.750347 
L 242.102483 44.340313 
L 242.310934 41.862454 
L 242.519386 41.036501 
L 242.936288 37.614696 
L 243.561642 37.142723 
L 243.770093 37.732689 
L 244.395447 33.484931 
L 245.020801 34.782857 
L 245.229252 33.366938 
L 245.437703 33.366938 
L 245.646154 32.894965 
L 245.854606 34.900851 
L 246.688411 39.148609 
L 246.896862 42.098441 
L 247.105313 42.570414 
L 247.313764 42.216434 
L 247.939118 43.51436 
L 248.147569 42.216434 
L 248.564472 42.452421 
L 248.772923 41.980448 
L 249.398277 44.458307 
L 249.606728 44.458307 
L 250.023631 42.688407 
L 250.232082 37.614696 
L 250.857436 36.31677 
L 251.065887 37.02473 
L 251.274338 35.726804 
L 251.691241 32.422992 
L 252.316594 32.540985 
L 252.525046 30.063126 
L 252.733497 30.299113 
L 253.150399 29.237173 
L 253.775753 30.535099 
L 253.984204 29.47316 
L 254.192656 29.11918 
L 254.609558 34.074898 
L 255.234912 33.130951 
L 255.443363 33.602925 
L 255.651814 34.428878 
L 256.068717 32.304999 
L 256.902522 35.490817 
L 257.110973 34.192891 
L 257.319424 34.074898 
L 257.527876 35.018844 
L 258.153229 34.546871 
L 258.570132 33.956904 
L 258.778583 32.422992 
L 260.029291 35.96279 
L 260.237742 34.310884 
L 260.446193 33.602925 
L 261.071547 35.254831 
L 261.279998 36.552757 
L 261.488449 36.67075 
L 261.696901 35.96279 
L 261.905352 36.552757 
L 262.530706 38.794629 
L 262.739157 40.918508 
L 262.947608 41.154495 
L 263.156059 40.210548 
L 263.364511 38.204663 
L 264.406767 39.856569 
L 264.823669 38.558642 
L 265.449023 39.030616 
L 265.657474 38.676636 
L 265.865926 37.968676 
L 266.074377 37.968676 
L 266.282828 38.558642 
L 267.116633 37.37871 
L 267.325084 38.086669 
L 267.741987 36.31677 
L 268.367341 35.96279 
L 268.575792 37.37871 
L 268.784243 37.37871 
L 268.992694 37.968676 
L 269.201146 36.906737 
L 269.826499 37.02473 
L 270.034951 38.204663 
L 270.243402 38.676636 
L 270.660304 39.148609 
L 271.285658 39.620582 
L 271.494109 40.800515 
L 271.702561 41.036501 
L 271.911012 40.918508 
L 272.119463 40.328542 
L 272.744817 39.738575 
L 272.953268 37.732689 
L 273.161719 37.850683 
L 273.370171 31.479046 
L 273.578622 20.741657 
L 273.787073 22.629549 
L 274.203976 21.331623 
L 274.412427 21.803596 
L 275.037781 24.399449 
L 275.663134 24.635435 
L 275.871586 24.281455 
L 276.080037 24.281455 
L 276.288488 25.343395 
L 276.496939 25.815368 
L 277.122293 25.579381 
L 277.330744 25.815368 
L 277.539196 26.523328 
L 277.747647 26.287341 
L 277.956098 27.349281 
L 278.581452 28.883193 
L 278.789903 28.293227 
L 278.998354 30.299113 
L 279.206806 30.063126 
L 279.415257 32.776972 
L 280.040611 33.956904 
L 280.457513 35.372824 
L 280.665964 33.484931 
L 280.874416 35.136837 
L 281.499769 35.136837 
L 281.916672 35.490817 
L 282.125123 35.254831 
L 282.333574 34.782857 
L 282.958928 35.254831 
L 283.167379 35.726804 
L 283.375831 37.496703 
L 283.584282 38.204663 
L 283.792733 38.322656 
L 284.418087 39.738575 
L 284.626538 39.030616 
L 284.834989 39.620582 
L 285.043441 39.266602 
L 285.251892 38.204663 
L 285.877246 39.148609 
L 286.085697 37.850683 
L 286.294148 38.912622 
L 286.502599 36.906737 
L 287.336404 34.782857 
L 287.544856 36.080784 
L 287.753307 35.96279 
L 287.961758 36.552757 
L 288.170209 36.31677 
L 289.004014 38.440649 
L 289.212466 38.322656 
L 289.420917 38.440649 
L 289.629368 37.968676 
L 290.254722 39.620582 
L 290.463173 39.856569 
L 290.671624 41.154495 
L 290.880076 41.154495 
L 291.088527 41.508474 
L 291.713881 41.272488 
L 291.922332 40.800515 
L 292.130783 42.216434 
L 292.547686 40.446535 
L 293.173039 40.210548 
L 293.589942 41.508474 
L 294.006844 39.266602 
L 294.632198 39.384595 
L 295.049101 43.632354 
L 295.257552 43.278374 
L 295.466003 43.278374 
L 296.091357 43.750347 
L 296.299808 43.750347 
L 296.508259 43.042387 
L 296.925162 40.446535 
L 297.550516 41.390481 
L 297.758967 40.800515 
L 299.009674 43.750347 
L 299.218126 42.334427 
L 299.843479 43.042387 
L 300.468833 44.340313 
L 300.677284 43.86834 
L 300.885736 45.048273 
L 301.302638 42.806401 
L 301.927992 43.16038 
L 302.136443 44.104327 
L 302.761797 43.86834 
L 303.387151 42.924394 
L 303.804053 44.458307 
L 304.012504 43.16038 
L 304.220956 42.688407 
L 304.846309 42.452421 
L 305.054761 42.924394 
L 305.263212 43.042387 
L 305.680114 42.098441 
L 306.305468 43.986333 
L 306.513919 43.632354 
L 306.722371 44.340313 
L 306.930822 42.452421 
L 307.139273 42.098441 
L 307.764627 42.806401 
L 307.973078 43.278374 
L 308.181529 45.520246 
L 308.389981 44.5763 
L 308.598432 45.048273 
L 309.223786 44.694293 
L 309.432237 45.638239 
L 309.640688 45.28426 
L 310.057591 44.104327 
L 310.682944 44.5763 
L 311.099847 46.228206 
L 311.308298 44.458307 
L 311.516749 47.644125 
L 312.142103 49.768004 
L 312.559006 52.599843 
L 312.767457 51.301917 
L 312.975908 52.953823 
L 313.601262 53.779776 
L 314.018164 55.549675 
L 314.435067 55.077702 
L 315.060421 56.611615 
L 315.268872 57.437568 
L 315.685774 61.567332 
L 315.894226 62.629272 
L 316.519579 65.225124 
L 317.353384 74.900573 
L 317.978738 78.440372 
L 318.187189 81.744184 
L 318.395641 83.278096 
L 318.812543 89.17776 
L 319.437897 91.065653 
L 319.646348 93.779498 
L 319.854799 94.487458 
L 320.271702 96.965317 
L 321.313958 102.157021 
L 321.522409 102.511001 
L 321.730861 103.336954 
L 322.356214 103.218961 
L 322.564666 101.685048 
L 322.981568 103.100968 
L 323.190019 102.511001 
L 323.815373 103.572941 
L 324.232276 106.404779 
L 324.440727 104.162907 
L 325.899886 110.888524 
L 326.108337 113.012403 
L 326.942142 117.024175 
L 327.150593 116.434208 
L 327.359044 117.732134 
L 327.567496 120.327987 
L 328.401301 122.097886 
L 328.609752 123.395812 
L 329.026654 126.699624 
L 329.860459 128.469523 
L 330.277362 131.301362 
L 330.485813 128.35153 
L 331.319618 129.649456 
L 331.736521 130.593402 
L 331.944972 129.885442 
L 332.570326 130.357416 
L 332.778777 128.587516 
L 333.195679 130.711395 
L 333.404131 130.121429 
L 334.029484 130.357416 
L 334.237936 132.009322 
L 334.446387 132.599288 
L 334.654838 131.655342 
L 334.863289 133.189254 
L 335.697094 132.717281 
L 335.905546 133.779221 
L 336.113997 133.661227 
L 336.322448 135.313133 
L 336.947802 136.493066 
L 337.156253 135.667113 
L 337.364704 136.139086 
L 337.573156 137.908986 
L 337.781607 138.144972 
L 338.406961 139.442898 
L 338.615412 138.734939 
L 338.823863 140.386845 
L 339.032314 140.150858 
L 339.240766 138.616945 
L 340.074571 142.982697 
L 340.283022 144.16263 
L 340.491473 144.634603 
L 340.699924 143.80865 
L 341.325278 146.994468 
L 341.950632 148.174401 
L 342.159083 146.404502 
L 342.992888 147.230455 
L 343.201339 148.056408 
L 343.409791 147.112462 
L 343.618242 147.466441 
L 344.243596 147.820421 
L 344.452047 147.702428 
L 344.868949 149.000354 
L 345.077401 148.174401 
L 345.702754 148.764368 
L 346.119657 151.478213 
L 346.328108 150.534267 
L 346.536559 148.646374 
L 347.161913 148.646374 
L 347.370364 149.59032 
L 347.578816 149.9443 
L 347.787267 149.354334 
L 347.995718 150.062294 
L 348.621072 151.7142 
L 349.246426 157.141891 
L 349.454877 163.631521 
L 349.663328 176.374795 
L 350.288682 174.486903 
L 350.497133 174.486903 
L 350.914036 170.711118 
L 351.539389 170.947104 
L 351.747841 170.593125 
L 351.956292 171.537071 
L 352.373194 170.711118 
L 352.998548 170.475131 
L 353.206999 170.121151 
L 353.415451 170.475131 
L 353.832353 168.587239 
L 354.457707 169.413192 
L 354.666158 168.351252 
L 354.874609 168.705232 
L 355.083061 166.935333 
L 355.291512 167.289313 
L 355.916866 167.289313 
L 356.125317 165.873393 
L 356.333768 167.171319 
L 356.542219 166.699346 
L 356.750671 168.351252 
L 357.167573 170.239145 
L 357.376024 167.997272 
L 357.584476 169.059212 
L 357.792927 169.177205 
L 358.001378 167.407306 
L 358.209829 167.761286 
L 358.835183 167.761286 
L 359.043634 169.177205 
L 359.252086 169.413192 
L 359.460537 166.935333 
L 359.668988 167.761286 
L 360.294342 167.525299 
L 360.502793 167.997272 
L 360.711244 167.997272 
L 360.919696 168.705232 
L 361.128147 168.469246 
L 361.961952 170.947104 
L 362.170403 171.773057 
L 362.378854 170.003158 
L 362.587306 171.183091 
L 362.795757 171.065098 
L 363.838013 168.233259 
L 364.046464 168.705232 
L 364.671818 170.475131 
L 364.880269 167.997272 
L 365.297172 168.941219 
L 365.505623 168.233259 
L 366.130977 169.059212 
L 366.339428 168.233259 
L 366.547879 168.469246 
L 366.964782 165.40142 
L 367.590136 166.581353 
L 368.007038 168.587239 
L 368.423941 165.7554 
L 369.466197 166.227373 
L 369.674648 165.7554 
L 369.883099 164.457474 
L 370.508453 166.227373 
L 370.925356 165.991387 
L 371.133807 163.277541 
L 371.342258 164.339481 
L 371.967612 164.811454 
L 372.176063 165.991387 
L 372.384514 166.345366 
L 372.592966 166.227373 
L 372.801417 167.053326 
L 373.426771 168.941219 
L 373.635222 168.351252 
L 374.052124 164.339481 
L 374.885929 165.165434 
L 375.094381 164.339481 
L 375.302832 164.339481 
L 375.511283 162.569581 
L 375.719734 163.277541 
L 376.345088 162.687575 
L 376.553539 161.153662 
L 376.761991 160.799682 
L 376.970442 159.383763 
L 377.178893 160.091723 
L 378.012698 161.625635 
L 378.221149 161.271655 
L 378.429601 159.383763 
L 378.638052 160.563696 
L 379.471857 159.029783 
L 379.680308 159.737743 
L 379.888759 157.259884 
L 380.722564 156.905904 
L 380.931016 157.141891 
L 381.139467 157.967843 
L 381.347918 157.377877 
L 381.556369 158.675803 
L 382.181723 157.613864 
L 382.390174 157.613864 
L 382.598626 158.793796 
L 382.807077 157.141891 
L 383.015528 157.141891 
L 383.640882 156.551924 
L 383.849333 155.018011 
L 384.057784 154.546038 
L 384.266236 152.304166 
L 384.474687 151.832193 
L 385.100041 152.068179 
L 385.308492 153.484099 
L 385.516943 152.068179 
L 385.725394 151.950186 
L 385.933846 151.36022 
L 386.559199 153.012126 
L 386.767651 152.422159 
L 386.976102 151.36022 
L 387.184553 151.478213 
L 387.393004 152.540153 
L 388.018358 151.7142 
L 388.226809 150.888247 
L 388.435261 149.354334 
L 388.643712 148.646374 
L 388.852163 148.646374 
L 389.477517 148.528381 
L 389.685968 147.820421 
L 389.894419 148.174401 
L 390.102871 147.230455 
L 390.311322 145.578549 
L 390.936676 144.752596 
L 391.770481 136.847046 
L 392.395834 135.431127 
L 392.604286 133.425241 
L 393.229639 124.575745 
L 393.854993 123.631799 
L 394.688798 115.372269 
L 395.314152 116.316215 
L 395.731054 112.068457 
L 395.939506 111.360497 
L 396.147957 109.472605 
L 396.773311 109.826585 
L 396.981762 107.938692 
L 397.190213 107.230732 
L 397.398664 106.994746 
L 397.607116 106.0508 
L 398.440921 104.870867 
L 398.649372 103.808927 
L 399.066274 99.679162 
L 399.691628 99.679162 
L 399.900079 100.151135 
L 400.108531 97.79127 
L 401.150787 93.897492 
L 401.567689 91.301639 
L 401.776141 91.065653 
L 401.984592 89.649733 
L 402.609946 87.761841 
L 403.026848 83.04211 
L 403.443751 85.637962 
L 403.860653 87.171874 
L 404.694458 80.800237 
L 404.902909 77.732412 
L 405.111361 79.266325 
L 405.945166 77.732412 
L 406.362068 74.192614 
L 406.987422 74.4286 
L 407.195873 71.832748 
L 407.404324 71.006795 
L 407.612776 70.888802 
L 407.821227 70.180842 
L 408.655032 72.540708 
L 408.863483 69.590876 
L 409.071934 69.826862 
L 409.280386 69.118902 
L 409.905739 71.006795 
L 410.114191 70.652815 
L 410.322642 70.534822 
L 410.531093 70.180842 
L 410.739544 70.652815 
L 411.364898 70.534822 
L 411.573349 71.478768 
L 411.781801 69.590876 
L 412.198703 68.528936 
L 412.824057 68.528936 
L 413.240959 69.000909 
L 413.449411 67.23101 
L 413.657862 67.113017 
L 414.283216 67.702983 
L 414.491667 65.579104 
L 414.700118 64.989138 
L 414.908569 62.983252 
L 415.117021 63.219238 
L 415.742374 66.287064 
L 415.950826 64.163185 
L 416.159277 63.219238 
L 416.576179 59.797433 
L 417.201533 59.443453 
L 417.409984 56.021648 
L 417.618436 55.903655 
L 417.826887 59.089473 
L 418.035338 57.437568 
L 418.660692 57.555561 
L 418.869143 58.145527 
L 419.286046 57.555561 
L 419.494497 56.139641 
L 420.328302 54.723722 
L 420.536753 54.487735 
L 420.745204 53.779776 
L 420.953656 53.661783 
L 421.579009 53.661783 
L 421.787461 54.015762 
L 421.995912 52.599843 
L 422.204363 52.12787 
L 422.412814 53.425796 
L 423.038168 54.015762 
L 423.455071 53.189809 
L 423.663522 52.363856 
L 423.871973 53.307803 
L 424.497327 53.189809 
L 424.91423 50.121984 
L 425.122681 50.475964 
L 425.331132 51.06593 
L 425.956486 52.245863 
L 426.164937 51.537903 
L 426.373388 51.655897 
L 426.58184 51.183924 
L 427.415645 54.251749 
L 427.624096 53.897769 
L 427.832547 54.605729 
L 428.040998 53.661783 
L 428.24945 53.661783 
L 428.874803 54.487735 
L 429.083255 53.307803 
L 429.291706 53.779776 
L 429.500157 53.071816 
L 429.708608 53.071816 
L 430.333962 53.661783 
L 430.750865 51.537903 
L 430.959316 50.947937 
L 431.167767 49.885997 
L 431.793121 50.003991 
L 432.001572 49.178038 
L 432.210023 49.650011 
L 432.418475 49.296031 
L 432.626926 48.470078 
L 433.25228 47.880112 
L 433.460731 46.936165 
L 433.669182 46.582186 
L 433.877633 42.688407 
L 434.086085 43.632354 
L 434.711438 44.22232 
L 434.91989 43.986333 
L 435.336792 40.918508 
L 435.753695 43.750347 
L 436.170597 41.390481 
L 436.379048 40.918508 
L 436.5875 38.676636 
L 436.795951 39.384595 
L 437.004402 39.030616 
L 437.629756 39.148609 
L 437.838207 36.906737 
L 438.046658 36.198777 
L 438.25511 36.31677 
L 438.463561 36.67075 
L 439.297366 40.564528 
L 439.714268 39.502589 
L 439.92272 40.328542 
L 440.548073 39.502589 
L 440.756525 35.372824 
L 440.964976 35.018844 
L 441.173427 34.900851 
L 441.381878 36.552757 
L 442.007232 37.496703 
L 442.215683 36.906737 
L 442.424135 35.96279 
L 442.632586 34.074898 
L 442.841037 35.490817 
L 443.466391 37.260716 
L 443.674842 35.96279 
L 443.883293 35.60881 
L 444.091745 34.900851 
L 444.300196 35.726804 
L 444.92555 37.37871 
L 445.342452 37.732689 
L 445.550903 36.67075 
L 445.759355 35.018844 
L 446.384708 35.372824 
L 446.59316 35.018844 
L 447.010062 33.602925 
L 447.218513 34.546871 
L 447.843867 34.546871 
L 448.052318 33.956904 
L 448.26077 34.428878 
L 448.469221 33.602925 
L 448.677672 33.720918 
L 448.886123 37.968676 
L 449.094575 37.850683 
L 449.303026 33.838911 
L 449.511477 33.602925 
L 449.719928 33.956904 
L 449.92838 33.248945 
L 450.136831 33.130951 
L 450.762185 30.181119 
L 450.970636 28.529214 
L 451.179087 31.125066 
L 451.387538 31.361052 
L 451.59599 32.069012 
L 451.804441 32.187005 
L 452.429795 30.535099 
L 452.638246 30.653093 
L 453.055148 33.484931 
L 453.680502 33.484931 
L 453.888953 34.782857 
L 454.097405 34.428878 
L 454.305856 35.490817 
L 454.514307 37.37871 
L 455.139661 33.602925 
L 455.348112 33.366938 
L 455.556563 34.664864 
L 455.765015 34.310884 
L 455.973466 35.726804 
L 456.59882 37.02473 
L 456.807271 37.02473 
L 457.015722 37.614696 
L 457.224173 36.67075 
L 457.432625 37.02473 
L 458.057978 35.372824 
L 458.474881 35.726804 
L 458.683332 35.372824 
L 458.891783 37.02473 
L 459.517137 39.148609 
L 460.142491 42.452421 
L 460.350942 42.688407 
L 460.976296 40.328542 
L 461.184747 40.446535 
L 461.393198 39.856569 
L 461.60165 41.036501 
L 461.810101 39.738575 
L 462.435455 40.682522 
L 462.643906 39.502589 
L 462.852357 39.974562 
L 463.060808 39.856569 
L 463.26926 38.912622 
L 464.311516 41.508474 
L 464.519967 41.744461 
L 464.728418 39.974562 
L 465.353772 41.154495 
L 465.562223 41.154495 
L 465.770675 41.272488 
L 466.812931 44.458307 
L 467.021382 45.992219 
L 467.229833 46.346199 
L 467.438285 47.408139 
L 467.646736 47.644125 
L 468.480541 45.992219 
L 468.688992 46.464192 
L 469.314346 53.661783 
L 469.9397 50.357971 
L 470.356602 51.301917 
L 470.565053 50.239977 
L 471.190407 50.475964 
L 471.398858 47.054159 
L 471.60731 48.942051 
L 472.024212 49.060045 
L 472.649566 50.121984 
L 472.858017 49.060045 
L 473.066468 48.942051 
L 473.27492 49.060045 
L 473.483371 48.942051 
L 474.108725 51.301917 
L 474.317176 50.357971 
L 474.525627 51.41991 
L 474.734078 51.41991 
L 474.94253 52.48185 
L 475.776335 54.487735 
L 475.984786 53.897769 
L 476.193237 56.139641 
L 476.401688 55.195695 
L 477.027042 55.785662 
L 477.235493 55.195695 
L 477.443945 55.431682 
L 477.652396 55.903655 
L 477.860847 55.785662 
L 478.486201 54.605729 
L 478.694652 55.313688 
L 479.111555 58.853487 
L 479.320006 55.431682 
L 479.94536 54.605729 
L 480.153811 54.133756 
L 480.570713 56.847601 
L 480.779165 56.965594 
L 481.404518 56.493621 
L 481.61297 52.717836 
L 481.821421 53.189809 
L 482.238323 57.437568 
L 482.863677 58.145527 
L 483.072128 59.443453 
L 483.28058 58.499507 
L 483.489031 59.797433 
L 483.697482 59.67944 
L 484.531287 62.393285 
L 484.739738 62.275292 
L 484.94819 64.635158 
L 485.156641 63.691211 
L 485.573543 66.87703 
L 485.781995 62.983252 
L 486.407348 59.561447 
L 486.6158 59.797433 
L 487.241153 59.67944 
L 487.658056 58.853487 
L 487.866507 60.623386 
L 488.074958 58.735494 
L 488.700312 57.673554 
L 488.908763 56.847601 
L 489.117215 56.965594 
L 489.325666 57.319574 
L 489.534117 56.965594 
L 490.367922 54.369742 
L 490.576373 56.021648 
L 490.784825 55.903655 
L 490.993276 54.723722 
L 491.61863 53.071816 
L 491.827081 50.71195 
L 492.035532 51.655897 
L 492.243983 51.655897 
L 492.452435 52.12787 
L 493.077788 51.183924 
L 493.28624 51.655897 
L 493.494691 53.307803 
L 493.911593 53.189809 
L 494.536947 54.251749 
L 494.745398 56.021648 
L 494.95385 53.779776 
L 495.162301 54.959709 
L 495.370752 54.841715 
L 495.579203 58.26352 
L 495.996106 55.903655 
L 496.204557 57.555561 
L 496.413008 57.909541 
L 496.62146 58.6175 
L 496.829911 58.145527 
L 497.663716 57.673554 
L 498.080618 58.6175 
L 498.28907 59.089473 
L 499.122875 59.443453 
L 499.331326 58.853487 
L 499.748228 59.915426 
L 500.373582 58.6175 
L 500.582033 58.6175 
L 500.998936 60.269406 
L 501.207387 60.151413 
L 501.832741 59.561447 
L 502.041192 57.201581 
L 502.249643 56.257635 
L 502.458095 56.021648 
L 503.2919 56.847601 
L 503.500351 55.903655 
L 503.708802 56.257635 
L 504.125705 55.195695 
L 504.751058 55.195695 
L 504.95951 55.431682 
L 505.167961 57.083588 
L 505.376412 57.791547 
L 505.584863 57.437568 
L 506.210217 57.437568 
L 506.62712 58.6175 
L 506.835571 60.151413 
L 507.044022 60.269406 
L 507.669376 61.213353 
L 507.877827 60.269406 
L 508.086278 60.741379 
L 508.29473 62.039305 
L 508.503181 60.269406 
L 509.128535 60.977366 
L 509.336986 60.977366 
L 509.545437 62.511279 
L 509.753888 62.511279 
L 509.96234 65.107131 
L 510.587693 65.815091 
L 510.796145 65.697097 
L 511.421498 68.174956 
L 512.046852 68.528936 
L 512.463755 69.236896 
L 512.880657 71.006795 
L 513.714462 69.590876 
L 514.131365 71.832748 
L 514.339816 70.888802 
L 514.96517 72.776694 
L 515.382072 71.596761 
L 515.590523 72.776694 
L 515.798975 71.478768 
L 516.63278 70.298835 
L 516.841231 74.546593 
L 517.049682 75.254553 
L 517.883487 74.07462 
L 518.091938 74.4286 
L 518.717292 77.614419 
L 519.342646 77.260439 
L 519.551097 76.788466 
L 519.968 78.912345 
L 520.176451 78.086392 
L 520.801805 77.024452 
L 521.010256 75.372546 
L 521.218707 75.372546 
L 521.427158 77.260439 
L 521.63561 77.496425 
L 522.260963 79.148331 
L 522.469415 80.564251 
L 522.677866 79.266325 
L 522.886317 80.918231 
L 523.094768 79.974284 
L 523.720122 80.328264 
L 524.137025 81.744184 
L 524.345476 81.390204 
L 524.553927 81.98017 
L 525.179281 82.806123 
L 525.387732 82.570137 
L 525.596183 83.160103 
L 526.013086 86.699901 
L 526.63844 87.289868 
L 526.846891 85.755955 
L 527.055342 86.817895 
L 527.472245 85.165989 
L 528.097598 85.755955 
L 528.30605 85.165989 
L 528.722952 87.407861 
L 528.931403 86.699901 
L 529.556757 86.581908 
L 529.765208 87.761841 
L 529.97366 86.581908 
L 530.182111 86.817895 
L 530.390562 85.165989 
L 531.015916 84.812009 
L 531.224367 88.941774 
L 531.432818 89.767727 
L 531.64127 89.88572 
L 531.849721 90.2397 
L 532.475075 90.829666 
L 532.683526 90.2397 
L 532.891977 90.94766 
L 533.100428 90.357693 
L 533.30888 88.705787 
L 533.934233 88.115821 
L 534.142685 88.587794 
L 534.351136 88.705787 
L 534.559587 85.873948 
L 534.768038 86.227928 
L 535.393392 86.345922 
L 535.601843 85.401975 
L 535.810295 85.401975 
L 536.018746 85.755955 
L 536.227197 85.165989 
L 536.852551 86.227928 
L 537.061002 87.997827 
L 537.269453 88.469801 
L 537.477905 87.879834 
L 537.686356 87.761841 
L 538.31171 89.295754 
L 538.728612 91.065653 
L 538.937063 90.94766 
L 539.145515 92.363579 
L 539.770868 92.481572 
L 539.97932 91.891606 
L 540.187771 90.711673 
L 540.396222 92.009599 
L 540.604673 92.127592 
L 541.230027 94.605451 
L 541.438478 94.841438 
L 541.855381 96.72933 
L 542.063832 95.431404 
L 542.689186 96.139364 
L 542.897637 95.667391 
L 543.106088 94.251471 
L 543.31454 94.605451 
L 543.522991 93.661505 
L 544.148345 94.605451 
L 544.565247 96.021371 
L 544.773698 96.021371 
L 544.98215 94.369465 
L 545.607503 93.189532 
L 546.024406 91.537626 
L 546.232857 91.183646 
L 546.441308 91.419633 
L 547.066662 92.835552 
L 547.275113 92.717559 
L 547.483565 94.251471 
L 547.692016 94.723445 
L 547.900467 93.543512 
L 548.525821 96.021371 
L 548.734272 96.021371 
L 548.942723 96.37535 
L 549.359626 93.189532 
L 549.98498 93.543512 
L 550.193431 90.94766 
L 550.401882 92.009599 
L 550.610333 91.537626 
L 550.818785 90.59368 
L 551.444138 91.065653 
L 551.65259 90.711673 
L 551.861041 89.53174 
L 552.277943 85.637962 
L 553.111748 87.525854 
L 553.528651 89.53174 
L 553.737102 87.997827 
L 554.362456 89.059767 
L 554.779358 92.717559 
L 554.98781 93.189532 
L 555.196261 91.773612 
L 556.030066 94.015485 
L 556.238517 93.071539 
L 556.65542 96.965317 
L 557.280773 98.263243 
L 557.697676 100.387122 
L 557.906127 100.741102 
L 558.114578 97.43729 
L 558.948383 99.207189 
L 559.156835 97.43729 
L 559.365286 97.909263 
L 559.573737 97.319297 
L 560.199091 97.673277 
L 560.199091 97.673277 
" clip-path="url(#pb47f0d2709)" style="fill: none; stroke: #8dd3c7; stroke-width: 1.5; stroke-linecap: round"/>
   </g>
   <g id="patch_3">
    <path d="M 46.94 184.156452 
L 46.94 12.96 
" style="fill: none; stroke: #ffffff; stroke-width: 1.25; stroke-linejoin: miter; stroke-linecap: square"/>
   </g>
   <g id="patch_4">
    <path d="M 584.64 184.156452 
L 584.64 12.96 
" style="fill: none; stroke: #ffffff; stroke-width: 1.25; stroke-linejoin: miter; stroke-linecap: square"/>
   </g>
   <g id="patch_5">
    <path d="M 46.94 184.156452 
L 584.64 184.156452 
" style="fill: none; stroke: #ffffff; stroke-width: 1.25; stroke-linejoin: miter; stroke-linecap: square"/>
   </g>
   <g id="patch_6">
    <path d="M 46.94 12.96 
L 584.64 12.96 
" style="fill: none; stroke: #ffffff; stroke-width: 1.25; stroke-linejoin: miter; stroke-linecap: square"/>
   </g>
   <g id="legend_1">
    <g id="patch_7">
     <path d="M 54.64 178.656452 
L 288.745781 178.656452 
Q 290.945781 178.656452 290.945781 176.456452 
L 290.945781 161.73364 
Q 290.945781 159.53364 288.745781 159.53364 
L 54.64 159.53364 
Q 52.44 159.53364 52.44 161.73364 
L 52.44 176.456452 
Q 52.44 178.656452 54.64 178.656452 
z
" style="fill: #0d1117; opacity: 0.8; stroke: #cccccc; stroke-linejoin: miter"/>
    </g>
    <g id="line2d_20">
     <path d="M 56.84 168.091296 
L 67.84 168.091296 
L 78.84 168.091296 
" style="fill: none; stroke: #8dd3c7; stroke-width: 1.5; stroke-linecap: round"/>
    </g>
    <g id="text_7">
     <!-- Yearly rolling amount of permit submitted -->
     <g style="fill: #ffffff" transform="translate(87.64 171.941296) scale(0.11 -0.11)">
      <defs>
       <path id="ArialMT-59" d="M 1784 0 
L 1784 1941 
L 19 4581 
L 756 4581 
L 1659 3200 
Q 1909 2813 2125 2425 
Q 2331 2784 2625 3234 
L 3513 4581 
L 4219 4581 
L 2391 1941 
L 2391 0 
L 1784 0 
z
" transform="scale(0.015625)"/>
       <path id="ArialMT-65" d="M 2694 1069 
L 3275 997 
Q 3138 488 2766 206 
Q 2394 -75 1816 -75 
Q 1088 -75 661 373 
Q 234 822 234 1631 
Q 234 2469 665 2931 
Q 1097 3394 1784 3394 
Q 2450 3394 2872 2941 
Q 3294 2488 3294 1666 
Q 3294 1616 3291 1516 
L 816 1516 
Q 847 969 1125 678 
Q 1403 388 1819 388 
Q 2128 388 2347 550 
Q 2566 713 2694 1069 
z
M 847 1978 
L 2700 1978 
Q 2663 2397 2488 2606 
Q 2219 2931 1791 2931 
Q 1403 2931 1139 2672 
Q 875 2413 847 1978 
z
" transform="scale(0.015625)"/>
       <path id="ArialMT-61" d="M 2588 409 
Q 2275 144 1986 34 
Q 1697 -75 1366 -75 
Q 819 -75 525 192 
Q 231 459 231 875 
Q 231 1119 342 1320 
Q 453 1522 633 1644 
Q 813 1766 1038 1828 
Q 1203 1872 1538 1913 
Q 2219 1994 2541 2106 
Q 2544 2222 2544 2253 
Q 2544 2597 2384 2738 
Q 2169 2928 1744 2928 
Q 1347 2928 1158 2789 
Q 969 2650 878 2297 
L 328 2372 
Q 403 2725 575 2942 
Q 747 3159 1072 3276 
Q 1397 3394 1825 3394 
Q 2250 3394 2515 3294 
Q 2781 3194 2906 3042 
Q 3031 2891 3081 2659 
Q 3109 2516 3109 2141 
L 3109 1391 
Q 3109 606 3145 398 
Q 3181 191 3288 0 
L 2700 0 
Q 2613 175 2588 409 
z
M 2541 1666 
Q 2234 1541 1622 1453 
Q 1275 1403 1131 1340 
Q 988 1278 909 1158 
Q 831 1038 831 891 
Q 831 666 1001 516 
Q 1172 366 1500 366 
Q 1825 366 2078 508 
Q 2331 650 2450 897 
Q 2541 1088 2541 1459 
L 2541 1666 
z
" transform="scale(0.015625)"/>
       <path id="ArialMT-72" d="M 416 0 
L 416 3319 
L 922 3319 
L 922 2816 
Q 1116 3169 1280 3281 
Q 1444 3394 1641 3394 
Q 1925 3394 2219 3213 
L 2025 2691 
Q 1819 2813 1613 2813 
Q 1428 2813 1281 2702 
Q 1134 2591 1072 2394 
Q 978 2094 978 1738 
L 978 0 
L 416 0 
z
" transform="scale(0.015625)"/>
       <path id="ArialMT-6c" d="M 409 0 
L 409 4581 
L 972 4581 
L 972 0 
L 409 0 
z
" transform="scale(0.015625)"/>
       <path id="ArialMT-79" d="M 397 -1278 
L 334 -750 
Q 519 -800 656 -800 
Q 844 -800 956 -737 
Q 1069 -675 1141 -563 
Q 1194 -478 1313 -144 
Q 1328 -97 1363 -6 
L 103 3319 
L 709 3319 
L 1400 1397 
Q 1534 1031 1641 628 
Q 1738 1016 1872 1384 
L 2581 3319 
L 3144 3319 
L 1881 -56 
Q 1678 -603 1566 -809 
Q 1416 -1088 1222 -1217 
Q 1028 -1347 759 -1347 
Q 597 -1347 397 -1278 
z
" transform="scale(0.015625)"/>
       <path id="ArialMT-20" transform="scale(0.015625)"/>
       <path id="ArialMT-6f" d="M 213 1659 
Q 213 2581 725 3025 
Q 1153 3394 1769 3394 
Q 2453 3394 2887 2945 
Q 3322 2497 3322 1706 
Q 3322 1066 3130 698 
Q 2938 331 2570 128 
Q 2203 -75 1769 -75 
Q 1072 -75 642 372 
Q 213 819 213 1659 
z
M 791 1659 
Q 791 1022 1069 705 
Q 1347 388 1769 388 
Q 2188 388 2466 706 
Q 2744 1025 2744 1678 
Q 2744 2294 2464 2611 
Q 2184 2928 1769 2928 
Q 1347 2928 1069 2612 
Q 791 2297 791 1659 
z
" transform="scale(0.015625)"/>
       <path id="ArialMT-69" d="M 425 3934 
L 425 4581 
L 988 4581 
L 988 3934 
L 425 3934 
z
M 425 0 
L 425 3319 
L 988 3319 
L 988 0 
L 425 0 
z
" transform="scale(0.015625)"/>
       <path id="ArialMT-6e" d="M 422 0 
L 422 3319 
L 928 3319 
L 928 2847 
Q 1294 3394 1984 3394 
Q 2284 3394 2536 3286 
Q 2788 3178 2913 3003 
Q 3038 2828 3088 2588 
Q 3119 2431 3119 2041 
L 3119 0 
L 2556 0 
L 2556 2019 
Q 2556 2363 2490 2533 
Q 2425 2703 2258 2804 
Q 2091 2906 1866 2906 
Q 1506 2906 1245 2678 
Q 984 2450 984 1813 
L 984 0 
L 422 0 
z
" transform="scale(0.015625)"/>
       <path id="ArialMT-67" d="M 319 -275 
L 866 -356 
Q 900 -609 1056 -725 
Q 1266 -881 1628 -881 
Q 2019 -881 2231 -725 
Q 2444 -569 2519 -288 
Q 2563 -116 2559 434 
Q 2191 0 1641 0 
Q 956 0 581 494 
Q 206 988 206 1678 
Q 206 2153 378 2554 
Q 550 2956 876 3175 
Q 1203 3394 1644 3394 
Q 2231 3394 2613 2919 
L 2613 3319 
L 3131 3319 
L 3131 450 
Q 3131 -325 2973 -648 
Q 2816 -972 2473 -1159 
Q 2131 -1347 1631 -1347 
Q 1038 -1347 672 -1080 
Q 306 -813 319 -275 
z
M 784 1719 
Q 784 1066 1043 766 
Q 1303 466 1694 466 
Q 2081 466 2343 764 
Q 2606 1063 2606 1700 
Q 2606 2309 2336 2618 
Q 2066 2928 1684 2928 
Q 1309 2928 1046 2623 
Q 784 2319 784 1719 
z
" transform="scale(0.015625)"/>
       <path id="ArialMT-6d" d="M 422 0 
L 422 3319 
L 925 3319 
L 925 2853 
Q 1081 3097 1340 3245 
Q 1600 3394 1931 3394 
Q 2300 3394 2536 3241 
Q 2772 3088 2869 2813 
Q 3263 3394 3894 3394 
Q 4388 3394 4653 3120 
Q 4919 2847 4919 2278 
L 4919 0 
L 4359 0 
L 4359 2091 
Q 4359 2428 4304 2576 
Q 4250 2725 4106 2815 
Q 3963 2906 3769 2906 
Q 3419 2906 3187 2673 
Q 2956 2441 2956 1928 
L 2956 0 
L 2394 0 
L 2394 2156 
Q 2394 2531 2256 2718 
Q 2119 2906 1806 2906 
Q 1569 2906 1367 2781 
Q 1166 2656 1075 2415 
Q 984 2175 984 1722 
L 984 0 
L 422 0 
z
" transform="scale(0.015625)"/>
       <path id="ArialMT-75" d="M 2597 0 
L 2597 488 
Q 2209 -75 1544 -75 
Q 1250 -75 995 37 
Q 741 150 617 320 
Q 494 491 444 738 
Q 409 903 409 1263 
L 409 3319 
L 972 3319 
L 972 1478 
Q 972 1038 1006 884 
Q 1059 663 1231 536 
Q 1403 409 1656 409 
Q 1909 409 2131 539 
Q 2353 669 2445 892 
Q 2538 1116 2538 1541 
L 2538 3319 
L 3100 3319 
L 3100 0 
L 2597 0 
z
" transform="scale(0.015625)"/>
       <path id="ArialMT-74" d="M 1650 503 
L 1731 6 
Q 1494 -44 1306 -44 
Q 1000 -44 831 53 
Q 663 150 594 308 
Q 525 466 525 972 
L 525 2881 
L 113 2881 
L 113 3319 
L 525 3319 
L 525 4141 
L 1084 4478 
L 1084 3319 
L 1650 3319 
L 1650 2881 
L 1084 2881 
L 1084 941 
Q 1084 700 1114 631 
Q 1144 563 1211 522 
Q 1278 481 1403 481 
Q 1497 481 1650 503 
z
" transform="scale(0.015625)"/>
       <path id="ArialMT-66" d="M 556 0 
L 556 2881 
L 59 2881 
L 59 3319 
L 556 3319 
L 556 3672 
Q 556 4006 616 4169 
Q 697 4388 901 4523 
Q 1106 4659 1475 4659 
Q 1713 4659 2000 4603 
L 1916 4113 
Q 1741 4144 1584 4144 
Q 1328 4144 1222 4034 
Q 1116 3925 1116 3625 
L 1116 3319 
L 1763 3319 
L 1763 2881 
L 1116 2881 
L 1116 0 
L 556 0 
z
" transform="scale(0.015625)"/>
       <path id="ArialMT-70" d="M 422 -1272 
L 422 3319 
L 934 3319 
L 934 2888 
Q 1116 3141 1344 3267 
Q 1572 3394 1897 3394 
Q 2322 3394 2647 3175 
Q 2972 2956 3137 2557 
Q 3303 2159 3303 1684 
Q 3303 1175 3120 767 
Q 2938 359 2589 142 
Q 2241 -75 1856 -75 
Q 1575 -75 1351 44 
Q 1128 163 984 344 
L 984 -1272 
L 422 -1272 
z
M 931 1641 
Q 931 1000 1190 694 
Q 1450 388 1819 388 
Q 2194 388 2461 705 
Q 2728 1022 2728 1688 
Q 2728 2322 2467 2637 
Q 2206 2953 1844 2953 
Q 1484 2953 1207 2617 
Q 931 2281 931 1641 
z
" transform="scale(0.015625)"/>
       <path id="ArialMT-73" d="M 197 991 
L 753 1078 
Q 800 744 1014 566 
Q 1228 388 1613 388 
Q 2000 388 2187 545 
Q 2375 703 2375 916 
Q 2375 1106 2209 1216 
Q 2094 1291 1634 1406 
Q 1016 1563 777 1677 
Q 538 1791 414 1992 
Q 291 2194 291 2438 
Q 291 2659 392 2848 
Q 494 3038 669 3163 
Q 800 3259 1026 3326 
Q 1253 3394 1513 3394 
Q 1903 3394 2198 3281 
Q 2494 3169 2634 2976 
Q 2775 2784 2828 2463 
L 2278 2388 
Q 2241 2644 2061 2787 
Q 1881 2931 1553 2931 
Q 1166 2931 1000 2803 
Q 834 2675 834 2503 
Q 834 2394 903 2306 
Q 972 2216 1119 2156 
Q 1203 2125 1616 2013 
Q 2213 1853 2448 1751 
Q 2684 1650 2818 1456 
Q 2953 1263 2953 975 
Q 2953 694 2789 445 
Q 2625 197 2315 61 
Q 2006 -75 1616 -75 
Q 969 -75 630 194 
Q 291 463 197 991 
z
" transform="scale(0.015625)"/>
       <path id="ArialMT-62" d="M 941 0 
L 419 0 
L 419 4581 
L 981 4581 
L 981 2947 
Q 1338 3394 1891 3394 
Q 2197 3394 2470 3270 
Q 2744 3147 2920 2923 
Q 3097 2700 3197 2384 
Q 3297 2069 3297 1709 
Q 3297 856 2875 390 
Q 2453 -75 1863 -75 
Q 1275 -75 941 416 
L 941 0 
z
M 934 1684 
Q 934 1088 1097 822 
Q 1363 388 1816 388 
Q 2184 388 2453 708 
Q 2722 1028 2722 1663 
Q 2722 2313 2464 2622 
Q 2206 2931 1841 2931 
Q 1472 2931 1203 2611 
Q 934 2291 934 1684 
z
" transform="scale(0.015625)"/>
       <path id="ArialMT-64" d="M 2575 0 
L 2575 419 
Q 2259 -75 1647 -75 
Q 1250 -75 917 144 
Q 584 363 401 755 
Q 219 1147 219 1656 
Q 219 2153 384 2558 
Q 550 2963 881 3178 
Q 1213 3394 1622 3394 
Q 1922 3394 2156 3267 
Q 2391 3141 2538 2938 
L 2538 4581 
L 3097 4581 
L 3097 0 
L 2575 0 
z
M 797 1656 
Q 797 1019 1065 703 
Q 1334 388 1700 388 
Q 2069 388 2326 689 
Q 2584 991 2584 1609 
Q 2584 2291 2321 2609 
Q 2059 2928 1675 2928 
Q 1300 2928 1048 2622 
Q 797 2316 797 1656 
z
" transform="scale(0.015625)"/>
      </defs>
      <use xlink:href="#ArialMT-59"/>
      <use xlink:href="#ArialMT-65" x="57.574219"/>
      <use xlink:href="#ArialMT-61" x="113.189453"/>
      <use xlink:href="#ArialMT-72" x="168.804688"/>
      <use xlink:href="#ArialMT-6c" x="202.105469"/>
      <use xlink:href="#ArialMT-79" x="224.322266"/>
      <use xlink:href="#ArialMT-20" x="274.322266"/>
      <use xlink:href="#ArialMT-72" x="302.105469"/>
      <use xlink:href="#ArialMT-6f" x="335.40625"/>
      <use xlink:href="#ArialMT-6c" x="391.021484"/>
      <use xlink:href="#ArialMT-6c" x="413.238281"/>
      <use xlink:href="#ArialMT-69" x="435.455078"/>
      <use xlink:href="#ArialMT-6e" x="457.671875"/>
      <use xlink:href="#ArialMT-67" x="513.287109"/>
      <use xlink:href="#ArialMT-20" x="568.902344"/>
      <use xlink:href="#ArialMT-61" x="596.685547"/>
      <use xlink:href="#ArialMT-6d" x="652.300781"/>
      <use xlink:href="#ArialMT-6f" x="735.601562"/>
      <use xlink:href="#ArialMT-75" x="791.216797"/>
      <use xlink:href="#ArialMT-6e" x="846.832031"/>
      <use xlink:href="#ArialMT-74" x="902.447266"/>
      <use xlink:href="#ArialMT-20" x="930.230469"/>
      <use xlink:href="#ArialMT-6f" x="958.013672"/>
      <use xlink:href="#ArialMT-66" x="1013.628906"/>
      <use xlink:href="#ArialMT-20" x="1041.412109"/>
      <use xlink:href="#ArialMT-70" x="1069.195312"/>
      <use xlink:href="#ArialMT-65" x="1124.810547"/>
      <use xlink:href="#ArialMT-72" x="1180.425781"/>
      <use xlink:href="#ArialMT-6d" x="1213.726562"/>
      <use xlink:href="#ArialMT-69" x="1297.027344"/>
      <use xlink:href="#ArialMT-74" x="1319.244141"/>
      <use xlink:href="#ArialMT-20" x="1347.027344"/>
      <use xlink:href="#ArialMT-73" x="1374.810547"/>
      <use xlink:href="#ArialMT-75" x="1424.810547"/>
      <use xlink:href="#ArialMT-62" x="1480.425781"/>
      <use xlink:href="#ArialMT-6d" x="1536.041016"/>
      <use xlink:href="#ArialMT-69" x="1619.341797"/>
      <use xlink:href="#ArialMT-74" x="1641.558594"/>
      <use xlink:href="#ArialMT-74" x="1669.341797"/>
      <use xlink:href="#ArialMT-65" x="1697.125"/>
      <use xlink:href="#ArialMT-64" x="1752.740234"/>
     </g>
    </g>
   </g>
  </g>
  <g id="axes_2">
   <g id="patch_8">
    <path d="M 46.94 374.170464 
L 584.64 374.170464 
L 584.64 202.974012 
L 46.94 202.974012 
z
" style="fill: #0d1117"/>
   </g>
   <g id="matplotlib.axis_3">
    <g id="xtick_13">
     <g id="line2d_21">
      <defs>
       <path id="m5285ab1228" d="M 0 0 
L 0 6 
" style="stroke: #ffffff; stroke-width: 1.25"/>
      </defs>
      <g>
       <use xlink:href="#m5285ab1228" x="71.172458" y="374.170464" style="fill: #ffffff; stroke: #ffffff; stroke-width: 1.25"/>
      </g>
     </g>
     <g id="text_8">
      <!-- 2017 -->
      <g style="fill: #ffffff" transform="translate(48.889315 402.723259) rotate(-30) scale(0.11 -0.11)">
       <defs>
        <path id="ArialMT-31" d="M 2384 0 
L 1822 0 
L 1822 3584 
Q 1619 3391 1289 3197 
Q 959 3003 697 2906 
L 697 3450 
Q 1169 3672 1522 3987 
Q 1875 4303 2022 4600 
L 2384 4600 
L 2384 0 
z
" transform="scale(0.015625)"/>
       </defs>
       <use xlink:href="#ArialMT-32"/>
       <use xlink:href="#ArialMT-30" x="55.615234"/>
       <use xlink:href="#ArialMT-31" x="111.230469"/>
       <use xlink:href="#ArialMT-37" x="166.845703"/>
      </g>
     </g>
    </g>
    <g id="xtick_14">
     <g id="line2d_22">
      <g>
       <use xlink:href="#m5285ab1228" x="147.257164" y="374.170464" style="fill: #ffffff; stroke: #ffffff; stroke-width: 1.25"/>
      </g>
     </g>
     <g id="text_9">
      <!-- 2018 -->
      <g style="fill: #ffffff" transform="translate(124.974021 402.723259) rotate(-30) scale(0.11 -0.11)">
       <defs>
        <path id="ArialMT-38" d="M 1131 2484 
Q 781 2613 612 2850 
Q 444 3088 444 3419 
Q 444 3919 803 4259 
Q 1163 4600 1759 4600 
Q 2359 4600 2725 4251 
Q 3091 3903 3091 3403 
Q 3091 3084 2923 2848 
Q 2756 2613 2416 2484 
Q 2838 2347 3058 2040 
Q 3278 1734 3278 1309 
Q 3278 722 2862 322 
Q 2447 -78 1769 -78 
Q 1091 -78 675 323 
Q 259 725 259 1325 
Q 259 1772 486 2073 
Q 713 2375 1131 2484 
z
M 1019 3438 
Q 1019 3113 1228 2906 
Q 1438 2700 1772 2700 
Q 2097 2700 2305 2904 
Q 2513 3109 2513 3406 
Q 2513 3716 2298 3927 
Q 2084 4138 1766 4138 
Q 1444 4138 1231 3931 
Q 1019 3725 1019 3438 
z
M 838 1322 
Q 838 1081 952 856 
Q 1066 631 1291 507 
Q 1516 384 1775 384 
Q 2178 384 2440 643 
Q 2703 903 2703 1303 
Q 2703 1709 2433 1975 
Q 2163 2241 1756 2241 
Q 1359 2241 1098 1978 
Q 838 1716 838 1322 
z
" transform="scale(0.015625)"/>
       </defs>
       <use xlink:href="#ArialMT-32"/>
       <use xlink:href="#ArialMT-30" x="55.615234"/>
       <use xlink:href="#ArialMT-31" x="111.230469"/>
       <use xlink:href="#ArialMT-38" x="166.845703"/>
      </g>
     </g>
    </g>
    <g id="xtick_15">
     <g id="line2d_23">
      <g>
       <use xlink:href="#m5285ab1228" x="223.341871" y="374.170464" style="fill: #ffffff; stroke: #ffffff; stroke-width: 1.25"/>
      </g>
     </g>
     <g id="text_10">
      <!-- 2019 -->
      <g style="fill: #ffffff" transform="translate(201.058728 402.723259) rotate(-30) scale(0.11 -0.11)">
       <defs>
        <path id="ArialMT-39" d="M 350 1059 
L 891 1109 
Q 959 728 1153 556 
Q 1347 384 1650 384 
Q 1909 384 2104 503 
Q 2300 622 2425 820 
Q 2550 1019 2634 1356 
Q 2719 1694 2719 2044 
Q 2719 2081 2716 2156 
Q 2547 1888 2255 1720 
Q 1963 1553 1622 1553 
Q 1053 1553 659 1965 
Q 266 2378 266 3053 
Q 266 3750 677 4175 
Q 1088 4600 1706 4600 
Q 2153 4600 2523 4359 
Q 2894 4119 3086 3673 
Q 3278 3228 3278 2384 
Q 3278 1506 3087 986 
Q 2897 466 2520 194 
Q 2144 -78 1638 -78 
Q 1100 -78 759 220 
Q 419 519 350 1059 
z
M 2653 3081 
Q 2653 3566 2395 3850 
Q 2138 4134 1775 4134 
Q 1400 4134 1122 3828 
Q 844 3522 844 3034 
Q 844 2597 1108 2323 
Q 1372 2050 1759 2050 
Q 2150 2050 2401 2323 
Q 2653 2597 2653 3081 
z
" transform="scale(0.015625)"/>
       </defs>
       <use xlink:href="#ArialMT-32"/>
       <use xlink:href="#ArialMT-30" x="55.615234"/>
       <use xlink:href="#ArialMT-31" x="111.230469"/>
       <use xlink:href="#ArialMT-39" x="166.845703"/>
      </g>
     </g>
    </g>
    <g id="xtick_16">
     <g id="line2d_24">
      <g>
       <use xlink:href="#m5285ab1228" x="299.426577" y="374.170464" style="fill: #ffffff; stroke: #ffffff; stroke-width: 1.25"/>
      </g>
     </g>
     <g id="text_11">
      <!-- 2020 -->
      <g style="fill: #ffffff" transform="translate(277.143434 402.723259) rotate(-30) scale(0.11 -0.11)">
       <use xlink:href="#ArialMT-32"/>
       <use xlink:href="#ArialMT-30" x="55.615234"/>
       <use xlink:href="#ArialMT-32" x="111.230469"/>
       <use xlink:href="#ArialMT-30" x="166.845703"/>
      </g>
     </g>
    </g>
    <g id="xtick_17">
     <g id="line2d_25">
      <g>
       <use xlink:href="#m5285ab1228" x="375.719734" y="374.170464" style="fill: #ffffff; stroke: #ffffff; stroke-width: 1.25"/>
      </g>
     </g>
     <g id="text_12">
      <!-- 2021 -->
      <g style="fill: #ffffff" transform="translate(353.436592 402.723259) rotate(-30) scale(0.11 -0.11)">
       <use xlink:href="#ArialMT-32"/>
       <use xlink:href="#ArialMT-30" x="55.615234"/>
       <use xlink:href="#ArialMT-32" x="111.230469"/>
       <use xlink:href="#ArialMT-31" x="166.845703"/>
      </g>
     </g>
    </g>
    <g id="xtick_18">
     <g id="line2d_26">
      <g>
       <use xlink:href="#m5285ab1228" x="451.804441" y="374.170464" style="fill: #ffffff; stroke: #ffffff; stroke-width: 1.25"/>
      </g>
     </g>
     <g id="text_13">
      <!-- 2022 -->
      <g style="fill: #ffffff" transform="translate(429.521298 402.723259) rotate(-30) scale(0.11 -0.11)">
       <use xlink:href="#ArialMT-32"/>
       <use xlink:href="#ArialMT-30" x="55.615234"/>
       <use xlink:href="#ArialMT-32" x="111.230469"/>
       <use xlink:href="#ArialMT-32" x="166.845703"/>
      </g>
     </g>
    </g>
    <g id="xtick_19">
     <g id="line2d_27">
      <g>
       <use xlink:href="#m5285ab1228" x="527.889147" y="374.170464" style="fill: #ffffff; stroke: #ffffff; stroke-width: 1.25"/>
      </g>
     </g>
     <g id="text_14">
      <!-- 2023 -->
      <g style="fill: #ffffff" transform="translate(505.606004 402.723259) rotate(-30) scale(0.11 -0.11)">
       <defs>
        <path id="ArialMT-33" d="M 269 1209 
L 831 1284 
Q 928 806 1161 595 
Q 1394 384 1728 384 
Q 2125 384 2398 659 
Q 2672 934 2672 1341 
Q 2672 1728 2419 1979 
Q 2166 2231 1775 2231 
Q 1616 2231 1378 2169 
L 1441 2663 
Q 1497 2656 1531 2656 
Q 1891 2656 2178 2843 
Q 2466 3031 2466 3422 
Q 2466 3731 2256 3934 
Q 2047 4138 1716 4138 
Q 1388 4138 1169 3931 
Q 950 3725 888 3313 
L 325 3413 
Q 428 3978 793 4289 
Q 1159 4600 1703 4600 
Q 2078 4600 2393 4439 
Q 2709 4278 2876 4000 
Q 3044 3722 3044 3409 
Q 3044 3113 2884 2869 
Q 2725 2625 2413 2481 
Q 2819 2388 3044 2092 
Q 3269 1797 3269 1353 
Q 3269 753 2831 336 
Q 2394 -81 1725 -81 
Q 1122 -81 723 278 
Q 325 638 269 1209 
z
" transform="scale(0.015625)"/>
       </defs>
       <use xlink:href="#ArialMT-32"/>
       <use xlink:href="#ArialMT-30" x="55.615234"/>
       <use xlink:href="#ArialMT-32" x="111.230469"/>
       <use xlink:href="#ArialMT-33" x="166.845703"/>
      </g>
     </g>
    </g>
    <g id="xtick_20">
     <g id="line2d_28"/>
    </g>
    <g id="xtick_21">
     <g id="line2d_29"/>
    </g>
    <g id="xtick_22">
     <g id="line2d_30"/>
    </g>
    <g id="xtick_23">
     <g id="line2d_31"/>
    </g>
    <g id="xtick_24">
     <g id="line2d_32"/>
    </g>
   </g>
   <g id="matplotlib.axis_4">
    <g id="ytick_7">
     <g id="line2d_33">
      <g>
       <use xlink:href="#m28c58fddbe" x="46.94" y="344.727564" style="fill: #ffffff; stroke: #ffffff; stroke-width: 1.25"/>
      </g>
     </g>
     <g id="text_15">
      <!-- 0 -->
      <g style="fill: #ffffff" transform="translate(31.322969 348.664361) scale(0.11 -0.11)">
       <use xlink:href="#ArialMT-30"/>
      </g>
     </g>
    </g>
    <g id="ytick_8">
     <g id="line2d_34">
      <g>
       <use xlink:href="#m28c58fddbe" x="46.94" y="304.619637" style="fill: #ffffff; stroke: #ffffff; stroke-width: 1.25"/>
      </g>
     </g>
     <g id="text_16">
      <!-- 100 -->
      <g style="fill: #ffffff" transform="translate(19.088906 308.556434) scale(0.11 -0.11)">
       <use xlink:href="#ArialMT-31"/>
       <use xlink:href="#ArialMT-30" x="55.615234"/>
       <use xlink:href="#ArialMT-30" x="111.230469"/>
      </g>
     </g>
    </g>
    <g id="ytick_9">
     <g id="line2d_35">
      <g>
       <use xlink:href="#m28c58fddbe" x="46.94" y="264.511711" style="fill: #ffffff; stroke: #ffffff; stroke-width: 1.25"/>
      </g>
     </g>
     <g id="text_17">
      <!-- 200 -->
      <g style="fill: #ffffff" transform="translate(19.088906 268.448508) scale(0.11 -0.11)">
       <use xlink:href="#ArialMT-32"/>
       <use xlink:href="#ArialMT-30" x="55.615234"/>
       <use xlink:href="#ArialMT-30" x="111.230469"/>
      </g>
     </g>
    </g>
    <g id="ytick_10">
     <g id="line2d_36">
      <g>
       <use xlink:href="#m28c58fddbe" x="46.94" y="224.403785" style="fill: #ffffff; stroke: #ffffff; stroke-width: 1.25"/>
      </g>
     </g>
     <g id="text_18">
      <!-- 300 -->
      <g style="fill: #ffffff" transform="translate(19.088906 228.340581) scale(0.11 -0.11)">
       <use xlink:href="#ArialMT-33"/>
       <use xlink:href="#ArialMT-30" x="55.615234"/>
       <use xlink:href="#ArialMT-30" x="111.230469"/>
      </g>
     </g>
    </g>
   </g>
   <g id="line2d_37">
    <path d="M 71.380909 212.714185 
L 71.58936 212.086521 
M 72.006263 211.984351 
L 72.214714 212.080222 
M 72.840068 211.76839 
L 73.25697 211.312502 
L 73.465422 212.798539 
L 73.673873 213.290888 
M 74.507678 212.567204 
L 74.716129 213.174239 
M 75.758385 212.804115 
L 75.966837 213.172226 
L 76.175288 213.236506 
L 76.383739 214.193948 
L 76.59219 213.065093 
L 77.217544 212.467988 
L 77.425995 212.728145 
L 77.842898 212.429855 
L 78.051349 212.62958 
M 78.885154 211.997336 
L 79.093605 212.143183 
L 79.302057 210.755669 
L 79.510508 213.020741 
L 80.344313 213.327928 
L 80.552764 215.095843 
L 80.761215 215.28399 
L 80.969667 216.148236 
L 81.59502 215.915691 
L 81.803472 215.305034 
L 82.011923 216.857989 
L 82.220374 216.361296 
L 82.428825 218.092437 
L 83.26263 218.84819 
L 83.471082 219.410283 
L 83.679533 219.534734 
L 83.887984 219.048348 
M 84.513338 218.952315 
L 84.721789 218.409449 
L 84.93024 217.532983 
L 85.138692 216.168588 
M 85.972497 216.208314 
L 86.180948 216.848864 
L 86.389399 216.932897 
L 86.59785 216.678458 
L 86.806302 217.477189 
L 87.431655 217.513704 
L 88.26546 215.197886 
L 88.890814 215.458557 
L 89.307717 216.849925 
L 89.516168 216.996389 
L 89.724619 217.357267 
L 90.349973 217.243689 
L 90.766875 216.869055 
L 90.975327 216.924454 
L 91.183778 218.068261 
L 91.809132 218.028797 
L 92.017583 218.450739 
L 92.226034 218.566628 
L 92.642937 220.479602 
M 93.476742 218.873998 
L 93.685193 219.167215 
L 93.893644 218.749433 
L 94.102095 217.212554 
L 94.727449 216.448854 
L 94.9359 219.033683 
L 95.144352 219.056442 
L 95.352803 219.276797 
L 95.561254 219.037287 
L 96.60351 219.492552 
L 96.811962 219.022258 
L 97.020413 219.372683 
L 97.854218 219.081642 
L 98.062669 219.312991 
L 98.27112 220.565919 
L 98.479572 221.046479 
L 99.104925 220.485717 
L 99.313377 219.998452 
L 99.730279 222.821206 
L 99.93873 222.767446 
L 100.564084 221.756014 
L 100.980987 222.58795 
M 102.023243 221.989721 
L 102.231694 221.259928 
L 102.440145 221.785256 
L 102.648597 222.007456 
L 102.857048 221.712121 
L 103.690853 222.589788 
L 103.899304 223.063815 
L 104.316207 222.70683 
L 104.94156 222.920211 
L 105.150012 223.284433 
L 105.358463 223.255001 
L 105.566914 222.271978 
L 105.775365 222.052308 
L 106.817622 221.769573 
L 107.026073 222.766467 
L 107.234524 222.798965 
L 107.859878 223.318336 
L 108.27678 224.206918 
L 108.485232 223.855886 
L 108.693683 223.148966 
L 109.319037 222.945183 
L 109.527488 221.95547 
L 109.735939 221.995381 
L 110.152842 223.483408 
L 110.986647 224.083205 
L 111.195098 224.129611 
L 111.403549 223.582257 
L 111.612 224.021804 
L 112.237354 224.490328 
L 112.445805 225.454825 
L 112.654257 225.100154 
L 112.862708 222.728528 
L 113.696513 223.397473 
L 113.904964 223.325176 
L 114.113415 223.883514 
L 114.530318 223.100164 
L 115.155672 223.262528 
L 115.364123 223.481257 
L 115.572574 223.90659 
L 115.781025 223.535003 
L 115.989477 223.696208 
L 116.61483 223.557062 
L 116.823282 223.865015 
L 117.240184 223.643056 
L 117.448635 224.453202 
L 118.073989 224.707471 
L 118.490892 225.329488 
L 118.699343 225.410871 
L 118.907794 225.875282 
L 119.533148 225.316676 
L 119.741599 224.891057 
L 120.158502 225.268908 
L 120.366953 224.662573 
L 121.61766 226.0758 
L 121.826112 227.171868 
L 122.659917 227.61749 
L 122.868368 227.469025 
L 123.076819 227.503301 
L 123.28527 227.328933 
L 123.910624 227.4628 
L 124.327527 228.391132 
L 124.744429 228.325036 
L 125.369783 228.583063 
M 125.786685 229.09723 
L 126.203588 229.239945 
L 126.828942 229.902675 
L 127.037393 229.808419 
L 127.454295 230.069735 
L 127.662747 229.897282 
L 128.496552 231.31549 
L 128.705003 231.506563 
L 128.913454 231.274864 
L 129.121905 230.704752 
L 129.95571 230.503134 
L 130.164162 230.686564 
L 130.372613 231.50907 
L 130.581064 231.65525 
L 131.206418 231.826324 
L 131.414869 233.058114 
L 131.62332 232.999633 
L 132.040223 234.598923 
L 132.874028 234.792319 
L 133.082479 235.184672 
L 133.29093 235.184519 
L 133.499382 236.060031 
L 134.124735 235.917545 
L 134.333187 236.37768 
L 134.750089 235.863675 
L 134.95854 235.259538 
L 135.583894 235.362269 
L 135.792345 235.552159 
L 136.000797 235.578823 
L 136.209248 235.442135 
L 136.417699 235.765246 
L 137.043053 235.734456 
L 137.251504 235.528017 
L 137.459955 235.635811 
L 137.668407 236.414298 
L 137.876858 236.05555 
L 138.502212 235.312855 
L 138.919114 236.568551 
L 139.127565 235.991972 
L 139.336017 234.634288 
L 140.169822 234.660555 
L 140.586724 234.078607 
L 141.62898 234.775037 
L 141.837432 235.036291 
L 142.045883 234.527741 
L 142.254334 235.092647 
L 143.088139 235.92922 
L 143.505042 236.901507 
L 143.713493 236.988097 
L 144.338847 237.102345 
L 144.547298 237.670527 
L 144.755749 237.291906 
L 144.9642 237.780277 
L 145.172652 238.589674 
L 146.006457 238.892456 
L 146.423359 239.845336 
L 146.63181 239.125475 
L 147.257164 239.232664 
L 147.465615 238.99052 
L 147.674067 239.385904 
L 148.090969 239.608818 
L 148.924774 239.864814 
L 149.341677 240.728544 
L 149.550128 240.34892 
L 150.175482 239.977542 
L 150.383933 240.00448 
L 150.592384 240.609903 
L 150.800835 240.559549 
L 151.009287 240.696348 
L 151.843092 240.888505 
L 152.051543 241.139674 
L 152.259994 241.14019 
L 152.468445 240.781634 
L 153.30225 241.584282 
L 153.510702 241.431556 
L 153.719153 241.446595 
L 153.927604 241.154075 
L 154.552958 241.304723 
L 155.178312 242.551488 
L 155.386763 243.330785 
L 156.012117 242.854834 
L 156.220568 242.913649 
L 156.429019 243.308861 
L 156.63747 243.206491 
L 156.845922 243.614041 
L 157.679727 243.722436 
L 157.888178 244.131665 
L 158.096629 244.238829 
L 158.30508 244.47997 
L 158.930434 244.451226 
L 159.347337 244.899313 
L 159.555788 244.775873 
L 160.389593 245.453246 
L 160.806495 246.48481 
L 161.223398 247.912695 
L 162.057203 248.52554 
L 162.682557 249.603564 
L 163.30791 249.729917 
L 163.516362 249.583755 
L 163.724813 250.232833 
L 163.933264 250.51412 
L 164.141715 251.688399 
L 164.767069 252.109662 
L 164.97552 251.84942 
L 165.392423 252.215879 
L 165.600874 252.388389 
L 166.434679 252.514443 
L 167.060033 253.197913 
L 167.685387 253.486323 
L 168.102289 254.015932 
L 168.31074 254.205635 
L 168.519192 254.67318 
L 169.352997 255.002115 
L 169.769899 256.153752 
L 170.603704 256.95391 
L 171.020607 257.648542 
L 171.437509 258.283387 
L 172.062863 258.40115 
L 172.479765 258.678712 
L 172.688217 258.361754 
L 172.896668 258.958408 
M 173.522022 259.004073 
L 173.938924 259.726763 
L 174.355827 259.320922 
L 174.98118 259.850543 
L 175.398083 260.848154 
L 175.606534 260.983218 
L 175.814985 260.631351 
L 176.857242 261.719906 
L 177.065693 261.411175 
L 177.274144 262.059658 
L 177.899498 262.261914 
L 178.733303 263.670413 
L 179.358657 263.490745 
L 179.567108 263.953573 
L 179.775559 264.008793 
L 179.98401 264.373783 
L 180.192462 265.065104 
L 181.234718 265.900169 
L 181.443169 266.149797 
L 181.65162 266.625991 
L 182.276974 266.967954 
L 182.485425 267.289136 
L 182.693877 268.055424 
L 183.110779 268.552077 
L 183.944584 268.98673 
L 184.153035 268.968253 
L 184.569938 269.742516 
L 186.65445 271.872503 
L 187.071353 271.788203 
L 187.488255 272.615073 
L 188.32206 273.351843 
L 188.738963 274.259073 
L 188.947414 275.126803 
L 189.572768 275.27091 
L 189.781219 275.0345 
L 190.198122 275.26283 
L 190.406573 275.780193 
L 191.240378 275.83008 
L 191.65728 276.267767 
L 191.865732 276.476597 
L 192.491085 276.217383 
L 192.699537 276.482037 
L 193.116439 276.636044 
L 193.32489 277.228721 
L 194.158695 277.552465 
L 194.784049 277.699348 
L 195.409403 277.706481 
L 195.826305 278.559598 
L 197.285464 279.537682 
L 197.493915 279.33728 
L 197.702367 279.528366 
L 198.744623 280.040331 
L 199.161525 280.516319 
L 199.786879 280.854992 
L 200.203782 281.482416 
L 200.412233 281.463095 
L 200.620684 281.658844 
L 201.246038 281.897054 
L 201.454489 281.643373 
L 201.871392 281.525064 
L 202.079843 281.430594 
L 202.913648 281.623077 
L 203.122099 281.506397 
L 203.33055 281.69566 
L 203.539002 282.083599 
L 204.789709 282.502668 
L 204.99816 282.838004 
L 205.831965 283.369632 
L 206.248868 283.874222 
L 206.457319 283.697213 
L 207.291124 283.953589 
L 207.708027 284.224799 
L 208.750283 284.485955 
L 209.167186 284.784345 
L 209.375637 285.252753 
L 210.209442 285.522011 
L 210.417893 285.858536 
L 210.834796 286.092049 
L 211.460149 286.163659 
L 212.293954 287.039218 
L 213.127759 287.03273 
L 213.544662 287.604996 
L 213.753113 287.498689 
L 214.378467 287.710387 
L 214.586918 288.058292 
L 215.003821 287.990901 
L 215.212272 288.520682 
L 216.671431 290.120628 
L 217.505236 290.164563 
L 217.713687 290.259735 
L 218.130589 291.05235 
L 219.172846 291.390836 
L 220.215102 291.889025 
L 220.423553 292.054611 
L 220.632004 292.042981 
L 220.840456 292.3156 
L 221.048907 292.176691 
M 221.674261 292.281452 
L 222.091163 292.366492 
L 222.299614 292.170648 
L 222.508066 292.157939 
L 223.967224 292.94304 
L 225.217932 293.263131 
L 225.426383 293.444498 
L 226.051737 293.673244 
L 226.468639 294.17691 
L 226.885542 294.432754 
L 227.510896 294.377353 
L 227.719347 294.600096 
L 227.927798 294.518323 
L 228.136249 294.612026 
L 228.344701 294.833622 
L 229.803859 295.294967 
L 231.263018 295.933977 
L 231.888372 295.985796 
L 232.305274 296.350034 
L 232.513726 296.184387 
L 232.722177 296.371317 
L 233.347531 296.379561 
L 234.181336 296.879603 
L 235.223592 296.752828 
L 235.432043 296.722096 
L 235.640494 297.01599 
L 236.474299 297.09972 
L 236.682751 297.02169 
L 237.099653 297.195826 
L 237.725007 297.185043 
L 237.933458 297.053991 
L 238.141909 297.199514 
L 238.558812 297.08716 
L 239.184166 297.140138 
L 239.392617 296.944859 
L 239.601068 297.200241 
L 239.809519 297.13279 
L 240.017971 297.267725 
L 240.851776 297.19101 
L 241.060227 297.409265 
L 241.268678 297.369697 
L 241.477129 297.602946 
L 242.102483 297.923344 
L 242.310934 297.826617 
L 242.519386 297.871398 
L 242.727837 297.590919 
L 242.936288 297.768808 
L 245.020801 297.96723 
L 245.854606 298.01241 
L 246.688411 298.271636 
L 246.896862 298.153988 
L 247.313764 298.364892 
L 248.564472 298.711304 
L 248.772923 299.116628 
L 249.606728 298.914258 
L 250.232082 299.156174 
L 251.691241 299.139701 
L 252.525046 299.445894 
L 252.941948 299.374408 
L 253.150399 299.65851 
L 254.609558 299.417099 
L 258.778583 299.587135 
L 258.987034 299.519266 
L 259.612388 299.581466 
L 259.820839 299.436658 
L 260.237742 299.602876 
L 260.446193 299.416738 
L 261.696901 299.598614 
L 261.905352 299.876795 
L 263.156059 300.25284 
L 263.364511 299.846602 
L 264.615218 300.061214 
L 264.823669 299.854054 
L 265.657474 299.97469 
L 265.865926 300.236492 
L 266.282828 300.326436 
L 267.325084 300.291596 
L 267.741987 299.945208 
L 268.575792 300.079254 
L 269.201146 300.305345 
L 270.034951 300.122691 
L 270.243402 300.153903 
L 270.660304 299.932334 
L 271.702561 300.041839 
L 271.911012 299.932977 
L 272.119463 300.115341 
L 272.744817 300.14338 
L 272.953268 300.020517 
L 273.161719 300.040537 
L 273.370171 299.895825 
L 273.578622 300.166649 
L 273.787073 300.127303 
L 275.871586 300.678586 
L 277.122293 301.185529 
L 277.956098 302.027266 
L 278.998354 302.357863 
L 279.206806 302.565856 
L 280.040611 302.584881 
L 280.874416 303.185042 
L 282.333574 303.513295 
L 283.792733 304.127059 
L 284.626538 304.293833 
L 285.043441 304.63642 
L 285.251892 304.841558 
L 286.085697 304.927565 
L 286.502599 305.220368 
L 287.336404 305.383387 
L 287.753307 305.786107 
L 287.961758 305.786542 
L 288.170209 305.932977 
L 289.004014 306.085314 
L 289.212466 306.385575 
L 290.254722 306.625123 
L 290.671624 306.923772 
L 291.088527 307.337806 
L 292.130783 307.314188 
L 292.339234 307.266601 
L 292.547686 307.45206 
L 293.381491 307.87745 
L 294.006844 308.284495 
L 294.840649 308.367672 
L 296.091357 308.988084 
L 296.508259 309.200296 
L 296.925162 309.762529 
L 297.758967 310.527539 
L 298.175869 310.553403 
L 298.384321 310.858747 
L 299.635028 311.385713 
L 300.468833 311.321899 
L 300.885736 311.534997 
L 303.387151 312.132389 
L 303.595602 312.458882 
L 303.804053 312.376984 
L 304.012504 312.607325 
L 304.846309 312.799756 
L 306.722371 313.927956 
L 307.139273 313.983572 
L 307.764627 314.035666 
L 308.181529 314.430008 
L 308.389981 314.508076 
L 308.598432 314.760142 
L 309.432237 315.200958 
L 310.057591 315.656104 
L 310.682944 315.892515 
L 311.099847 316.37466 
L 311.516749 316.944594 
L 312.350554 317.09998 
L 312.975908 317.5228 
L 313.601262 317.668077 
L 314.018164 318.279867 
L 315.060421 318.69555 
L 315.268872 318.685784 
L 315.477323 318.947646 
L 315.894226 319.152155 
L 316.936482 319.605218 
L 317.353384 319.960873 
L 318.187189 320.046422 
L 318.812543 320.948768 
L 319.646348 321.226805 
L 319.854799 321.531639 
L 320.271702 321.620619 
L 321.522409 322.04198 
L 321.730861 322.281628 
L 322.773117 322.567168 
L 322.981568 322.746887 
L 323.815373 322.776412 
L 324.440727 323.15885 
L 325.274532 323.151413 
L 325.691434 323.633547 
L 326.108337 323.838514 
L 326.733691 324.055711 
L 327.150593 324.648398 
L 328.401301 325.404349 
L 328.609752 325.419322 
L 329.026654 325.692312 
L 329.652008 325.800419 
L 330.277362 326.529378 
L 330.485813 326.549008 
L 331.319618 326.987749 
L 331.736521 327.506932 
L 331.944972 327.741822 
L 332.778777 327.994976 
L 332.987228 328.116916 
L 333.404131 328.67478 
L 334.029484 328.890884 
L 334.446387 329.543167 
L 334.654838 329.570922 
L 334.863289 329.940279 
L 335.697094 330.520757 
L 336.322448 331.389205 
L 337.781607 332.520367 
L 338.823863 332.74959 
L 339.032314 332.862319 
L 339.240766 333.207012 
L 340.074571 334.163347 
L 340.699924 334.563003 
L 342.159083 335.526435 
L 342.784437 335.645903 
L 343.201339 336.201037 
L 343.409791 336.378517 
L 343.618242 336.784951 
L 344.243596 337.05872 
L 344.868949 337.589354 
L 345.702754 337.719891 
L 345.911206 338.017309 
L 347.161913 338.53063 
L 347.995718 339.0899 
L 348.621072 339.164764 
L 349.246426 339.925656 
L 349.663328 341.312436 
L 350.705584 341.310318 
L 350.914036 341.449296 
L 351.539389 341.478948 
L 351.956292 341.381411 
L 352.373194 341.402233 
L 353.415451 341.364337 
L 354.874609 341.054368 
L 355.291512 341.297555 
L 356.125317 341.309192 
L 360.711244 341.9122 
L 361.128147 341.940444 
L 361.961952 342.074198 
L 362.170403 342.179365 
L 362.795757 342.138808 
L 363.838013 342.275636 
L 364.046464 342.394616 
L 366.130977 342.660975 
L 366.339428 342.743058 
L 366.756331 342.627279 
L 368.007038 343.037145 
L 368.423941 343.361844 
L 369.049294 343.298084 
L 369.674648 343.64226 
L 369.883099 343.603119 
L 370.716904 343.605909 
L 370.925356 343.50642 
L 371.967612 343.941833 
L 372.176063 344.003799 
L 372.384514 343.866865 
L 373.426771 343.955034 
L 373.635222 344.009488 
L 373.843673 344.211772 
L 374.885929 344.252914 
L 375.094381 344.385873 
L 375.511283 344.310355 
L 375.719734 344.339243 
L 376.553539 344.567768 
L 376.761991 344.548828 
L 377.178893 344.788007 
L 378.012698 344.956635 
L 378.221149 345.105419 
L 378.638052 344.972502 
L 379.471857 345.110203 
L 380.097211 345.226283 
L 380.931016 345.296049 
L 381.556369 345.457973 
L 382.598626 345.648379 
L 383.015528 346.078224 
L 385.725394 346.514402 
L 385.933846 346.398136 
L 387.393004 346.720012 
L 388.852163 346.832748 
L 389.685968 346.930605 
L 389.894419 346.824212 
L 390.936676 347.115239 
L 391.145127 347.133335 
L 391.562029 347.469156 
L 391.770481 347.347144 
L 392.604286 347.447166 
L 393.021188 347.587032 
L 393.229639 347.54274 
L 397.190213 347.929238 
L 397.607116 348.058456 
L 398.649372 347.993617 
L 398.857823 348.009864 
L 399.066274 347.912071 
L 400.525433 348.284885 
L 401.150787 348.344778 
L 401.359238 348.512188 
L 401.984592 348.443734 
L 404.069104 348.672316 
L 404.277556 348.84986 
L 404.486007 348.762903 
L 405.111361 348.807721 
L 409.071934 349.462604 
L 409.280386 349.379444 
L 410.114191 349.349333 
L 410.531093 349.22586 
L 410.739544 349.420972 
L 411.364898 349.407098 
L 411.573349 349.263397 
L 411.990252 349.254869 
L 412.824057 349.270591 
L 413.449411 349.428682 
L 413.657862 349.359306 
L 415.950826 349.995942 
L 416.367728 349.997709 
L 416.576179 350.089017 
L 418.035338 350.15297 
L 419.494497 350.453722 
L 420.953656 350.348729 
L 423.038168 350.555569 
L 423.871973 350.65559 
L 425.331132 350.73617 
L 426.58184 350.702047 
L 426.790291 350.822017 
L 427.832547 350.851729 
L 430.750865 351.359619 
L 431.167767 351.378682 
L 431.793121 351.463495 
L 432.210023 351.701019 
L 432.626926 351.628654 
L 433.669182 351.84424 
L 434.086085 351.720817 
L 435.128341 351.771619 
L 435.336792 351.73786 
L 435.545243 351.821726 
M 436.170597 351.830629 
L 437.004402 352.128632 
L 438.25511 352.129047 
L 438.463561 352.302639 
L 440.756525 352.314042 
L 440.964976 352.364102 
M 441.381878 352.44345 
L 442.424135 352.434656 
L 442.841037 352.721244 
L 444.300196 352.805457 
L 446.59316 352.979547 
L 447.218513 353.157074 
L 448.26077 353.336894 
L 448.886123 353.729817 
L 449.511477 353.826385 
L 449.719928 353.9058 
L 449.92838 353.783445 
L 450.136831 353.857883 
L 451.59599 353.918084 
M 452.221343 353.942653 
L 452.846697 353.946332 
L 454.514307 353.973764 
L 455.765015 354.169268 
L 455.973466 354.326254 
L 458.26643 354.525175 
L 458.891783 354.507699 
L 464.519967 355.212608 
L 464.728418 355.335334 
L 465.770675 355.440011 
L 466.187577 355.451951 
L 468.480541 355.641762 
L 469.105895 355.647943 
M 469.731248 355.683444 
L 473.27492 356.045618 
L 473.483371 356.130995 
L 474.734078 356.300306 
L 475.776335 356.398775 
L 475.984786 356.381222 
L 476.193237 356.480719 
L 477.235493 356.420753 
L 478.694652 356.638921 
L 479.111555 356.795273 
L 479.320006 356.859956 
L 480.362262 356.959273 
L 480.779165 357.136465 
L 483.697482 357.271815 
L 485.573543 357.384868 
L 486.6158 357.767377 
L 487.449605 357.796729 
L 487.658056 358.010065 
L 487.866507 357.988608 
L 488.074958 358.100401 
L 490.576373 358.469699 
L 490.784825 358.528236 
L 490.993276 358.42332 
L 492.243983 358.634497 
L 492.452435 358.756683 
L 493.28624 358.819416 
L 493.494691 358.908449 
L 499.122875 359.307667 
L 501.832741 359.523879 
L 502.458095 359.653755 
L 503.500351 359.628368 
L 503.917253 359.717831 
L 504.125705 359.719479 
L 505.584863 359.955338 
L 506.62712 360.021927 
L 507.044022 360.130312 
L 509.336986 360.227863 
L 509.753888 360.214662 
L 509.96234 360.406334 
L 511.213047 360.566355 
L 511.421498 360.640979 
L 513.714462 360.826218 
L 514.339816 360.934055 
L 515.382072 361.041502 
L 515.798975 361.199591 
L 518.30039 361.446859 
L 518.717292 361.526876 
L 519.759548 361.639674 
L 520.801805 361.740452 
L 523.094768 362.203488 
L 525.387732 362.356825 
L 528.097598 362.941427 
L 528.514501 363.00009 
L 528.931403 363.065396 
L 530.390562 363.164135 
L 531.64127 363.34444 
L 531.849721 363.446943 
L 532.891977 363.587393 
L 533.30888 363.631908 
L 537.269453 364.096573 
L 538.520161 364.314173 
L 538.728612 364.308676 
L 538.937063 364.432825 
L 539.770868 364.462686 
L 540.396222 364.523707 
L 541.230027 364.559607 
L 542.063832 364.639854 
L 543.106088 364.771046 
L 543.522991 364.859231 
L 545.607503 365.066277 
L 546.024406 365.172546 
L 547.900467 365.385526 
M 548.734272 365.432649 
L 550.193431 365.492193 
L 550.818785 365.608461 
L 551.861041 365.764361 
L 553.3202 366.015503 
L 554.362456 366.014322 
M 560.199091 366.388807 
" clip-path="url(#p2c1fc24d8b)" style="fill: none; stroke: #feffb3; stroke-width: 1.5; stroke-linecap: round"/>
   </g>
   <g id="patch_9">
    <path d="M 46.94 374.170464 
L 46.94 202.974012 
" style="fill: none; stroke: #ffffff; stroke-width: 1.25; stroke-linejoin: miter; stroke-linecap: square"/>
   </g>
   <g id="patch_10">
    <path d="M 584.64 374.170464 
L 584.64 202.974012 
" style="fill: none; stroke: #ffffff; stroke-width: 1.25; stroke-linejoin: miter; stroke-linecap: square"/>
   </g>
   <g id="patch_11">
    <path d="M 46.94 374.170464 
L 584.64 374.170464 
" style="fill: none; stroke: #ffffff; stroke-width: 1.25; stroke-linejoin: miter; stroke-linecap: square"/>
   </g>
   <g id="patch_12">
    <path d="M 46.94 202.974012 
L 584.64 202.974012 
" style="fill: none; stroke: #ffffff; stroke-width: 1.25; stroke-linejoin: miter; stroke-linecap: square"/>
   </g>
   <g id="legend_2">
    <g id="patch_13">
     <path d="M 307.972813 227.596824 
L 576.94 227.596824 
Q 579.14 227.596824 579.14 225.396824 
L 579.14 210.674012 
Q 579.14 208.474012 576.94 208.474012 
L 307.972813 208.474012 
Q 305.772813 208.474012 305.772813 210.674012 
L 305.772813 225.396824 
Q 305.772813 227.596824 307.972813 227.596824 
z
" style="fill: #0d1117; opacity: 0.8; stroke: #cccccc; stroke-linejoin: miter"/>
    </g>
    <g id="line2d_38">
     <path d="M 310.172813 217.031668 
L 321.172813 217.031668 
L 332.172813 217.031668 
" style="fill: none; stroke: #feffb3; stroke-width: 1.5; stroke-linecap: round"/>
    </g>
    <g id="text_19">
     <!-- Yearly rolling average lead time deviation (days) -->
     <g style="fill: #ffffff" transform="translate(340.972813 220.881668) scale(0.11 -0.11)">
      <defs>
       <path id="ArialMT-76" d="M 1344 0 
L 81 3319 
L 675 3319 
L 1388 1331 
Q 1503 1009 1600 663 
Q 1675 925 1809 1294 
L 2547 3319 
L 3125 3319 
L 1869 0 
L 1344 0 
z
" transform="scale(0.015625)"/>
       <path id="ArialMT-28" d="M 1497 -1347 
Q 1031 -759 709 28 
Q 388 816 388 1659 
Q 388 2403 628 3084 
Q 909 3875 1497 4659 
L 1900 4659 
Q 1522 4009 1400 3731 
Q 1209 3300 1100 2831 
Q 966 2247 966 1656 
Q 966 153 1900 -1347 
L 1497 -1347 
z
" transform="scale(0.015625)"/>
       <path id="ArialMT-29" d="M 791 -1347 
L 388 -1347 
Q 1322 153 1322 1656 
Q 1322 2244 1188 2822 
Q 1081 3291 891 3722 
Q 769 4003 388 4659 
L 791 4659 
Q 1378 3875 1659 3084 
Q 1900 2403 1900 1659 
Q 1900 816 1576 28 
Q 1253 -759 791 -1347 
z
" transform="scale(0.015625)"/>
      </defs>
      <use xlink:href="#ArialMT-59"/>
      <use xlink:href="#ArialMT-65" x="57.574219"/>
      <use xlink:href="#ArialMT-61" x="113.189453"/>
      <use xlink:href="#ArialMT-72" x="168.804688"/>
      <use xlink:href="#ArialMT-6c" x="202.105469"/>
      <use xlink:href="#ArialMT-79" x="224.322266"/>
      <use xlink:href="#ArialMT-20" x="274.322266"/>
      <use xlink:href="#ArialMT-72" x="302.105469"/>
      <use xlink:href="#ArialMT-6f" x="335.40625"/>
      <use xlink:href="#ArialMT-6c" x="391.021484"/>
      <use xlink:href="#ArialMT-6c" x="413.238281"/>
      <use xlink:href="#ArialMT-69" x="435.455078"/>
      <use xlink:href="#ArialMT-6e" x="457.671875"/>
      <use xlink:href="#ArialMT-67" x="513.287109"/>
      <use xlink:href="#ArialMT-20" x="568.902344"/>
      <use xlink:href="#ArialMT-61" x="596.685547"/>
      <use xlink:href="#ArialMT-76" x="652.300781"/>
      <use xlink:href="#ArialMT-65" x="702.300781"/>
      <use xlink:href="#ArialMT-72" x="757.916016"/>
      <use xlink:href="#ArialMT-61" x="791.216797"/>
      <use xlink:href="#ArialMT-67" x="846.832031"/>
      <use xlink:href="#ArialMT-65" x="902.447266"/>
      <use xlink:href="#ArialMT-20" x="958.0625"/>
      <use xlink:href="#ArialMT-6c" x="985.845703"/>
      <use xlink:href="#ArialMT-65" x="1008.0625"/>
      <use xlink:href="#ArialMT-61" x="1063.677734"/>
      <use xlink:href="#ArialMT-64" x="1119.292969"/>
      <use xlink:href="#ArialMT-20" x="1174.908203"/>
      <use xlink:href="#ArialMT-74" x="1202.691406"/>
      <use xlink:href="#ArialMT-69" x="1230.474609"/>
      <use xlink:href="#ArialMT-6d" x="1252.691406"/>
      <use xlink:href="#ArialMT-65" x="1335.992188"/>
      <use xlink:href="#ArialMT-20" x="1391.607422"/>
      <use xlink:href="#ArialMT-64" x="1419.390625"/>
      <use xlink:href="#ArialMT-65" x="1475.005859"/>
      <use xlink:href="#ArialMT-76" x="1530.621094"/>
      <use xlink:href="#ArialMT-69" x="1580.621094"/>
      <use xlink:href="#ArialMT-61" x="1602.837891"/>
      <use xlink:href="#ArialMT-74" x="1658.453125"/>
      <use xlink:href="#ArialMT-69" x="1686.236328"/>
      <use xlink:href="#ArialMT-6f" x="1708.453125"/>
      <use xlink:href="#ArialMT-6e" x="1764.068359"/>
      <use xlink:href="#ArialMT-20" x="1819.683594"/>
      <use xlink:href="#ArialMT-28" x="1847.466797"/>
      <use xlink:href="#ArialMT-64" x="1880.767578"/>
      <use xlink:href="#ArialMT-61" x="1936.382812"/>
      <use xlink:href="#ArialMT-79" x="1991.998047"/>
      <use xlink:href="#ArialMT-73" x="2041.998047"/>
      <use xlink:href="#ArialMT-29" x="2091.998047"/>
     </g>
    </g>
   </g>
  </g>
 </g>
 <defs>
  <clipPath id="pb47f0d2709">
   <rect x="46.94" y="12.96" width="537.7" height="171.196452"/>
  </clipPath>
  <clipPath id="p2c1fc24d8b">
   <rect x="46.94" y="202.974012" width="537.7" height="171.196452"/>
  </clipPath>
 </defs>
</svg>
